<?xml version="1.0" encoding="UTF-8"?>
<svg id="_Слой_2" data-name="Слой 2" xmlns="http://www.w3.org/2000/svg" viewBox="0 0 483.65 341.89">
  <g id="_Слой_1-2" data-name="Слой 1">
    <g>
      <path d="M38.06,0h44.33l37.6,165.7h-37.36l-7.19-35.97h-36.44l-7.19,35.97H0L38.06,0ZM69.85,101.88l-12.3-61.73h-.46l-12.53,61.73h25.3Z"/>
      <path d="M101.42,0h48.04c39.45,0,59.64,17.17,59.64,48.27,0,20.65-9.28,35.27-25.76,42.93l29.24,74.5h-39.68l-23.67-65.67h-10.91v65.67h-36.9V0ZM172.2,49.43c0-14.39-7.19-22.05-22.05-22.05h-11.84v44.79h12.07c15.09,0,21.82-7.89,21.82-22.74Z"/>
      <path d="M197.27,0h48.04c39.45,0,59.64,17.17,59.64,48.27,0,20.65-9.28,35.27-25.76,42.93l29.24,74.5h-39.68l-23.67-65.67h-10.91v65.67h-36.9V0ZM268.05,49.43c0-14.39-7.19-22.05-22.05-22.05h-11.84v44.79h12.07c15.09,0,21.82-7.89,21.82-22.74Z"/>
      <path d="M320.97,0h44.33l37.6,165.7h-37.36l-7.19-35.97h-36.44l-7.19,35.97h-31.79L320.97,0ZM352.76,101.88l-12.3-61.73h-.46l-12.53,61.73h25.3Z"/>
      <path d="M402.2,97.94L360.65,0h40.38l22.28,61.27h.23L446.75,0h32.72l-40.15,97.7v68h-37.13v-67.76Z"/>
      <path d="M2.55,173.4h43.4c44.33,0,66.61,25.06,66.61,82.15s-21.81,83.55-67.3,83.55H2.55v-165.7ZM73.8,255.55c0-41.77-8.12-54.07-29.47-54.07h-4.41v109.54h4.41c21.35,0,29.47-13.46,29.47-55.46Z"/>
      <path d="M103.97,173.4h88.65v28.08h-51.29v37.13h32.03v27.62h-32.03v44.79h54.54v28.08h-91.9v-165.7Z"/>
      <path d="M186.13,173.4h45.49c40.38,0,60.34,17.17,60.34,51.52s-20.89,51.05-57.79,51.05h-11.14v63.13h-36.9v-165.7ZM254.82,224.46c0-15.78-7.2-23.44-22.28-23.44h-9.52v47.34h9.52c15.32,0,22.28-7.89,22.28-23.9Z"/>
      <path d="M277.1,256.25c0-54.54,21.81-85.64,59.87-85.64s60.11,31.1,60.11,85.64-21.81,85.64-60.11,85.64-59.87-31.1-59.87-85.64ZM357.4,256.25c0-42.7-5.8-58.72-20.42-58.72s-20.42,16.02-20.42,58.72,5.8,58.71,20.42,58.71,20.42-16.24,20.42-58.71Z"/>
      <path d="M411.47,201.48h-35.27v-28.08h107.45v28.08h-35.04v137.62h-37.13v-137.62Z"/>
    </g>
  </g>
</svg>