<svg width="40" height="12" viewBox="0 0 40 12" fill="none" xmlns="http://www.w3.org/2000/svg">
<mask id="mask0_25_111" style="mask-type:alpha" maskUnits="userSpaceOnUse" x="0" y="0" width="40" height="12">
<rect width="40" height="12" fill="#D9D9D9"/>
</mask>
<g mask="url(#mask0_25_111)">
<path d="M3.45223 11.168C1.77223 11.168 0.666235 10.132 0.484234 8.41L1.82823 8.158C1.94023 9.39 2.54223 10.09 3.48023 10.09C4.36223 10.09 4.90823 9.516 4.90823 8.564C4.90823 7.808 4.60023 7.304 3.84423 6.87L2.51423 6.1C1.29623 5.4 0.750235 4.546 0.750235 3.412C0.750235 1.886 1.84223 0.836 3.42423 0.836C4.88023 0.836 5.94423 1.718 6.12623 3.048L4.86623 3.426C4.69823 2.446 4.22223 1.914 3.45223 1.914C2.65423 1.914 2.15023 2.446 2.15023 3.258C2.15023 3.986 2.50023 4.392 3.55023 4.98L4.72623 5.652C5.80423 6.268 6.33623 7.192 6.33623 8.368C6.33623 10.076 5.20223 11.168 3.45223 11.168ZM7.12975 11V1.004H8.64175V11H7.12975ZM12.64 11.168C10.694 11.168 9.54595 9.292 9.54595 6.086C9.54595 2.74 10.736 0.836 12.962 0.836C14.6 0.836 15.706 1.844 15.888 3.832L14.39 4C14.362 2.586 13.788 1.928 12.962 1.928C11.702 1.928 11.128 3.342 11.128 6.058C11.128 8.732 11.744 10.062 12.934 10.062C13.97 10.062 14.572 8.998 14.572 7.136V6.996H12.99V5.946H15.986V11H15.216L14.978 9.138C14.684 10.412 13.816 11.168 12.64 11.168ZM16.9948 11V1.004H18.8708L21.7268 7.682H21.7408L21.7128 6.254V1.004H23.0568V11H21.8808L18.2968 2.698H18.2828L18.3388 4.224V11H16.9948Z" fill="black"/>
<path d="M29.2296 11.168C27.2136 11.168 26.2196 10.09 26.2196 8.228V1.004H27.7316V8.368C27.7316 9.404 28.2636 10.006 29.2996 10.006C30.3076 10.006 30.8256 9.404 30.8256 8.368V1.004H32.1276L32.1416 8.214C32.1416 10.062 31.1056 11.168 29.2296 11.168ZM33.2937 11V1.004H35.8277C37.9697 1.004 39.1457 2.012 39.1457 3.958C39.1457 5.89 37.9557 6.912 35.8697 6.912H34.7917V11H33.2937ZM35.8697 5.792C37.0737 5.792 37.6337 5.148 37.6337 3.958C37.6337 2.754 37.0737 2.124 35.8697 2.124H34.7917V5.792H35.8697Z" fill="black"/>
</g>
</svg>
