<svg width="30" height="28" viewBox="0 0 30 28" fill="none" xmlns="http://www.w3.org/2000/svg">
<path d="M1.09964 15V5.004H4.13764L5.27164 11.234H5.29964L6.40564 5.004H9.47164V15H7.28764V9.512L7.32964 7.23H7.30164L5.91564 15H4.33364L2.90564 7.202H2.87764L2.96164 9.512V15H1.09964ZM9.953 15V5.004H15.301V6.698H12.207V8.938H14.139V10.604H12.207V13.306H15.497V15H9.953ZM15.6071 15V5.004H18.2671L20.2551 10.058H20.2691L20.2411 8.476V5.004H22.1731V15H20.4791L17.4831 7.636H17.4691L17.5251 9.33V15H15.6071ZM25.8205 15.168C23.6085 15.168 22.5445 13.992 22.5445 12.074V5.004H24.7985V12.214C24.7985 12.942 25.1765 13.432 25.9325 13.432C26.6745 13.432 27.0525 12.942 27.0525 12.228V5.004H28.9845L28.9985 12.06C28.9985 13.964 27.8645 15.168 25.8205 15.168Z" fill="black"/>
<path d="M16.1132 24H14.3752V19.391L12.2412 19.864L15.2442 16.014L18.2472 19.875L16.1132 19.391V24Z" fill="black"/>
</svg>
