<svg width="30" height="20" viewBox="0 0 30 20" fill="none" xmlns="http://www.w3.org/2000/svg">
<path d="M1.0478 15V5.004H3.1898L4.9118 12.326H4.9258L6.6618 5.004H8.7758V15H7.3058V8.168L7.3338 6.474H7.3198L5.3038 15H4.2958L2.2518 6.446H2.2378L2.3078 8.168V15H1.0478ZM10.0067 15V5.004H14.9627V6.152H11.5187V9.176H13.7027V10.296H11.5187V13.852H15.1587V15H10.0067ZM15.9031 15V5.004H17.7791L20.6351 11.682H20.6491L20.6211 10.254V5.004H21.9651V15H20.7891L17.2051 6.698H17.1911L17.2471 8.224V15H15.9031ZM26.12 15.168C24.104 15.168 23.11 14.09 23.11 12.228V5.004H24.622V12.368C24.622 13.404 25.154 14.006 26.19 14.006C27.198 14.006 27.716 13.404 27.716 12.368V5.004H29.018L29.032 12.214C29.032 14.062 27.996 15.168 26.12 15.168Z" fill="black"/>
</svg>
