<?xml version="1.0" encoding="UTF-8"?>
<svg id="_Слой_2" data-name="Слой 2" xmlns="http://www.w3.org/2000/svg" viewBox="0 0 770.56 799.16">
  <g id="_Слой_1-2" data-name="Слой 1">
    <g>
      <path d="M627.43,385.29c0-64.57-25.14-125.27-70.83-170.95l-.81-.81c-37.07-37.07-84.02-60.67-135.78-68.24-50.69-7.42-101.41,1.1-146.67,24.65-21.87,11.37-41.85,26.04-59.41,43.6-45.63,45.63-70.78,106.31-70.8,170.84-.02,64.36,24.94,124.9,70.31,170.53l57.55,59.63v99h228.56v-98.24l57.44-59.44c45.42-45.61,70.43-106.16,70.43-170.55Z"/>
      <rect x="271" y="742.07" width="228.56" height="57.09"/>
      <path d="M740.26,235.29c-19.41-45.89-47.18-87.08-82.54-122.45s-76.56-63.14-122.45-82.54C487.73,10.19,437.27,0,385.28,0s-102.45,10.19-149.99,30.3c-45.89,19.41-87.08,47.18-122.45,82.54-35.36,35.37-63.14,76.56-82.54,122.45C10.19,282.83,0,333.29,0,385.28s10.22,102.56,30.37,150.15c19.45,45.93,47.28,87.16,82.72,122.53l80.54-80.68c-51.35-51.26-79.63-119.44-79.63-192s28.22-140.59,79.46-191.82,119.36-79.46,191.82-79.46,140.59,28.22,191.82,79.46c51.24,51.24,79.46,119.36,79.46,191.82s-28.52,141.34-80.31,192.67l80.25,80.96c35.73-35.41,63.79-76.75,83.42-122.85,20.33-47.77,30.64-98.5,30.64-150.78s-10.19-102.45-30.3-149.99Z"/>
    </g>
  </g>
</svg>