<?xml version="1.0" encoding="UTF-8"?>
<svg id="_Слой_2" data-name="Слой 2" xmlns="http://www.w3.org/2000/svg" viewBox="0 0 770.7 799.25">
  <g id="_Слой_1-2" data-name="Слой 1">
    <g>
      <path d="M557.07,555.93c45.42-45.61,70.43-106.16,70.43-170.55s-25.14-125.27-70.78-170.91l-.86-.86c-45.66-45.66-106.36-70.8-170.93-70.8-64.57,0-125.27,25.15-170.93,70.8-45.63,45.63-70.78,106.31-70.8,170.84-.02,64.36,24.94,124.9,70.31,170.52l57.56,59.64v99h228.56v-98.24l57.44-59.44ZM294.61,294.22c24.9-24.9,57.62-37.35,90.33-37.35s65.4,12.45,90.29,37.33l.86.86c24.12,24.12,37.41,56.2,37.41,90.32s-13.29,66.19-37.41,90.32l-.35.35-90.04,93.18-90.47-93.73-.68-.69c-49.73-49.8-49.7-130.81.06-180.58Z"/>
      <rect x="271.07" y="742.16" width="228.56" height="57.09"/>
      <rect x="95.47" y="560" width="114.18" height="113.59" transform="translate(-391.45 288.53) rotate(-45)"/>
      <rect x="559.71" y="95.77" width="114.18" height="113.59" transform="translate(72.78 480.83) rotate(-45)"/>
      <rect x="96.15" y="96.15" width="114.18" height="114.18" transform="translate(-63.47 153.23) rotate(-45)"/>
      <rect x="560.38" y="560.38" width="114.18" height="114.18" transform="translate(-255.76 617.47) rotate(-45)"/>
      <rect y="327.6" width="114.18" height="113.59"/>
      <rect x="656.52" y="327.6" width="114.18" height="113.59"/>
      <rect x="328.26" width="114.18" height="114.18"/>
    </g>
  </g>
</svg>