<?xml version="1.0" encoding="UTF-8"?>
<svg id="_Слой_2" data-name="Слой 2" xmlns="http://www.w3.org/2000/svg" viewBox="0 0 799.65 813.72">
  <g id="_Слой_1-2" data-name="Слой 1">
    <g>
      <path d="M641.97,399.85c0-64.57-25.14-125.27-70.8-170.93l-.83-.83c-37.07-37.07-84.02-60.67-135.78-68.24-50.69-7.42-101.4,1.1-146.67,24.65-21.87,11.37-41.85,26.04-59.41,43.6-45.63,45.63-70.78,106.31-70.8,170.84-.02,64.37,24.95,124.91,70.32,170.53l57.55,59.62v99h228.56v-98.24l57.43-59.44c45.42-45.62,70.43-106.16,70.43-170.56Z"/>
      <rect x="285.54" y="756.63" width="228.56" height="57.09"/>
      <path d="M768.21,244.18c-20.14-47.62-48.96-90.37-85.66-127.07s-79.45-65.52-127.07-85.66C506.14,10.58,453.78,0,399.83,0s-106.32,10.58-155.65,31.44c-47.62,20.14-90.37,48.96-127.07,85.66S51.58,196.56,31.44,244.18C10.58,293.51,0,345.88,0,399.83s10.6,106.44,31.51,155.82c20.19,47.66,49.07,90.45,85.84,127.16l80.54-80.68c-54.1-54.01-83.9-125.85-83.9-202.29s29.73-148.12,83.72-202.11,125.76-83.72,202.11-83.72,148.12,29.73,202.11,83.72,83.72,125.76,83.72,202.11-30.05,148.92-84.62,203l80.26,80.96c37.07-36.75,66.2-79.64,86.56-127.49,21.1-49.57,31.79-102.21,31.79-156.48s-10.58-106.32-31.44-155.65Z"/>
    </g>
  </g>
</svg>