<?xml version="1.0" encoding="UTF-8"?>
<svg id="_Слой_2" data-name="Слой 2" xmlns="http://www.w3.org/2000/svg" viewBox="0 0 798.89 799.24">
  <g id="_Слой_1-2" data-name="Слой 1">
    <g>
      <path d="M485.04,285.49H.25v-114h484.79c15.85,0,28.74-12.89,28.74-28.74s-12.89-28.74-28.74-28.74h-170.99V0h170.99c78.71,0,142.74,64.03,142.74,142.74s-64.03,142.74-142.74,142.74Z"/>
      <path d="M228.36,799.24h-85.6v-114h85.6c15.85,0,28.74-12.89,28.74-28.74s-12.89-28.74-28.74-28.74H.31v-114h228.04c78.71,0,142.74,64.03,142.74,142.74s-64.03,142.74-142.74,142.74Z"/>
      <path d="M599.14,742.04c-110.29,0-200.01-89.72-200.01-200.01v-28.25h114v28.25c0,47.42,38.58,86.01,86.01,86.01s85.76-38.47,85.76-85.76-38.47-85.76-85.76-85.76h-285.08v-114h285.08c110.15,0,199.76,89.61,199.76,199.76s-89.61,199.76-199.76,199.76Z"/>
      <rect y="342.52" width="256.9" height="114"/>
    </g>
  </g>
</svg>