<?xml version="1.0" encoding="UTF-8"?>
<svg id="_Слой_2" data-name="Слой 2" xmlns="http://www.w3.org/2000/svg" viewBox="0 0 1100 860.53">
  <g id="_Слой_1-2" data-name="Слой 1">
    <path d="M735.47,230.32h0s.01,0,.01,0h0s173.93.65,173.93.65h.19c76.86,7.05,141.74,54.97,172.05,122.04,5.89,13.05,10.48,26.82,13.6,41.16,3.11,14.31,4.75,29.21,4.75,44.54h.01v.05c0,78.71-43.34,147.29-107.45,183.18-12.46,6.98-25.72,12.73-39.6,17.07-13.85,4.34-28.35,7.28-43.31,8.65h-.05s-.19.01-.19.01l-371.06.87h-2.06s0-2.05,0-2.05v-180.12h2.06s351.87,0,351.87,0h.01c6.45,0,12.3-2.58,16.54-6.74,4.22-4.16,6.84-9.91,6.84-16.26h-.01s.01-.01.01-.01c0-6.26-3.61-12.16-8.83-16.51-5.32-4.43-12.25-7.25-18.8-7.25h0s0,0,0,0h-212.14s-2.06-.19-2.06-.19l-.47-.11c-55.67-18.48-101.23-59.14-126.25-111.52-4.86-10.17-8.94-20.8-12.18-31.81-5.68-19.29-8.72-39.72-8.72-60.86h-.01v-.03h.01c0-59.39,24.04-113.16,62.9-152.08C625.63,24.38,678.81.38,737.59.02h0s1.35,0,1.35,0h0s0,0,0,0h0s153.39,0,153.39,0h2.05v184.29h-158.92c-6.45,0-12.3,2.57-16.54,6.74-4.22,4.16-6.84,9.91-6.84,16.26h.01v.02h-.01c0,6.34,2.61,12.09,6.84,16.25,4.23,4.17,10.08,6.76,16.54,6.76M287.97,859.64h-.06c-22.54-1.69-44.42-5.79-65.37-12.02-20.94-6.23-40.97-14.61-59.83-24.89C65.77,769.92,0,667.13,0,548.97v-.06h0c0-23,2.5-45.39,7.21-66.93,4.73-21.57,11.69-42.3,20.62-61.93,45.95-100.96,144.2-173.09,260.15-181.75l10.66-.87h.16l206.14-.06h1.83l.21,1.82v.04c.59,5.17,1.38,10.31,2.36,15.41.98,5.09,2.14,10.14,3.49,15.13,6.92,25.63,18.56,49.62,33.53,70.26l.38.53v79.79h-228.85s0,0,0,0h0c-36.31,0-69.18,14.79-92.97,38.71-23.8,23.92-38.52,56.97-38.52,93.46h0v.02h0c0,36.5,14.72,69.55,38.52,93.47,23.79,23.92,56.66,38.71,92.97,38.71h0s.01,0,.01,0h14.9v-36.17h-8.54c-25.16-.01-47.93-10.2-64.4-26.68-16.47-16.48-26.66-39.24-26.67-64.4h0v-.02h0c0-25.18,11.28-47.97,28.84-64.45,17.53-16.45,41.35-26.63,66.47-26.63h0s0,0,0,0h190.7v394.16h-2.05s-220.45,0-220.45,0l-.2-.02-8.52-.87h0ZM860.51,706.21c1.84-5.08,5.35-9.64,12.36-9.64s8.42,5,8.42,9.64h-20.78ZM892.6,714.1c.43-2.19.7-4.65.7-7.1,0-13.15-8.5-19.81-21.12-19.81-15.43,0-24.98,13.5-24.98,27.97,0,12.89,8.06,19.81,20.16,19.81,13.06,0,19.55-5.43,23.49-15.6h-12.45c-1.84,2.89-4.29,6.23-9.29,6.23-6.75,0-9.99-3.59-9.99-8.85,0-.7,0-1.49.09-2.63h33.4ZM841.03,674.65h-12.45l-2.8,13.76h-7.98l-1.92,8.33h8.15l-5.09,24.28c-.35,1.58-.61,3.16-.61,4.3-.17,7.36,6.04,9.2,11.83,9.2,2.64,0,5.27-.17,7.8-.44l2.1-9.64c-1.49.18-2.98.26-4.47.26-1.84,0-4.21-.09-4.21-3.33,0-.35.18-1.14.35-2.1l4.65-22.53h8.85l1.93-8.33h-8.94l2.81-13.76ZM784.49,733.74h12.45l7.8-36.99h8.95l1.75-8.33h-8.85c1.31-5.26,1.23-8.42,7.36-8.42,1.31,0,2.72.18,4.03.26l1.93-8.94c-2.72-.44-5.43-.7-8.16-.7-13.06,0-15.17,6.22-17.62,17.79h-7.46l-1.75,8.33h7.36l-7.8,36.99ZM780.77,688.41h-12.45l-5.08,24.11c-1.32,6.31-5.17,12.62-12.71,12.62-2.9,0-5.96-1.93-5.96-4.65,0-1.23.43-4.21.79-5.52l5.52-26.56h-12.45l-5.61,26.56c-.35,1.58-1.32,5.96-1.32,7.8,0,7.89,4.65,12.18,13.24,12.18,6.49,0,11.83-2.54,15.87-7.54h.17l-1.4,6.31h11.92l9.47-45.32ZM747.45,681.4h11.48l2.11-10.26h-11.49l-2.1,10.26ZM764.63,681.4h11.48l2.11-10.26h-11.49l-2.1,10.26ZM694.22,733.74h12.45l4.21-20.07c1.66-7.72,5.08-14.9,14.64-14.9,1.76,0,3.51.44,5.26.79l2.54-12.1c-1.31-.18-2.54-.26-3.85-.26-6.66,0-12.8,3.33-15.6,9.56l-.17-.17,1.84-8.15h-11.84l-9.47,45.32ZM636.5,749.69h12.45l4.73-22.01h.26c1.93,5,7.46,7.28,12.71,7.28,16.74,0,24.63-14.99,24.63-29.89,0-10.87-6.31-17.89-17.18-17.89-5.52,0-10.79,2.1-13.59,7.01l-.17-.17,1.23-5.61h-12.01l-13.06,61.28ZM669.99,696.57c5.87,0,8.85,4.65,8.85,10.08,0,7.98-4.21,18.94-13.58,18.94-6.05,0-8.94-4.03-8.94-9.82,0-7.8,4.39-19.2,13.68-19.2M605.5,706.21c1.84-5.08,5.35-9.64,12.36-9.64s8.42,5,8.42,9.64h-20.78ZM637.59,714.1c.44-2.19.7-4.65.7-7.1,0-13.15-8.5-19.81-21.13-19.81-15.43,0-24.99,13.5-24.99,27.97,0,12.89,8.06,19.81,20.17,19.81,13.06,0,19.55-5.43,23.49-15.6h-12.45c-1.84,2.89-4.29,6.23-9.29,6.23-6.75,0-9.99-3.59-9.99-8.85,0-.7,0-1.49.09-2.63h33.4ZM589.42,688.41h-11.92l-1.4,6.93h-.17c-2.54-5.96-7.63-8.15-13.86-8.15-14.55,0-22.88,14.12-22.88,27.35,0,11.13,6.67,18.5,17.45,18.5,5.09,0,9.2-2.1,12.45-6.4l.18.17c-2.46,8.85-4.73,15.78-12.62,15.78-4.03,0-8.32-1.93-8.15-6.49h-12.45c0,10.87,10.17,14.82,19.37,14.82,14.99,0,21.92-5.79,24.98-19.55l9.03-42.96ZM564.34,696.57c6.05,0,8.94,4.12,8.94,9.82,0,7.72-4.3,17.27-13.24,17.27-5.79,0-8.41-4.65-8.41-10,0-7.28,4.38-17.09,12.71-17.09M958.01,762.43h-12.45l-2.8,13.76h-7.98l-1.93,8.33h8.15l-5.09,24.28c-.35,1.58-.61,3.15-.61,4.29-.17,7.36,6.05,9.21,11.84,9.21,2.62,0,5.25-.18,7.8-.44l2.1-9.64c-1.49.17-2.98.26-4.47.26-1.84,0-4.2-.09-4.2-3.33,0-.35.17-1.14.34-2.1l4.65-22.53h8.86l1.92-8.33h-8.94l2.8-13.76ZM932.93,758.93h-12.54l-2.28,10.26h12.54l2.28-10.26ZM907.06,821.52h12.54l9.64-45.32h-12.54l-9.64,45.32ZM871.94,793.99c1.84-5.08,5.35-9.64,12.36-9.64s8.42,5,8.42,9.64h-20.77ZM904.03,801.88c.44-2.19.7-4.65.7-7.1,0-13.15-8.5-19.82-21.13-19.82-15.43,0-24.99,13.5-24.99,27.97,0,12.89,8.07,19.81,20.17,19.81,13.06,0,19.55-5.44,23.5-15.6h-12.45c-1.84,2.89-4.3,6.22-9.29,6.22-6.75,0-10-3.6-10-8.86,0-.7,0-1.49.09-2.63h33.4ZM803.08,821.52h12.45l5.09-24.11c1.31-6.31,5.17-12.62,12.71-12.62,2.89,0,5.96,1.93,5.96,4.65,0,1.23-.44,4.21-.79,5.52l-5.52,26.56h12.45l5.61-26.56c.35-1.58,1.32-5.96,1.32-7.8,0-7.89-4.65-12.19-13.24-12.19-8.15,0-13.06,3.86-14.99,6.49h-.17l4.65-22.53h-12.45l-13.06,62.59ZM768.97,821.52h12.45l4.21-20.08c1.66-7.71,5.09-14.9,14.64-14.9,1.75,0,3.51.44,5.26.79l2.54-12.1c-1.31-.18-2.54-.27-3.86-.27-6.66,0-12.8,3.33-15.61,9.56l-.17-.18,1.84-8.15h-11.83l-9.47,45.32ZM733.85,793.99c1.84-5.08,5.34-9.64,12.36-9.64s8.42,5,8.42,9.64h-20.78ZM765.93,801.88c.44-2.19.7-4.65.7-7.1,0-13.15-8.5-19.82-21.13-19.82-15.43,0-24.98,13.5-24.98,27.97,0,12.89,8.06,19.81,20.16,19.81,13.06,0,19.55-5.44,23.49-15.6h-12.44c-1.84,2.89-4.3,6.22-9.29,6.22-6.76,0-9.99-3.6-9.99-8.86,0-.7,0-1.49.09-2.63h33.4ZM665,821.52h12.44l5.09-24.11c1.31-6.31,5.17-12.62,12.71-12.62,2.9,0,5.96,1.93,5.96,4.65,0,1.23-.43,4.21-.79,5.52l-5.52,26.56h12.45l5.61-26.56c.35-1.58,1.31-5.96,1.31-7.8,0-7.89-4.65-12.19-13.24-12.19s-13.06,3.86-14.99,6.49h-.18l4.65-22.53h-12.45l-13.06,62.59ZM664.08,791.89c-.26-12.01-9.29-16.92-20.33-16.92-16.31,0-25.6,12.89-25.6,28.32,0,13.24,7.54,19.46,20.17,19.46,11.74,0,19.64-6.49,23.4-17.8h-12.45c-1.4,4.47-4.56,8.42-10.08,8.42-6.31,0-8.59-4.38-8.59-9.82,0-7.8,3.24-19.2,12.71-19.2,5.44,0,8.33,2.19,8.33,7.54h12.44ZM619.36,758.93h-12.54l-2.28,10.26h12.53l2.28-10.26ZM593.51,821.52h12.53l9.64-45.32h-12.54l-9.64,45.32ZM538.13,800.74c0,15.08,8.77,22.27,26.04,22.27,11.92,0,25.51-5.7,25.51-20.69,0-11.22-6.93-14.99-16.75-17.53-4.29-1.05-14.91-2.63-14.91-8.85,0-5.79,5.7-7.8,10.96-7.8,6.4,0,11.49,2.46,11.22,9.47h13.06c0-14.46-10.7-20.16-23.5-20.16-12.09,0-24.81,5.52-24.81,19.46,0,10.78,7.89,14.38,15.79,16.83,7.8,2.37,15.86,3.59,15.86,9.73s-6.4,8.85-11.92,8.85c-7.89,0-13.94-2.72-13.5-11.57h-13.06Z"/>
  </g>
</svg>