<?xml version="1.0" encoding="UTF-8"?>
<svg id="_Слой_2" data-name="Слой 2" xmlns="http://www.w3.org/2000/svg" viewBox="0 0 798.94 799.83">
  <g id="_Слой_1-2" data-name="Слой 1">
    <g>
      <path d="M171.15,473.5c-45.52,0-87.94-16.06-119.44-45.21C18.37,397.42,0,354.42,0,307.22c0-43.64,21.61-98.64,66.06-168.14,29.97-46.86,59.68-83.4,60.93-84.93L171.15,0l44.17,54.15c1.25,1.53,30.96,38.07,60.93,84.93,44.45,69.5,66.06,124.5,66.06,168.15,0,47.21-18.37,90.2-51.72,121.07-31.5,29.15-73.92,45.21-119.44,45.21ZM171.16,186.66c-3.19,4.76-6.42,9.69-9.63,14.74-45.23,70.95-47.52,100.6-47.52,105.82,0,36.12,28.71,52.28,57.15,52.28s57.16-16.17,57.16-52.28c0-5.22-2.29-34.88-47.52-105.82-3.22-5.05-6.45-9.98-9.63-14.74Z"/>
      <path d="M552.25,799.83c-66.12,0-127.5-23.12-172.85-65.09-47.62-44.07-73.84-105.69-73.84-173.5,0-37.81,11.32-81.53,34.59-133.65,16.88-37.8,40.18-80.01,69.23-125.44,48.63-76.04,96.67-135.12,98.69-137.6l44.17-54.15,44.17,54.15c2.02,2.48,50.06,61.56,98.7,137.6,29.05,45.43,52.35,87.63,69.23,125.44,23.28,52.12,34.6,95.84,34.6,133.65,0,67.81-26.23,129.43-73.84,173.5-45.35,41.97-106.74,65.09-172.85,65.09ZM552.25,294.88c-14.42,19.99-30.98,43.87-47.41,69.62-25.86,40.51-46.32,77.54-60.8,110.05-20.23,45.41-24.48,72.21-24.48,86.69,0,36.2,12.89,67.27,37.28,89.84,24.21,22.41,58.09,34.75,95.41,34.75s71.2-12.34,95.42-34.75c24.39-22.57,37.28-53.64,37.28-89.84,0-14.48-4.25-41.28-24.48-86.69-14.48-32.51-34.94-69.54-60.8-110.05-16.44-25.74-32.99-49.63-47.42-69.62Z"/>
    </g>
  </g>
</svg>