<?xml version="1.0" encoding="UTF-8"?>
<svg id="_Слой_2" data-name="Слой 2" xmlns="http://www.w3.org/2000/svg" viewBox="0 0 383.31 318.47">
  <g id="_Слой_1-2" data-name="Слой 1">
    <g>
      <path d="M191.65,318.47c-50.38,0-97.93-16.04-133.89-45.17C20.51,243.12,0,202.61,0,159.23S20.51,75.34,57.77,45.17C93.72,16.04,141.27,0,191.65,0s97.93,16.04,133.89,45.17c37.25,30.17,57.76,70.68,57.76,114.06s-20.51,83.89-57.76,114.06c-35.96,29.13-83.51,45.17-133.89,45.17ZM191.65,42c-82.52,0-149.65,52.59-149.65,117.23s67.13,117.23,149.65,117.23,149.65-52.59,149.65-117.23-67.13-117.23-149.65-117.23Z"/>
      <path d="M147.65,92.65h37.3v106.49h56.7v26.67h-94V92.65Z"/>
    </g>
  </g>
</svg>