<?xml version="1.0" encoding="UTF-8"?>
<svg id="_Слой_2" data-name="Слой 2" xmlns="http://www.w3.org/2000/svg" viewBox="0 0 1095.18 1100">
  <g id="_Слой_1-2" data-name="Слой 1">
    <g>
      <path d="M858.48,120.68c26.39,0,47.86,21.47,47.86,47.86s-21.47,47.86-47.86,47.86-47.86-21.47-47.86-47.86,21.47-47.86,47.86-47.86M858.48,337.07c93.08,0,168.53-75.46,168.53-168.54S951.56,0,858.48,0s-168.54,75.46-168.54,168.54,75.46,168.54,168.54,168.54"/>
      <polygon points="487.02 40.58 487.02 456.46 354.69 413.47 237.39 183.26 92.75 256.96 188.46 444.8 0 540.83 73.7 685.47 304.52 567.86 436.85 610.86 355.9 722.27 99.21 762.93 124.61 923.27 334.34 890.05 367.58 1099.94 527.92 1074.55 487.24 817.7 568.18 706.28 649.46 818.14 608.84 1074.6 769.18 1100 802.36 890.5 1011.49 923.62 1036.89 763.28 780.79 722.72 699.52 610.86 1095.18 482.3 1045.02 327.91 649.36 456.47 649.36 40.58 487.02 40.58"/>
    </g>
  </g>
</svg>