<?xml version="1.0" encoding="UTF-8"?>
<svg id="_Слой_2" data-name="Слой 2" xmlns="http://www.w3.org/2000/svg" viewBox="0 0 624.83 799.25">
  <g id="_Слой_1-2" data-name="Слой 1">
    <g>
      <path d="M483.36,213.61c-45.66-45.66-106.36-70.8-170.93-70.8s-125.27,25.14-170.93,70.8c-45.63,45.63-70.78,106.31-70.8,170.84-.02,64.36,24.94,124.9,70.31,170.53l57.55,59.63v99h228.56v-98.24l57.43-59.44c45.42-45.61,70.43-106.16,70.43-170.56s-25.14-125.27-70.83-170.95l-.81-.81ZM403.59,475.7l-.35.34-90.04,93.18-90.47-93.73-.68-.69c-49.73-49.8-49.7-130.81.06-180.58,24.9-24.9,57.6-37.35,90.31-37.35s65.44,12.46,90.35,37.37l.81.81c49.8,49.8,49.8,130.84,0,180.64Z"/>
      <rect x="198.57" y="742.16" width="228.56" height="57.09"/>
      <rect x="487.21" y="95.77" width="114.18" height="113.59" transform="translate(51.54 429.56) rotate(-45)"/>
      <rect x="23.65" y="96.15" width="114.18" height="114.18" transform="translate(-84.71 101.97) rotate(-45)"/>
      <polygon points="369.94 113.59 369.94 0 255.76 0 255.76 113.59 255.76 114.18 369.94 114.18 369.94 113.59"/>
    </g>
  </g>
</svg>