<?xml version="1.0" encoding="UTF-8"?>
<svg id="_Слой_2" data-name="Слой 2" xmlns="http://www.w3.org/2000/svg" viewBox="0 0 570.63 799.83">
  <g id="_Слой_1-2" data-name="Слой 1">
    <path d="M285.31,799.83c-76.65,0-147.73-26.73-200.16-75.25C30.24,673.75,0,602.61,0,524.26c0-43.84,13.29-94.91,40.63-156.12,20.09-44.98,47.85-95.26,82.51-149.46,58.18-90.97,115.59-161.58,118-164.54L285.31,0l44.17,54.15c2.42,2.96,59.83,73.57,118.01,164.54,34.66,54.19,62.42,104.48,82.51,149.46,27.34,61.21,40.63,112.28,40.63,156.12,0,78.35-30.24,149.48-85.16,200.31-52.43,48.53-123.52,75.25-200.16,75.25ZM285.31,183.95c-19.44,26.48-43.18,60.2-66.73,97.08-91,142.5-104.58,213.56-104.58,243.23,0,46.89,16.8,87.22,48.59,116.65,31.29,28.96,74.88,44.92,122.72,44.92s91.43-15.95,122.73-44.92c31.79-29.42,48.59-69.76,48.59-116.65,0-29.67-13.59-100.73-104.59-243.23-23.55-36.88-47.29-70.6-66.73-97.08Z"/>
  </g>
</svg>