<?xml version="1.0" encoding="UTF-8"?>
<svg id="_Слой_2" data-name="Слой 2" xmlns="http://www.w3.org/2000/svg" viewBox="0 0 770.7 799.25">
  <g id="_Слой_1-2" data-name="Слой 1">
    <g>
      <path d="M557.07,555.94c45.42-45.62,70.43-106.16,70.43-170.56s-25.14-125.27-70.8-170.93l-.83-.83c-45.66-45.66-106.36-70.8-170.93-70.8s-125.27,25.14-170.93,70.8-70.78,106.31-70.8,170.84c-.02,64.36,24.95,124.9,70.31,170.53l57.55,59.63v99h228.56v-98.24l57.43-59.44ZM294.61,294.22c24.9-24.9,57.61-37.35,90.32-37.35s65.42,12.45,90.32,37.35l.83.83c49.8,49.8,49.8,130.84,0,180.64l-.35.34-90.04,93.18-90.47-93.74-.68-.69c-49.73-49.8-49.7-130.81.06-180.57Z"/>
      <rect x="271.07" y="742.16" width="228.56" height="57.09"/>
      <rect x="95.47" y="560" width="114.18" height="113.59" transform="translate(-391.46 288.53) rotate(-45)"/>
      <rect x="559.71" y="95.77" width="114.18" height="113.59" transform="translate(72.78 480.82) rotate(-45)"/>
      <rect x="96.15" y="96.15" width="114.18" height="114.18" transform="translate(-63.47 153.23) rotate(-45)"/>
      <rect x="560.38" y="560.38" width="114.18" height="114.18" transform="translate(-255.76 617.46) rotate(-45)"/>
      <rect y="327.6" width="114.18" height="113.59"/>
      <rect x="656.52" y="327.6" width="114.18" height="113.59"/>
      <polygon points="442.44 113.59 442.44 0 328.26 0 328.26 113.59 328.26 114.18 442.44 114.18 442.44 113.59"/>
    </g>
  </g>
</svg>