<?xml version="1.0" encoding="UTF-8"?>
<svg id="_Слой_2" data-name="Слой 2" xmlns="http://www.w3.org/2000/svg" viewBox="0 0 1100 1100.01">
  <g id="_Слой_1-2" data-name="Слой 1">
    <g>
      <path d="M831,116.82c25.54,0,46.33,20.78,46.33,46.33s-20.78,46.33-46.33,46.33-46.33-20.78-46.33-46.33,20.78-46.33,46.33-46.33M831,326.28c90.1,0,163.14-73.04,163.14-163.14S921.1,0,831,0s-163.14,73.04-163.14,163.14,73.04,163.14,163.14,163.14"/>
      <rect x="471.43" y="707.15" width="157.14" height="392.86"/>
      <polygon points="235.71 39.29 235.71 471.43 157.14 550.01 0 707.15 111.12 818.27 157.14 772.24 157.14 1100.01 314.29 1100.01 314.29 615.1 550 379.38 785.72 615.1 785.72 1100.01 942.86 1100.01 942.86 772.24 988.88 818.27 1100 707.15 550 157.15 438.88 268.27 392.86 314.29 392.86 39.29 235.71 39.29"/>
    </g>
  </g>
</svg>