<?xml version="1.0" encoding="UTF-8"?>
<svg id="_Слой_2" data-name="Слой 2" xmlns="http://www.w3.org/2000/svg" viewBox="0 0 858.72 860">
  <g id="_Слой_1-2" data-name="Слой 1">
    <g>
      <path d="M410.54,314.26h-21.91v36.62h21.91v-36.62ZM253.2,496.31h37.83v-152.32h46.31v92.27c1.56,44.71,33.77,64.42,78.19,64.42s76.63-19.71,77.87-64.42v-96.68l58.51,156.72h39.7l68.51-182.05h-40.03l-47.85,142.65-47.25-142.65h-69.11v120.74c-2.83,24.41-15.02,33.16-40.34,34.74-25.32-1.58-37.84-10.33-40.36-34.74v-120.74h-174.52v29.74h52.54v152.32ZM442.74,314.26h-22.82v36.62h22.82v-36.62ZM198.43,529.15h461.85v-10.76H198.43v10.76ZM371.08,613.08c-3.45-2.47-9.08-4.87-16.85-7.16-7.34-2.14-12.05-4.06-14.04-5.79-2.01-1.72-3.03-3.84-3.03-6.35s1.15-4.69,3.4-6.41c2.27-1.73,5.46-2.59,9.65-2.59s7.36,1,9.62,2.98c2.25,1.97,3.72,5.45,4.41,10.41l15.47-.78c-.32-9.09-3-16.1-8.05-20.99-5.09-4.9-12.13-7.34-21.18-7.34-6.01,0-11.06,1.04-15.15,3.12-4.08,2.08-7.31,5.16-9.62,9.24-2.33,4.08-3.49,8.68-3.49,13.77,0,4.38.9,8.46,2.72,12.28,1.79,3.8,4.24,6.88,7.3,9.22,3.07,2.33,7.9,4.52,14.5,6.49,7.34,2.27,11.99,3.87,13.9,4.81,1.91.94,3.32,2.14,4.26,3.6.95,1.48,1.42,3.25,1.42,5.33,0,3.55-1.35,6.53-4.01,8.94-2.68,2.41-6.36,3.59-11.03,3.59-9.41,0-14.99-5.82-16.68-17.51l-14.93,1.79c2.1,21.31,12.53,31.96,31.28,31.96,10.6,0,18.39-2.74,23.37-8.26,4.99-5.51,7.47-12.34,7.47-20.44,0-5.58-.92-10.37-2.76-14.3-1.81-3.91-4.46-7.12-7.94-9.61M444.68,622.28c0,9.28-.47,15.36-1.42,18.2-.98,2.83-2.76,5.04-5.37,6.62-2.62,1.61-5.98,2.38-10.12,2.38-4.88,0-8.83-1.11-11.8-3.36-2.99-2.24-4.87-5.41-5.66-9.52-.44-2.41-.67-7.52-.67-15.41v-50.59h-17.79v49.91c0,14.01,1.17,23.59,3.5,28.81,2.34,5.21,6.08,9.24,11.27,12.1,5.18,2.87,12.38,4.29,21.61,4.29s16.04-1.71,21.47-5.16c5.41-3.44,8.92-7.97,10.45-13.57,1.55-5.61,2.32-14.69,2.32-27.26v-49.13h-17.79v51.68ZM529.86,581.06c-3.06-3.77-6.4-6.47-10.03-8.06-3.64-1.59-9.01-2.41-16.15-2.41h-28.19v93.6h29.04c6.22,0,11.34-.91,15.31-2.67,3.98-1.75,7.37-4.4,10.16-7.88,2.8-3.5,5.1-8.22,6.95-14.2,1.82-5.98,2.71-13.03,2.71-21.11,0-8.97-.85-16.49-2.6-22.52-1.74-6.04-4.14-10.97-7.19-14.76M522.3,633.79c-.94,4.1-2.13,7.1-3.54,9.01-1.42,1.9-3.24,3.3-5.46,4.23-2.23.94-5.82,1.42-10.79,1.42h-11.56v-62.12h6.99c6.18,0,10.35.29,12.51.83,2.88.72,5.32,2.25,7.35,4.54,2.02,2.31,3.49,5.47,4.45,9.48.95,4.02,1.42,9.48,1.42,16.45s-.47,12.07-1.38,16.17M416.15,585.03h8.61v-14.41h-8.61v14.41ZM438.17,570.62h-8.6v14.41h8.6v-14.41Z"/>
      <path d="M225.46,633.63l-84.47-84.34v-238.57l84.47-84.34,84.44-84.35h238.88l84.45,84.35,84.49,84.34v238.57l-84.49,84.34-84.45,84.35h-238.88l-84.44-84.35ZM251.52,0l-125.75,125.95L0,251.88v356.22l125.76,125.95,125.75,125.96h355.66l125.75-125.96,125.79-125.95V251.88l-125.79-125.93L607.18,0H251.52Z"/>
    </g>
  </g>
</svg>