<?xml version="1.0" encoding="UTF-8"?>
<svg id="_Слой_2" data-name="Слой 2" xmlns="http://www.w3.org/2000/svg" viewBox="0 0 1100 1100">
  <g id="_Слой_1-2" data-name="Слой 1">
    <g>
      <path d="M556.63,667.86h-13.25c-62.02-3.45-111.43-54.99-111.43-117.86s49.4-114.41,111.43-117.86h13.25c59.83,3.33,107.9,51.4,111.23,111.23v13.25c-3.33,59.83-51.4,107.91-111.23,111.23M1100,628.57v-157.14h-286.66c-26.44-88.45-96.32-158.33-184.77-184.77V0h-157.14v286.66c-18.2,5.44-35.63,12.71-52.04,21.61L216.65,105.53l-111.12,111.12,202.74,202.74c-8.91,16.41-16.17,33.84-21.61,52.04H0v157.14h286.66c5.44,18.2,12.71,35.63,21.61,52.04l-202.74,202.74,111.12,111.12,202.74-202.74c16.41,8.9,33.84,16.17,52.04,21.61v286.66h157.14v-286.66c18.21-5.44,35.63-12.71,52.04-21.61l202.74,202.74,111.12-111.12-202.74-202.74c8.91-16.42,16.17-33.84,21.61-52.04h286.66Z"/>
      <path d="M831,116.82c25.54,0,46.32,20.78,46.32,46.33s-20.78,46.33-46.32,46.33-46.33-20.78-46.33-46.33,20.78-46.33,46.33-46.33M831,326.28c90.1,0,163.14-73.04,163.14-163.14S921.1,0,831,0s-163.14,73.04-163.14,163.14,73.04,163.14,163.14,163.14"/>
    </g>
  </g>
</svg>