<?xml version="1.0" encoding="UTF-8"?>
<svg id="_Слой_2" data-name="Слой 2" xmlns="http://www.w3.org/2000/svg" viewBox="0 0 383.3 318.47">
  <g id="_Слой_1-2" data-name="Слой 1">
    <g>
      <path d="M191.65,318.47c-50.38,0-97.93-16.04-133.89-45.17C20.51,243.12,0,202.62,0,159.23S20.51,75.34,57.76,45.17C93.72,16.04,141.27,0,191.65,0s97.93,16.04,133.89,45.17c37.25,30.17,57.76,70.68,57.76,114.06s-20.51,83.89-57.76,114.06c-35.96,29.13-83.51,45.17-133.89,45.17ZM191.65,42c-82.52,0-149.65,52.59-149.65,117.23s67.13,117.23,149.65,117.23,149.65-52.59,149.65-117.23-67.13-117.23-149.65-117.23Z"/>
      <g>
        <path d="M138.13,181.05l-26.67,44.76h-33.76l42.9-69.19-41.03-63.97h42.71l23.13,38.79,22.94-38.79h33.38l-38.79,62.29,44.2,70.87h-42.52l-26.48-44.76Z"/>
        <path d="M211.61,92.65h37.3v106.49h56.7v26.67h-94V92.65Z"/>
      </g>
    </g>
  </g>
</svg>