<?xml version="1.0" encoding="UTF-8"?>
<svg id="_Слой_2" data-name="Слой 2" xmlns="http://www.w3.org/2000/svg" viewBox="0 0 383.31 318.47">
  <g id="_Слой_1-2" data-name="Слой 1">
    <g>
      <path d="M191.65,318.47c-50.38,0-97.93-16.04-133.89-45.17C20.51,243.12,0,202.61,0,159.23S20.51,75.34,57.76,45.17C93.72,16.04,141.27,0,191.65,0s97.93,16.04,133.89,45.17c37.25,30.17,57.77,70.68,57.77,114.06s-20.51,83.89-57.76,114.06c-35.96,29.13-83.51,45.17-133.89,45.17ZM191.65,42c-82.52,0-149.65,52.59-149.65,117.23s67.13,117.23,149.65,117.23,149.65-52.59,149.65-117.23-67.13-117.23-149.65-117.23Z"/>
      <g>
        <path d="M134.12,181.15l-26.67,44.76h-33.76l42.9-69.19-41.03-63.97h42.71l23.13,38.79,22.94-38.79h33.38l-38.79,62.29,44.2,70.87h-42.52l-26.48-44.76Z"/>
        <path d="M194.36,188.98l33.76-5.97c3.92,11.94,13.8,19.58,26.48,19.58,10.63,0,18.09-5.6,18.09-13.24,0-5.97-4.66-9.7-14.55-12.12l-23.87-5.78c-22.38-5.41-35.06-19.02-35.06-38.42,0-24.62,22.57-42.52,53.71-42.52,26.48,0,47.37,12.31,53.53,31.71l-30.59,9.14c-3.54-9.33-12.87-15.67-23.69-15.67-9.7,0-16.97,5.04-16.97,11.94,0,6.15,5.6,10.07,19.21,13.06l19.58,4.29c22.75,5.04,35.62,18.28,35.62,38.42,0,26.3-23.31,44.57-56.7,44.57-29.28,0-51.48-14.73-58.56-38.98Z"/>
      </g>
    </g>
  </g>
</svg>