<svg width="346" height="653" viewBox="0 0 346 653" fill="none" xmlns="http://www.w3.org/2000/svg">
<rect width="346" height="652.52" fill="black"/>
<path d="M316.951 45.04V21.32H310.871V16.48H329.391V21.32H323.351V45.04H316.951Z" fill="white"/>
<path d="M300.915 45.52C294.355 45.52 290.595 40.16 290.595 30.76C290.595 21.36 294.355 16 300.915 16C307.515 16 311.275 21.36 311.275 30.76C311.275 40.16 307.515 45.52 300.915 45.52ZM300.915 40.88C303.435 40.88 304.435 38.08 304.435 30.76C304.435 23.4 303.435 20.64 300.915 20.64C298.395 20.64 297.395 23.4 297.395 30.76C297.395 38.08 298.395 40.88 300.915 40.88Z" fill="white"/>
<path d="M271.697 45.04V16.48H279.537C286.497 16.48 289.937 19.44 289.937 25.36C289.937 31.12 286.337 34.16 279.977 34.16H278.057V45.04H271.697ZM279.697 29.4C282.337 29.4 283.537 28.04 283.537 25.28C283.537 22.56 282.297 21.24 279.697 21.24H278.057V29.4H279.697Z" fill="white"/>
<path d="M254.343 45.04V16.48H269.623V21.32H260.783V27.72H266.303V32.48H260.783V40.2H270.183V45.04H254.343Z" fill="white"/>
<path d="M233.668 45.04V16.48H241.148C248.788 16.48 252.628 20.8 252.628 30.64C252.628 40.24 248.868 45.04 241.028 45.04H233.668ZM240.868 40.2C244.548 40.2 245.948 37.88 245.948 30.64C245.948 23.44 244.548 21.32 240.868 21.32H240.108V40.2H240.868Z" fill="white"/>
<path d="M214.971 45.04V21.32H208.891V16.48H227.411V21.32H221.371V45.04H214.971Z" fill="white"/>
<path d="M199.408 45.52C194.208 45.52 190.648 42.32 190.248 37.36L195.968 36.24C196.248 39.2 197.648 41 199.688 41C201.328 41 202.448 39.8 202.448 37.96C202.448 36.36 201.568 35.08 199.728 33.96L195.968 31.64C192.528 29.52 190.968 27.12 190.968 23.88C190.968 19.16 194.368 16 199.488 16C204.088 16 207.328 18.52 208.128 22.6L202.848 24.24C202.448 21.84 201.328 20.52 199.608 20.52C198.048 20.52 196.968 21.6 196.968 23.16C196.968 24.64 197.848 25.56 200.368 27.04L203.808 29.08C207.048 31 208.568 33.64 208.568 37C208.568 42.16 204.888 45.52 199.408 45.52Z" fill="white"/>
<path d="M174.054 45.04V16.48H189.334V21.32H180.494V27.72H186.014V32.48H180.494V40.2H189.894V45.04H174.054Z" fill="white"/>
<path d="M163.371 45.52C158.171 45.52 154.611 42.32 154.211 37.36L159.931 36.24C160.211 39.2 161.611 41 163.651 41C165.291 41 166.411 39.8 166.411 37.96C166.411 36.36 165.531 35.08 163.691 33.96L159.931 31.64C156.491 29.52 154.931 27.12 154.931 23.88C154.931 19.16 158.331 16 163.451 16C168.051 16 171.291 18.52 172.091 22.6L166.811 24.24C166.411 21.84 165.291 20.52 163.571 20.52C162.011 20.52 160.931 21.6 160.931 23.16C160.931 24.64 161.811 25.56 164.331 27.04L167.771 29.08C171.011 31 172.531 33.64 172.531 37C172.531 42.16 168.851 45.52 163.371 45.52Z" fill="white"/>
<path d="M143.277 45.52C136.717 45.52 132.957 40.16 132.957 30.76C132.957 21.36 136.717 16 143.277 16C149.877 16 153.637 21.36 153.637 30.76C153.637 40.16 149.877 45.52 143.277 45.52ZM143.277 40.88C145.797 40.88 146.797 38.08 146.797 30.76C146.797 23.4 145.797 20.64 143.277 20.64C140.757 20.64 139.757 23.4 139.757 30.76C139.757 38.08 140.757 40.88 143.277 40.88Z" fill="white"/>
<path d="M118.083 45.04V16.48H124.523V40.2H133.323V45.04H118.083Z" fill="white"/>
<path d="M107.275 45.52C100.715 45.52 97.1152 40.36 97.1152 30.88C97.1152 21.16 100.675 16 107.355 16C112.915 16 116.075 19.28 116.515 25.64L110.035 26.28C110.115 22.48 109.195 20.64 107.315 20.64C104.915 20.64 103.915 23.52 103.915 30.88C103.915 38.16 104.875 40.88 107.315 40.88C109.315 40.88 110.275 39.2 110.315 35.48L116.515 35.88C116.475 41.84 112.995 45.52 107.275 45.52Z" fill="white"/>
<path d="M67.9377 45.04L62.6577 16.48H69.0177L71.9377 37H71.9777L75.0977 16.48H80.9777L83.9777 36.72H84.0177L87.0177 16.48H92.2577L86.8977 45.04H80.3777L77.4577 25.52H77.4177L74.4977 45.04H67.9377Z" fill="white"/>
<path d="M47.063 45.04V16.48H62.3431V21.32H53.5031V27.72H59.0231V32.48H53.5031V40.2H62.903V45.04H47.063Z" fill="white"/>
<path d="M38.1068 45.04V16.48H44.5468V45.04H38.1068Z" fill="white"/>
<path d="M23.5693 45.04L16.6093 16.48H23.1693L27.5293 36.36H27.5693L31.8493 16.48H37.2893L30.3693 45.04H23.5693Z" fill="white"/>
<path d="M27.8985 331.778L124.355 350.628L130.313 351.792L130.314 66.52L215.687 66.52L215.687 351.792L221.646 350.628L318.103 331.778L173 523.243L27.8985 331.778Z" fill="white" stroke="white" stroke-width="10"/>
<path d="M330 547.52V563.52H16.0001V547.52H330Z" fill="white"/>
<g clip-path="url(#clip0_120_265)">
<path d="M28.2751 580.449H42.5723L54.699 635.595H42.6497L40.3308 623.624H28.5782L26.2593 635.595H16.0001L28.2751 580.449ZM38.5279 614.355L34.561 593.811H34.4126L30.3714 614.355H38.5311H38.5279Z" fill="white"/>
<path d="M48.7098 580.449H64.2036C76.9269 580.449 83.4385 586.163 83.4385 596.513C83.4385 603.386 80.4456 608.251 75.1305 610.801L84.5609 635.595H71.7634L64.1294 613.739H60.6107V635.595H48.7098V580.449ZM71.5376 596.899C71.5376 592.11 69.2187 589.561 64.4261 589.561H60.6075V604.467H64.5003C69.3671 604.467 71.5376 601.841 71.5376 596.899Z" fill="white"/>
<path d="M79.6231 580.449H95.1169C107.84 580.449 114.352 586.163 114.352 596.513C114.352 603.386 111.359 608.251 106.044 610.801L115.474 635.595H102.677L95.0427 613.739H91.524V635.595H79.6231V580.449ZM102.451 596.899C102.451 592.11 100.132 589.561 95.3394 589.561H91.5208V604.467H95.4136C100.28 604.467 102.451 601.841 102.451 596.899Z" fill="white"/>
<path d="M119.519 580.449H133.816L145.942 635.595H133.893L131.574 623.624H119.822L117.503 635.595H107.25L119.519 580.449ZM129.771 614.355L125.804 593.811H125.656L121.615 614.355H129.775H129.771Z" fill="white"/>
<path d="M145.717 613.04L132.316 580.449H145.339L152.525 600.84H152.599L160.085 580.449H170.638L157.689 612.964V635.595H145.713V613.044L145.717 613.04Z" fill="white"/>
<path d="M174.84 580.449H188.837C203.135 580.449 210.32 588.789 210.32 607.789C210.32 626.789 203.286 635.595 188.615 635.595H174.843V580.449H174.84ZM197.816 607.789C197.816 593.887 195.197 589.794 188.312 589.794H186.889V626.25H188.312C195.197 626.25 197.816 621.77 197.816 607.792V607.789Z" fill="white"/>
<path d="M207.55 580.449H236.141V589.794H219.599V602.151H229.929V611.343H219.599V626.25H237.189V635.595H207.55V580.449Z" fill="white"/>
<path d="M234.045 580.449H248.716C261.739 580.449 268.177 586.163 268.177 597.595C268.177 609.027 261.439 614.585 249.538 614.585H245.946V635.595H234.045V580.449ZM256.202 597.438C256.202 592.187 253.879 589.637 249.016 589.637H245.946V605.393H249.016C253.957 605.393 256.202 602.767 256.202 597.438Z" fill="white"/>
<path d="M263.387 608.022C263.387 589.87 270.421 579.52 282.696 579.52C294.971 579.52 302.083 589.87 302.083 608.022C302.083 626.173 295.049 636.523 282.696 636.523C270.344 636.523 263.387 626.173 263.387 608.022ZM289.282 608.022C289.282 593.811 287.412 588.479 282.696 588.479C277.981 588.479 276.111 593.811 276.111 608.022C276.111 622.233 277.981 627.561 282.696 627.561C287.412 627.561 289.282 622.156 289.282 608.022Z" fill="white"/>
<path d="M306.724 589.794H295.349V580.449H330.003V589.794H318.702V635.595H306.727V589.794H306.724Z" fill="white"/>
</g>
<defs>
<clipPath id="clip0_120_265">
<rect width="314" height="57" fill="white" transform="translate(16.0001 579.52)"/>
</clipPath>
</defs>
</svg>
