<svg width="100" height="22" viewBox="0 0 100 22" fill="none" xmlns="http://www.w3.org/2000/svg">
<mask id="mask0_31_191" style="mask-type:alpha" maskUnits="userSpaceOnUse" x="0" y="5" width="40" height="12">
<rect y="5" width="40" height="12" fill="#D9D9D9"/>
</mask>
<g mask="url(#mask0_31_191)">
<path d="M3.45223 16.168C1.77223 16.168 0.666235 15.132 0.484234 13.41L1.82823 13.158C1.94023 14.39 2.54223 15.09 3.48023 15.09C4.36223 15.09 4.90823 14.516 4.90823 13.564C4.90823 12.808 4.60023 12.304 3.84423 11.87L2.51423 11.1C1.29623 10.4 0.750235 9.546 0.750235 8.412C0.750235 6.886 1.84223 5.836 3.42423 5.836C4.88023 5.836 5.94423 6.718 6.12623 8.048L4.86623 8.426C4.69823 7.446 4.22223 6.914 3.45223 6.914C2.65423 6.914 2.15023 7.446 2.15023 8.258C2.15023 8.986 2.50023 9.392 3.55023 9.98L4.72623 10.652C5.80423 11.268 6.33623 12.192 6.33623 13.368C6.33623 15.076 5.20223 16.168 3.45223 16.168ZM7.12975 16V6.004H8.64175V16H7.12975ZM12.64 16.168C10.694 16.168 9.54595 14.292 9.54595 11.086C9.54595 7.74 10.736 5.836 12.962 5.836C14.6 5.836 15.706 6.844 15.888 8.832L14.39 9C14.362 7.586 13.788 6.928 12.962 6.928C11.702 6.928 11.128 8.342 11.128 11.058C11.128 13.732 11.744 15.062 12.934 15.062C13.97 15.062 14.572 13.998 14.572 12.136V11.996H12.99V10.946H15.986V16H15.216L14.978 14.138C14.684 15.412 13.816 16.168 12.64 16.168ZM16.9948 16V6.004H18.8708L21.7268 12.682H21.7408L21.7128 11.254V6.004H23.0568V16H21.8808L18.2968 7.698H18.2828L18.3388 9.224V16H16.9948Z" fill="black"/>
<path d="M29.2296 16.168C27.2136 16.168 26.2196 15.09 26.2196 13.228V6.004H27.7316V13.368C27.7316 14.404 28.2636 15.006 29.2996 15.006C30.3076 15.006 30.8256 14.404 30.8256 13.368V6.004H32.1276L32.1416 13.214C32.1416 15.062 31.1056 16.168 29.2296 16.168ZM33.2937 16V6.004H35.8277C37.9697 6.004 39.1457 7.012 39.1457 8.958C39.1457 10.89 37.9557 11.912 35.8697 11.912H34.7917V16H33.2937ZM35.8697 10.792C37.0737 10.792 37.6337 10.148 37.6337 8.958C37.6337 7.754 37.0737 7.124 35.8697 7.124H34.7917V10.792H35.8697Z" fill="black"/>
</g>
<path d="M48 2.5H91C95.9706 2.5 100 6.52944 100 11.5C100 16.4706 95.9706 20.5 91 20.5H48V2.5Z" fill="black"/>
<path d="M50.2451 16V6.004H51.7571V14.852H55.2011V16H50.2451ZM58.4016 16.168C56.2316 16.168 54.9856 14.264 54.9856 11.002C54.9856 7.74 56.2316 5.836 58.4016 5.836C60.5716 5.836 61.8316 7.74 61.8316 11.002C61.8316 14.264 60.5716 16.168 58.4016 16.168ZM58.4016 15.062C59.6336 15.062 60.2356 13.76 60.2356 11.002C60.2356 8.244 59.6336 6.928 58.4016 6.928C57.1836 6.928 56.5816 8.244 56.5816 11.002C56.5816 13.76 57.1836 15.062 58.4016 15.062ZM65.5072 16.168C63.5612 16.168 62.4132 14.292 62.4132 11.086C62.4132 7.74 63.6032 5.836 65.8292 5.836C67.4672 5.836 68.5732 6.844 68.7552 8.832L67.2572 9C67.2292 7.586 66.6552 6.928 65.8292 6.928C64.5692 6.928 63.9952 8.342 63.9952 11.058C63.9952 13.732 64.6112 15.062 65.8012 15.062C66.8372 15.062 67.4392 13.998 67.4392 12.136V11.996H65.8572V10.946H68.8532V16H68.0832L67.8452 14.138C67.5512 15.412 66.6832 16.168 65.5072 16.168ZM71.9577 16V6.004H73.4697V16H71.9577ZM74.6959 16V6.004H76.5719L79.4279 12.682H79.4419L79.4139 11.254V6.004H80.7579V16H79.5819L75.9979 7.698H75.9839L76.0399 9.224V16H74.6959Z" fill="white"/>
<mask id="mask1_31_191" style="mask-type:alpha" maskUnits="userSpaceOnUse" x="84" y="4" width="14" height="15">
<ellipse cx="91" cy="11.3621" rx="7" ry="7.24138" fill="white"/>
</mask>
<g mask="url(#mask1_31_191)">
<ellipse cx="91" cy="11.3621" rx="7" ry="7.24138" fill="white"/>
<path d="M96.082 10.4207L96.082 12.3034L89.936 12.3034L90.398 14.4614L85.918 11.3621L90.398 8.26276L89.936 10.4207L96.082 10.4207Z" fill="black"/>
</g>
</svg>
