<svg width="52" height="21" viewBox="0 0 52 21" fill="none" xmlns="http://www.w3.org/2000/svg">
<path d="M0 2H43C47.9706 2 52 6.02944 52 11C52 15.9706 47.9706 20 43 20H0V2Z" fill="black"/>
<path d="M2.24514 15.5V5.504H3.75714V14.352H7.20114V15.5H2.24514ZM10.4016 15.668C8.23156 15.668 6.98556 13.764 6.98556 10.502C6.98556 7.24 8.23156 5.336 10.4016 5.336C12.5716 5.336 13.8316 7.24 13.8316 10.502C13.8316 13.764 12.5716 15.668 10.4016 15.668ZM10.4016 14.562C11.6336 14.562 12.2356 13.26 12.2356 10.502C12.2356 7.744 11.6336 6.428 10.4016 6.428C9.18356 6.428 8.58156 7.744 8.58156 10.502C8.58156 13.26 9.18356 14.562 10.4016 14.562ZM17.5072 15.668C15.5612 15.668 14.4132 13.792 14.4132 10.586C14.4132 7.24 15.6032 5.336 17.8292 5.336C19.4672 5.336 20.5732 6.344 20.7552 8.332L19.2572 8.5C19.2292 7.086 18.6552 6.428 17.8292 6.428C16.5692 6.428 15.9952 7.842 15.9952 10.558C15.9952 13.232 16.6112 14.562 17.8012 14.562C18.8372 14.562 19.4392 13.498 19.4392 11.636V11.496H17.8572V10.446H20.8532V15.5H20.0832L19.8452 13.638C19.5512 14.912 18.6832 15.668 17.5072 15.668ZM23.9577 15.5V5.504H25.4697V15.5H23.9577ZM26.6959 15.5V5.504H28.5719L31.4279 12.182H31.4419L31.4139 10.754V5.504H32.7579V15.5H31.5819L27.9979 7.198H27.9839L28.0399 8.724V15.5H26.6959Z" fill="white"/>
<mask id="mask0_25_47" style="mask-type:alpha" maskUnits="userSpaceOnUse" x="36" y="3" width="14" height="16">
<ellipse cx="43" cy="10.8621" rx="7" ry="7.24138" fill="white"/>
</mask>
<g mask="url(#mask0_25_47)">
<ellipse cx="43" cy="10.8621" rx="7" ry="7.24138" fill="white"/>
<path d="M48.082 9.92069L48.082 11.8034L41.936 11.8034L42.398 13.9614L37.918 10.8621L42.398 7.76276L41.936 9.92069L48.082 9.92069Z" fill="black"/>
</g>
</svg>
