<?xml version="1.0" encoding="UTF-8"?>
<svg id="_Слой_2" data-name="Слой 2" xmlns="http://www.w3.org/2000/svg" viewBox="0 0 750.77 389.18">
  <g id="_Слой_1-2" data-name="Слой 1">
    <g>
      <g id="at">
        <polygon points="6.36 240.17 6.48 253.96 .52 266.21 0 292.64 15.97 310.26 27.93 313.6 38.24 327.23 55.77 335.15 74.74 327.66 92.3 323.53 93.83 335.38 112.47 337.66 130.2 351.34 148.76 342.6 158.68 328.46 171.29 315.1 191.08 317.59 210.43 317.25 230.09 316.2 244.84 306.86 261.5 303.66 261.54 319.86 268.21 331.38 282.86 348.78 299.6 358.96 318.31 364.16 337.44 365.55 356.36 367.24 373.62 372.45 391.11 376.12 408.9 375.87 426.23 379.46 444.52 378.17 460.98 385.42 475.92 389.18 490.8 387.14 507.52 387.83 522.82 383.42 533.93 371.38 549.09 350.97 567.43 351.12 585.21 350.53 601.6 349.67 615.87 342.88 629.7 334.49 645.31 338.14 658.17 323.3 666.85 309.11 678.09 298.68 685.44 284.39 701.31 266.1 697.43 244.88 697.63 225.7 715.37 206.11 708.1 191.45 692.88 186.21 705.57 180.19 721.49 177.66 737.96 178.93 750.77 169.42 745.75 145.18 744.44 124.02 739.88 105.89 725.22 94.03 718.37 77.98 719.74 60.87 726.25 44.62 721.44 28.04 705.39 23.48 687.19 18.76 672.89 19.72 660.87 24.83 642.98 22.81 624.15 20.12 607.39 11.22 589.53 4.93 571.14 1.31 551.45 1.61 535.53 0 528.16 11.9 528.22 26.06 513.55 39.83 505.21 56.15 483.55 56.1 462.91 64.67 448.93 62.57 436.75 54.7 422.02 46.14 421.72 52.85 413.12 67.19 397.4 72.31 382.92 83.25 373.01 105.65 361.14 117.15 345.93 122.29 332.94 130.85 320.69 139.99 326.81 160.74 342.95 177.44 341.78 193.63 344.98 203.52 349.75 219.2 345.32 233.02 333.45 229.19 322.57 215.7 298.1 211.66 284.54 207.88 266.94 206.78 265.45 209.78 244.78 220.8 229.13 219.05 214.75 226.8 200.77 232.88 190.2 242.86 177.7 250.66 162.5 254.45 139.37 252.6 123.4 234.04 103.82 231.04 91.54 231.56 88.21 240.4 87.37 254.49 68.75 274.43 59.53 265.55 53.19 254.4 49.55 243.04 27.22 234.23 14.99 231.79 5.24 239.81 6.36 240.17" fill="#020202"/>
      </g>
      <g>
        <g>
          <path d="M327.91,134.22h28.65l24.3,107.1h-24.15l-4.65-23.25h-23.55l-4.65,23.25h-20.55l24.6-107.1ZM348.46,200.06l-7.95-39.9h-.3l-8.1,39.9h16.35Z" fill="#fff"/>
          <path d="M398.71,152.37h-22.8v-18.15h69.45v18.15h-22.65v88.95h-24v-88.95Z" fill="#fff"/>
        </g>
        <g>
          <path d="M351.79,247.31l-4.65-23.25h-13.71l-4.65,23.25h-33l27.35-119.1h38.22l27.02,119.1h-36.58ZM341.14,194.06l-.84-4.22-.86,4.22h1.7Z"/>
          <polygon points="392.71 247.31 392.71 158.37 369.91 158.37 369.91 128.22 451.36 128.22 451.36 158.37 428.71 158.37 428.71 247.31 392.71 247.31"/>
        </g>
        <g>
          <path d="M327.91,134.22h28.65l24.3,107.1h-24.15l-4.65-23.25h-23.55l-4.65,23.25h-20.55l24.6-107.1ZM348.46,200.06l-7.95-39.9h-.3l-8.1,39.9h16.35Z" fill="#fff"/>
          <path d="M398.71,152.37h-22.8v-18.15h69.45v18.15h-22.65v88.95h-24v-88.95Z" fill="#fff"/>
        </g>
      </g>
    </g>
  </g>
</svg>