<?xml version="1.0" encoding="UTF-8"?>
<svg id="_Слой_2" data-name="Слой 2" xmlns="http://www.w3.org/2000/svg" viewBox="0 0 419.54 389.01">
  <g id="_Слой_1-2" data-name="Слой 1">
    <g>
      <g id="ba">
        <polygon points="372.59 267.97 365.52 261.16 360.59 261.32 353.48 260.54 346.99 269.53 339.58 281.15 337.62 294.78 325.04 315.18 321.11 336.67 327.79 349.47 327.64 364.45 324.22 377.51 329.25 388.63 325.65 386.61 324.18 389.01 316.29 383.37 304.65 371.87 288.2 367.53 273.54 358.53 258.43 349.99 246.97 337.69 232.99 340.17 218.89 334.11 229.54 325.6 218.13 310.93 204.94 294.74 185.89 286.87 181.18 273.46 173.94 262.92 158.54 250.48 144.41 240.77 133.89 227.11 121.12 215.39 111.79 200.51 93.64 186.55 80.43 179.15 71.27 167.22 66.43 163.16 56.84 158.14 53.39 144.53 50.18 134.31 44.64 124.44 39.42 106.54 28.45 91.02 10.69 84.42 1.15 70.47 0 51.37 1.8 32.4 8.22 13.58 26.97 16.78 43.22 27.43 58.35 39.1 60.54 43.01 60.26 37.83 65.8 31.61 73.36 20.2 77.4 5.59 93.24 5.76 105.7 4.3 113.39 3.16 120.02 0 127.56 1.71 142.12 6.64 157.76 7.26 173.78 4.7 190.32 14.71 208.91 19.38 217.55 13.2 237.44 4.49 251.63 5.72 259.99 6.79 271.96 3.71 285.47 4.15 302.1 4.14 310.46 19.68 324.45 30.76 342.8 33.13 360.7 28.02 378.83 27.86 370.02 44.84 366.94 64 361.12 82.83 360.61 102.57 379.58 111.56 391.8 125.05 407.05 133.77 419.54 141.91 409.41 152.73 386.49 153.38 394.07 164.79 400.14 180.67 413.32 191.05 417.59 206.8 400.53 215.98 392.32 227.36 374.98 225.93 358.61 232.66 365.16 249.43 372.31 261.86 371.68 269.74 372.59 267.97" fill="#020202"/>
      </g>
      <g>
        <g>
          <path d="M137.62,134.14h32.1c23.4,0,34.95,8.7,34.95,26.55,0,13.35-6.6,22.95-18,25.65,12.6,2.55,20.4,12.3,20.4,26.1,0,18.6-12.6,28.8-35.25,28.8h-34.2v-107.1ZM181.57,164.73c0-8.7-4.2-13.2-12.3-13.2h-8.1v26.7h8.4c7.8,0,12-4.8,12-13.5ZM182.62,209.13c0-9-4.5-14.1-12.75-14.1h-8.7v28.8h8.7c8.25,0,12.75-5.25,12.75-14.7Z" fill="#fff"/>
          <path d="M235.57,134.14h28.65l24.3,107.1h-24.15l-4.65-23.25h-23.55l-4.65,23.25h-20.55l24.6-107.1ZM256.12,199.98l-7.95-39.9h-.3l-8.1,39.9h16.35Z" fill="#fff"/>
        </g>
        <g>
          <path d="M131.62,247.23v-119.1h38.1c33.84,0,40.95,17.7,40.95,32.55,0,10.56-3.72,19.38-10.21,25.14,7.99,5.75,12.61,15.14,12.61,26.61,0,21.79-15.42,34.8-41.25,34.8h-40.2ZM169.87,217.83c2.36,0,6.75,0,6.75-8.7,0-7.12-3.24-8.1-6.75-8.1h-2.7v16.8h2.7ZM169.57,172.23c3.04,0,6-.58,6-7.5,0-6.05-2.21-7.2-6.3-7.2h-2.1v14.7h2.4Z"/>
          <path d="M259.45,247.23l-4.65-23.25h-13.71l-4.65,23.25h-33l27.35-119.1h38.22l27.02,119.1h-36.58ZM248.81,193.98l-.84-4.22-.86,4.22h1.7Z"/>
        </g>
        <g>
          <path d="M137.62,134.14h32.1c23.4,0,34.95,8.7,34.95,26.55,0,13.35-6.6,22.95-18,25.65,12.6,2.55,20.4,12.3,20.4,26.1,0,18.6-12.6,28.8-35.25,28.8h-34.2v-107.1ZM181.57,164.73c0-8.7-4.2-13.2-12.3-13.2h-8.1v26.7h8.4c7.8,0,12-4.8,12-13.5ZM182.62,209.13c0-9-4.5-14.1-12.75-14.1h-8.7v28.8h8.7c8.25,0,12.75-5.25,12.75-14.7Z" fill="#fff"/>
          <path d="M235.57,134.14h28.65l24.3,107.1h-24.15l-4.65-23.25h-23.55l-4.65,23.25h-20.55l24.6-107.1ZM256.12,199.98l-7.95-39.9h-.3l-8.1,39.9h16.35Z" fill="#fff"/>
        </g>
      </g>
    </g>
  </g>
</svg>