<?xml version="1.0" encoding="UTF-8"?>
<svg id="_Слой_2" data-name="Слой 2" xmlns="http://www.w3.org/2000/svg" viewBox="0 0 455.18 387.48">
  <g id="_Слой_1-2" data-name="Слой 1">
    <g>
      <g id="be">
        <polygon points="376.34 387.48 357.56 381.15 344.76 384.81 330.58 385.04 326.47 368.61 317.76 361.77 311.81 356.24 306.89 343.75 297.9 336.31 286.57 336.01 273.97 324.64 264.66 319.39 261.64 305.92 254.13 289.05 266.63 275.21 269.69 255.58 258.21 271.48 243.32 281.07 232.62 294.59 215.84 296.37 199.55 296.74 186.07 287.02 184.02 285.05 187.11 276.02 182.66 264.34 180.05 251.17 184.26 235.72 187.92 219.51 171.41 215.81 156.46 210.06 140.78 213.32 128.92 206.13 125.01 189.38 110.7 177.86 99.77 177.14 90.88 170.76 78.09 162.41 79.99 146 71.8 130.22 67.88 120.56 56.96 115.03 53.28 125.97 40.05 132.65 26.12 127.95 12.86 120.5 13.98 104.27 6.11 92.39 3.36 78.71 0 65.06 3.05 56.1 10.67 50.2 23.86 42.27 35.65 32.04 50.26 26.66 62.97 17.8 78.32 13.82 91.63 5.7 106 8.66 104.05 24.53 118.79 32.34 133.11 26.49 146.52 34.97 162.46 40.13 171.16 43.47 183.34 41.42 196.9 31.49 207.4 32.43 217.7 30.7 222.56 19.78 235.39 19.85 236.58 .67 244.38 6.32 258.65 6.94 274.71 1.97 278.25 0 274.14 11.97 289.21 14.87 297.38 13.09 303.73 6.58 310.57 13.02 309.67 25.14 315.75 38.24 330.24 43.78 342.43 51.32 356.11 51.76 368.03 58.71 381.86 59.24 395.02 64.75 390.68 82.45 386.6 98.17 382.44 113.33 376.19 122.93 378.9 133.78 381.88 147.03 397.01 153.92 413.65 153.41 423.15 163.77 431.5 175.45 441.22 179.87 437.93 199.48 450.05 210.64 455.18 224.2 448.29 237.43 438.13 251.79 425.57 262.23 418.22 267.04 413.68 259.63 395.45 267.19 387.13 277.79 381.97 290.01 377.89 302.27 372.12 313.54 372.57 326.72 377.53 338.87 383.47 350.45 392.73 361.34 386.51 374.26 374.22 382.16 376.34 387.48" fill="#020202"/>
      </g>
      <g>
        <g>
          <path d="M159.87,133.37h32.1c23.4,0,34.95,8.7,34.95,26.55,0,13.35-6.6,22.95-18,25.65,12.6,2.55,20.4,12.3,20.4,26.1,0,18.6-12.6,28.8-35.25,28.8h-34.2v-107.1ZM203.81,163.97c0-8.7-4.2-13.2-12.3-13.2h-8.1v26.7h8.4c7.8,0,12-4.8,12-13.5ZM204.86,208.37c0-9-4.5-14.1-12.75-14.1h-8.7v28.8h8.7c8.25,0,12.75-5.25,12.75-14.7Z" fill="#fff"/>
          <path d="M239.81,133.37h57.3v18.15h-33.15v24h20.7v17.85h-20.7v28.95h35.25v18.15h-59.4v-107.1Z" fill="#fff"/>
        </g>
        <g>
          <path d="M153.87,246.47v-119.1h38.1c33.84,0,40.95,17.7,40.95,32.55,0,10.56-3.72,19.38-10.21,25.14,7.99,5.75,12.61,15.14,12.61,26.61,0,21.79-15.42,34.8-41.25,34.8h-40.2ZM192.12,217.07c2.36,0,6.75,0,6.75-8.7,0-7.12-3.24-8.1-6.75-8.1h-2.7v16.8h2.7ZM191.81,171.47c3.04,0,6-.58,6-7.5,0-6.05-2.21-7.2-6.3-7.2h-2.1v14.7h2.4Z"/>
          <polygon points="233.81 246.47 233.81 127.37 303.11 127.37 303.11 157.52 269.96 157.52 269.96 169.52 290.66 169.52 290.66 199.37 269.96 199.37 269.96 216.32 305.21 216.32 305.21 246.47 233.81 246.47"/>
        </g>
        <g>
          <path d="M159.87,133.37h32.1c23.4,0,34.95,8.7,34.95,26.55,0,13.35-6.6,22.95-18,25.65,12.6,2.55,20.4,12.3,20.4,26.1,0,18.6-12.6,28.8-35.25,28.8h-34.2v-107.1ZM203.81,163.97c0-8.7-4.2-13.2-12.3-13.2h-8.1v26.7h8.4c7.8,0,12-4.8,12-13.5ZM204.86,208.37c0-9-4.5-14.1-12.75-14.1h-8.7v28.8h8.7c8.25,0,12.75-5.25,12.75-14.7Z" fill="#fff"/>
          <path d="M239.81,133.37h57.3v18.15h-33.15v24h20.7v17.85h-20.7v28.95h35.25v18.15h-59.4v-107.1Z" fill="#fff"/>
        </g>
      </g>
    </g>
  </g>
</svg>