<?xml version="1.0" encoding="UTF-8"?>
<svg id="_Слой_2" data-name="Слой 2" xmlns="http://www.w3.org/2000/svg" viewBox="0 0 512.1 389.18">
  <g id="_Слой_1-2" data-name="Слой 1">
    <g>
      <g id="bg">
        <polygon points="369.8 285.37 352.34 295.38 357.28 307.47 364.34 318.03 359.17 327.4 351.73 336.98 336.74 337.38 325.84 343.44 317.65 354.03 307.13 360.51 291.41 362.06 281.65 349.2 267.27 349.92 254.94 351.66 243.05 351.08 231.89 342.26 217.65 343.68 204.76 348.79 192.54 355.28 174.41 357.28 163.77 371.29 145.39 368.58 128.77 373.74 118.61 378.68 110.93 386.83 100.03 389.18 96.61 379.96 98.38 364.87 91.15 350.1 89.01 332.94 80.92 316.71 63.53 314.71 51.19 305.56 40.75 295.68 32.32 284.96 38.4 272.46 35.84 256.8 26.45 243.92 27.09 227.86 29.35 218.05 42.46 217.01 51.8 210.3 59.28 199.38 66.09 187.09 53.04 174.51 37.39 167.07 21.18 158.36 13.67 145.26 7.1 132.65 5.72 118.4 0 104.65 7.38 93.8 15.43 85.25 20.46 70.07 33.77 70.48 44.59 73.56 46.95 91.01 41.57 109.1 55.88 111.4 67.53 106.7 79.78 106.27 97.71 95.97 111.1 97.74 124.12 99.89 136.99 101.16 150.06 105.06 161.6 98.29 174.17 95.71 185.67 92.48 199.67 86.13 214.3 90.67 229.54 85.45 243.81 92.51 257.46 86.31 267.87 77.38 278.17 68.17 291.13 59.3 296.34 44.72 305.98 32.49 318.79 23.93 335.39 22.9 346.58 11.94 362.6 6.49 378.85 0 388.56 4.86 399.75 10.97 414.12 11.38 426.44 1.33 433.08 7.43 444.61 9.31 461.96 16.72 481.78 22.37 497.59 20.94 512.1 29.85 511.67 46.73 502.48 64.76 490.19 64.2 478.78 65.35 474.57 76.3 473.4 87.41 472.07 96.87 466.23 110.31 469.65 122.67 477.46 134.17 472.79 147.09 465.61 157.44 454.99 167.87 448.7 178.17 457.19 187.7 473.25 193.52 486.18 204.89 493.4 213.99 501.19 222.09 487.54 229.04 469.15 234.75 456.71 240.12 445.02 234.01 431.4 227.39 424.53 241.45 412.6 246.09 390.53 252.26 380.38 271.32 365.47 281 369.8 285.37" fill="#020202"/>
      </g>
      <g>
        <g>
          <path d="M181.87,134.22h32.1c23.4,0,34.95,8.7,34.95,26.55,0,13.35-6.6,22.95-18,25.65,12.6,2.55,20.4,12.3,20.4,26.1,0,18.6-12.6,28.8-35.25,28.8h-34.2v-107.1ZM225.82,164.82c0-8.7-4.2-13.2-12.3-13.2h-8.1v26.7h8.4c7.8,0,12-4.8,12-13.5ZM226.87,209.21c0-9-4.5-14.1-12.75-14.1h-8.7v28.8h8.7c8.25,0,12.75-5.25,12.75-14.7Z" fill="#fff"/>
          <path d="M258.67,188.67c0-36.75,13.2-56.25,38.55-56.25,19.95,0,31.95,11.4,34.35,34.35l-24.15,2.4c-.45-14.1-3.75-19.8-10.35-19.8-9.15,0-12.9,11.85-12.9,38.85s3.75,37.35,13.05,37.35c8.1,0,12.3-8.25,12.3-24.75h-12.75v-16.05h35.4v56.55h-12.45l-3.75-17.25c-3,12.15-11.85,19.05-24.3,19.05-21,0-33-19.8-33-54.45Z" fill="#fff"/>
        </g>
        <g>
          <path d="M175.87,247.31v-119.1h38.1c33.84,0,40.95,17.7,40.95,32.55,0,10.56-3.72,19.38-10.21,25.14,7.99,5.75,12.61,15.14,12.61,26.61,0,21.79-15.42,34.8-41.25,34.8h-40.2ZM214.12,217.91c2.36,0,6.75,0,6.75-8.7,0-7.12-3.24-8.1-6.75-8.1h-2.7v16.8h2.7ZM213.82,172.32c3.04,0,6-.58,6-7.5,0-6.05-2.21-7.2-6.3-7.2h-2.1v14.7h2.4Z"/>
          <path d="M291.67,249.11c-11.73,0-39-5.89-39-60.45,0-19.55,3.64-34.79,10.81-45.29,7.58-11.09,19.24-16.96,33.73-16.96,23.32,0,37.64,14.11,40.32,39.72l.63,6-36.54,3.63-.2-6.41c-.24-7.48-1.31-10.95-2.16-12.55-.7-1.31-1.18-1.44-2.19-1.44-.81,0-2.48,0-4.18,5.17-1.83,5.57-2.72,14.62-2.72,27.68,0,6.02.2,11.15.6,15.43v-24.88h47.4v68.55h-23.29l-1.43-6.57c-5.45,5.39-12.95,8.37-21.79,8.37ZM291.13,206.82c.43,3.28,1.01,5.95,1.75,8.05,1.64,4.69,3.27,4.69,4.35,4.69,4.1,0,5.57-6.83,6.06-12.75h-12.16Z"/>
        </g>
        <g>
          <path d="M181.87,134.22h32.1c23.4,0,34.95,8.7,34.95,26.55,0,13.35-6.6,22.95-18,25.65,12.6,2.55,20.4,12.3,20.4,26.1,0,18.6-12.6,28.8-35.25,28.8h-34.2v-107.1ZM225.82,164.82c0-8.7-4.2-13.2-12.3-13.2h-8.1v26.7h8.4c7.8,0,12-4.8,12-13.5ZM226.87,209.21c0-9-4.5-14.1-12.75-14.1h-8.7v28.8h8.7c8.25,0,12.75-5.25,12.75-14.7Z" fill="#fff"/>
          <path d="M258.67,188.67c0-36.75,13.2-56.25,38.55-56.25,19.95,0,31.95,11.4,34.35,34.35l-24.15,2.4c-.45-14.1-3.75-19.8-10.35-19.8-9.15,0-12.9,11.85-12.9,38.85s3.75,37.35,13.05,37.35c8.1,0,12.3-8.25,12.3-24.75h-12.75v-16.05h35.4v56.55h-12.45l-3.75-17.25c-3,12.15-11.85,19.05-24.3,19.05-21,0-33-19.8-33-54.45Z" fill="#fff"/>
        </g>
      </g>
    </g>
  </g>
</svg>