<?xml version="1.0" encoding="UTF-8"?>
<svg id="_Слой_2" data-name="Слой 2" xmlns="http://www.w3.org/2000/svg" viewBox="0 0 627.91 389.18">
  <g id="_Слой_1-2" data-name="Слой 1">
    <g>
      <g id="ch">
        <polygon points="620.21 185.95 620.62 205.82 617.49 216.87 618.54 226.48 627.91 241.13 617.23 248.52 606.83 248.28 595.91 242.97 588.06 234.3 570.59 240.12 574.34 257.6 577.72 275.08 575.41 293.72 577.57 308.75 571.42 308.64 557.88 305.61 559.68 291.95 549.53 282.13 535.47 280.69 524.77 289.18 513.27 294.71 501.31 295.04 491.59 286.82 483.58 278.07 481.43 264.75 468.45 260.68 454.01 269.26 461.15 286.51 452.34 301.68 451.05 316.68 442.66 327.86 427.96 333.24 421.14 346.09 416.93 360.15 424.55 377.96 428.83 383.65 421.2 389.18 411.22 387.68 406.71 369.98 392.41 364.38 391.02 349.84 390.73 339.98 380.3 333.96 367.99 329.98 355.28 325.71 347.95 314.28 342.35 300.4 341.57 285.12 343.41 267.65 325.71 272.22 312.41 281.17 301.46 293.55 294.19 305.25 299.98 318.45 297.09 328.97 285.14 339.54 274.66 351.05 266.18 364.58 249.73 373.62 235.85 366.5 223.73 354.11 206.67 366.04 190.28 364.11 178.45 373.64 163.96 373.23 152.47 367.77 137.06 360.52 128.86 347.32 121.92 338.51 116.96 328.96 107.06 315.37 110.37 301.26 113.77 282.36 108.61 260.9 92.78 263.4 79.03 263.29 64.55 260.95 48.16 260.11 40.41 274.72 37.07 288.71 39 302.42 29.87 313.87 12.35 311.95 0 314.39 10.02 297.93 20.28 278.7 21.72 262.46 20.86 247.45 20 232.03 29.35 219.2 43.05 208.14 58.22 200.81 64.01 188.14 65.89 173.11 70.54 158.15 83.49 149.97 95.94 140.79 106.72 132.11 122.43 124.2 125.64 108.11 138.12 98.84 151.02 86.01 152.45 82.33 141.34 76.73 137.83 69.34 148.72 61.34 155.44 53.21 164.74 54.14 181.95 63.67 198.98 61.87 212.42 53.41 224.61 43.71 238.33 36.2 242.43 45.46 257.19 36.01 271.92 36.85 286.42 34.44 301.61 35.35 315.94 36.7 331.06 38.32 344.45 37.62 356.59 34.59 362.62 24.37 369.36 26.36 362.14 27.04 349.91 27.06 349.05 15.59 352.57 .51 367.6 0 384.06 7.17 389.41 15.75 395.9 20.84 409.12 30.65 424.18 26.32 443.24 23.09 462.39 29.76 478.03 33.14 495.18 41.56 505.61 57.38 507.89 70.78 511.33 85.31 494.42 97.78 491.94 111.66 486.38 124.79 484.84 139.11 485.1 146.21 499.83 148.72 518.95 147.75 537.68 154.15 543.81 171.77 561.13 179.14 577.25 183.37 594.91 179.43 605.35 165.67 625.08 165.26 617.88 184.26 620.21 185.95" fill="#020202"/>
      </g>
      <g>
        <g>
          <path d="M235.81,188.12c0-36.45,13.35-55.8,38.4-55.8,20.85,0,32.7,12.3,34.35,36.15l-24.3,2.4c.3-14.25-3.15-21.15-10.2-21.15-9,0-12.75,10.8-12.75,38.4s3.6,37.5,12.75,37.5c7.5,0,11.1-6.3,11.25-20.25l23.25,1.5c-.15,22.35-13.2,36.15-34.65,36.15-24.6,0-38.1-19.35-38.1-54.9Z" fill="#fff"/>
          <path d="M318.91,134.12h24.15v42.15h21.75v-42.15h24.15v107.1h-24.15v-45.9h-21.75v45.9h-24.15v-107.1Z" fill="#fff"/>
        </g>
        <g>
          <path d="M273.91,249.02c-28.03,0-44.1-22.2-44.1-60.9,0-53.77,27.82-61.8,44.4-61.8,24.15,0,38.47,14.82,40.33,41.73l.4,5.81-36.83,3.64.14-6.76c.23-10.73-1.93-13.78-2.59-14.46-.28-.29-.64-.57-1.61-.57-.92,0-2.47,0-4.06,4.76-1.81,5.39-2.69,14.44-2.69,27.64s.86,21.9,2.62,27.04c1.53,4.46,3.03,4.46,4.13,4.46,1.39,0,5.1,0,5.25-14.31l.07-6.33,35.22,2.27-.04,5.66c-.17,25.58-16.13,42.11-40.65,42.11Z"/>
          <polygon points="358.81 247.22 358.81 201.32 349.06 201.32 349.06 247.22 312.91 247.22 312.91 128.12 349.06 128.12 349.06 170.27 358.81 170.27 358.81 128.12 394.95 128.12 394.95 247.22 358.81 247.22"/>
        </g>
        <g>
          <path d="M235.81,188.12c0-36.45,13.35-55.8,38.4-55.8,20.85,0,32.7,12.3,34.35,36.15l-24.3,2.4c.3-14.25-3.15-21.15-10.2-21.15-9,0-12.75,10.8-12.75,38.4s3.6,37.5,12.75,37.5c7.5,0,11.1-6.3,11.25-20.25l23.25,1.5c-.15,22.35-13.2,36.15-34.65,36.15-24.6,0-38.1-19.35-38.1-54.9Z" fill="#fff"/>
          <path d="M318.91,134.12h24.15v42.15h21.75v-42.15h24.15v107.1h-24.15v-45.9h-21.75v45.9h-24.15v-107.1Z" fill="#fff"/>
        </g>
      </g>
    </g>
  </g>
</svg>