<?xml version="1.0" encoding="UTF-8"?>
<svg id="_Слой_2" data-name="Слой 2" xmlns="http://www.w3.org/2000/svg" viewBox="0 0 468.03 389.01">
  <g id="_Слой_1-2" data-name="Слой 1">
    <g>
      <polygon points="441.6 165.75 447.04 148.97 449.37 138.35 451.76 129.47 468.03 123.19 453.41 118.1 443.12 117.82 436 110.09 433 96.64 433.67 92.2 434.98 87.55 421.12 86 422.3 74.56 420.97 62.11 413.45 50.94 397.25 52.19 391.61 65.8 375.52 74.14 364.2 69.03 353.89 75.81 343.79 69.49 334.16 66.91 322.36 66.9 313.88 61.7 303.11 58.62 293.83 53.04 284.34 47.14 276.74 39.03 269.66 30.12 261.45 22.44 248.78 20.85 240.69 13.13 232.54 4.4 217.75 0 206.67 8.65 202.01 17.82 194.54 25.3 180.8 27.64 171.54 36.39 164.59 44.17 161.2 55.54 164.27 68.71 168.48 81.32 160.64 88.31 150.32 90.92 145.82 89.63 139.62 96.7 141.46 105.75 142.09 115.51 139.53 125.84 129.31 128.34 117.18 122.74 104.7 126.66 92.68 120.84 83.26 111.95 70.82 119.44 64.72 132.92 54.36 126.09 44.07 128.03 30.19 133.96 13.87 134.1 1.53 137.64 0 149.1 6.22 159.16 6.82 169.88 11.3 178.83 15 188.14 20.47 195.22 23.73 203.43 30.31 209.91 36.59 200.93 46.17 189.64 42.45 189.03 51.43 185.56 53.82 175.57 54.41 164.64 60.11 154.91 66.17 145.32 78.8 147.14 88.1 153.26 93.33 161.5 102.13 166.71 112.05 173.28 109.35 186.09 113.7 196.98 109.05 208.54 115.54 218.97 121.07 231.57 132.45 239.24 141.18 249.76 154.38 249.96 163.93 257.95 158.87 255.44 142.37 257.02 137.74 270.39 145.03 281.05 154.55 290.41 166.81 296.27 175.69 306.8 181.77 310.59 196.2 318.5 208.82 324.79 204.42 338.51 218.81 342.47 233.78 340.67 248.19 332.87 256.91 338.76 264.34 344.69 275.06 348.32 285.9 349.62 292.36 357.13 298.76 364.9 308.7 369.4 315.91 377.63 328.2 375.9 337.28 381.29 345.32 389.01 352.19 383.8 347.67 373.08 336.41 369.11 328.89 359.49 316.76 355.28 317.74 342.19 307.48 335.69 295.28 329.66 288.83 320.37 278.48 315.07 274.92 303.52 266.64 296.12 257.05 290.16 251.69 279.44 240.53 274.31 230.1 268.47 221.02 258.71 220.53 249.22 208.29 235.76 206.05 223.14 197.97 214.05 190.56 201.16 182.44 193.47 177.42 181.73 177.56 169.24 183.34 158.15 192.26 153.09 202.8 157.76 213.49 164.82 224.6 170.32 227.41 169.36 233.39 166.77 237.94 154.39 246.08 143.95 260.33 151.02 270.27 141.88 280.22 141.86 288.79 148.11 305.38 143.11 316.12 151.8 329.69 148.67 340.45 155.44 350.9 147.48 364.22 145.64 376.26 149.04 384.02 144.7 394.87 143.82 398.36 144.98 407.99 144.61 415.78 150.57 422.31 165.2 439.46 165.49 441.6 165.75" fill="#020202"/>
      <g>
        <g>
          <path d="M157.21,188.13c0-36.45,13.35-55.8,38.4-55.8,20.85,0,32.7,12.3,34.35,36.15l-24.3,2.4c.3-14.25-3.15-21.15-10.2-21.15-9,0-12.75,10.8-12.75,38.4s3.6,37.5,12.75,37.5c7.5,0,11.1-6.3,11.25-20.25l23.25,1.5c-.15,22.35-13.2,36.15-34.65,36.15-24.6,0-38.1-19.35-38.1-54.9Z" fill="#fff"/>
          <path d="M240.31,134.14h31.05c25.5,0,38.55,11.1,38.55,31.2,0,13.35-6,22.8-16.65,27.75l18.9,48.15h-25.65l-15.3-42.45h-7.05v42.45h-23.85v-107.1ZM286.06,166.09c0-9.3-4.65-14.25-14.25-14.25h-7.65v28.95h7.8c9.75,0,14.1-5.1,14.1-14.7Z" fill="#fff"/>
        </g>
        <g>
          <path d="M195.31,249.03c-28.03,0-44.1-22.2-44.1-60.9,0-53.77,27.82-61.8,44.4-61.8,24.15,0,38.47,14.82,40.33,41.73l.4,5.81-36.83,3.64.14-6.76c.23-10.73-1.93-13.78-2.59-14.46-.28-.29-.64-.57-1.61-.57-.92,0-2.47,0-4.06,4.76-1.81,5.39-2.69,14.44-2.69,27.64s.86,21.9,2.62,27.04c1.53,4.46,3.03,4.46,4.13,4.46,1.39,0,5.1,0,5.25-14.31l.07-6.33,35.22,2.27-.04,5.66c-.17,25.58-16.13,42.11-40.65,42.11Z"/>
          <path d="M282.3,247.23l-12.13-33.67v33.67h-35.85v-119.1h37.05c28.31,0,44.55,13.56,44.55,37.2,0,13.28-5.34,23.89-15.16,30.42l20.21,51.48h-38.66ZM271.96,174.78c6.85,0,8.1-2.93,8.1-8.7,0-6.17-2.08-8.25-8.25-8.25h-1.65v16.95h1.8Z"/>
        </g>
        <g>
          <path d="M157.21,188.13c0-36.45,13.35-55.8,38.4-55.8,20.85,0,32.7,12.3,34.35,36.15l-24.3,2.4c.3-14.25-3.15-21.15-10.2-21.15-9,0-12.75,10.8-12.75,38.4s3.6,37.5,12.75,37.5c7.5,0,11.1-6.3,11.25-20.25l23.25,1.5c-.15,22.35-13.2,36.15-34.65,36.15-24.6,0-38.1-19.35-38.1-54.9Z" fill="#fff"/>
          <path d="M240.31,134.14h31.05c25.5,0,38.55,11.1,38.55,31.2,0,13.35-6,22.8-16.65,27.75l18.9,48.15h-25.65l-15.3-42.45h-7.05v42.45h-23.85v-107.1ZM286.06,166.09c0-9.3-4.65-14.25-14.25-14.25h-7.65v28.95h7.8c9.75,0,14.1-5.1,14.1-14.7Z" fill="#fff"/>
        </g>
      </g>
    </g>
  </g>
</svg>