<?xml version="1.0" encoding="UTF-8"?>
<svg id="_Слой_2" data-name="Слой 2" xmlns="http://www.w3.org/2000/svg" viewBox="0 0 684.65 389.18">
  <g id="_Слой_1-2" data-name="Слой 1">
    <g>
      <g id="cz">
        <polygon points="512.98 350.88 509.89 346.72 516.06 341.15 530.5 327.39 541.5 320.56 554.68 317.67 567.82 313.45 580.55 315.54 591.88 310.11 602.22 302.56 610.82 292.18 624.48 283.1 627.24 266.11 635.32 254 632.69 238.45 647.48 231.99 655.05 219.5 666.28 210.44 676.2 198.45 684.65 189.62 684.14 170.52 674.35 164.88 659.78 162.95 659.31 148.35 649.69 140.52 636.02 135.13 622.46 133.4 608.64 131.11 593.58 128.47 580.83 128.91 568.76 118.4 560.57 109.97 566.76 97.96 560.39 90.61 543.97 89.13 527.75 87.92 513.36 79.64 495.64 78.7 477.14 79.66 494.36 90.02 488.14 103.04 480.14 112.26 471.84 123.31 460.39 124.67 445.92 116.98 441.01 100.14 423.28 94.18 420.3 80.15 424.32 70.81 434.85 62.1 426.5 49.53 413.88 48.07 401.05 47.02 388.41 58.66 381.57 51.91 374.69 38.15 362.04 37.34 347.7 23.96 327.69 30.42 316.82 21.75 307.5 11.63 303.83 1.32 287.96 1.26 289.05 13.47 274.52 25.8 258.26 34.37 247.58 20.62 238.4 12.21 231.18 2.59 221.45 0 216.77 9.61 220.35 22.97 210.92 34.15 194.74 28.94 183.48 38.39 167.68 44.74 153.82 58.29 145.54 61.51 138.69 73.43 121.62 76.36 114.38 87.56 100.5 88.45 93.36 98.14 77.71 103.74 61.53 106.4 44.44 108.52 41.28 125.48 32.87 137.81 23.75 135.83 14.03 126.91 0 129.15 1.84 144.02 14.68 152.8 23.2 164.68 36.9 170.3 47.87 183.41 41.3 198.97 29.68 211.88 32.06 223.44 49.9 233.32 49.96 253.02 65.97 261.3 78.3 270.33 100.06 275.93 103.05 291.47 114.95 299.64 122.05 310.05 131.53 319.74 146.1 321.2 157.9 328.01 169.09 336.16 174.51 350.21 181.89 364.29 197.61 369.76 209.2 382.08 225.04 389.18 241.67 383.42 259.09 378.44 273.34 377.52 286.9 374.36 285.76 359.03 300.83 359.55 307.84 338.37 303.25 320.5 314.11 318.98 326.38 326.52 335.24 326.32 347.66 318.71 360.28 325.64 373.4 328.85 386.93 332.46 402.35 332.4 415.26 337.18 428.24 340.34 440.91 346.54 453.9 338.18 471.96 336.27 490.52 340.74 505.76 353.01 512.53 348.91 512.98 350.88" fill="#020202"/>
      </g>
      <g>
        <g>
          <path d="M269.95,188.22c0-36.45,13.35-55.8,38.4-55.8,20.85,0,32.7,12.3,34.35,36.15l-24.3,2.4c.3-14.25-3.15-21.15-10.2-21.15-9,0-12.75,10.8-12.75,38.4s3.6,37.5,12.75,37.5c7.5,0,11.1-6.3,11.25-20.25l23.25,1.5c-.15,22.35-13.2,36.15-34.65,36.15-24.6,0-38.1-19.35-38.1-54.9Z" fill="#fff"/>
          <path d="M349.15,226.76l37.65-74.4h-35.25v-18.15h62.7v15.3l-37.35,73.65h38.4v18.15h-66.15v-14.55Z" fill="#fff"/>
        </g>
        <g>
          <path d="M308.05,249.11c-28.03,0-44.1-22.2-44.1-60.9,0-53.77,27.82-61.8,44.4-61.8,24.15,0,38.47,14.82,40.33,41.73l.4,5.81-36.83,3.64.14-6.76c.23-10.73-1.93-13.78-2.59-14.46-.28-.29-.64-.57-1.61-.57-.92,0-2.47,0-4.06,4.76-1.81,5.39-2.69,14.44-2.69,27.64s.86,21.9,2.62,27.04c1.53,4.46,3.03,4.46,4.13,4.46,1.39,0,5.1,0,5.25-14.31l.07-6.33,35.22,2.27-.04,5.66c-.17,25.58-16.13,42.11-40.65,42.11Z"/>
          <polygon points="343.15 247.31 343.15 225.33 377.04 158.37 345.55 158.37 345.55 128.22 420.25 128.22 420.25 150.95 386.67 217.16 421.3 217.16 421.3 247.31 343.15 247.31"/>
        </g>
        <g>
          <path d="M269.95,188.22c0-36.45,13.35-55.8,38.4-55.8,20.85,0,32.7,12.3,34.35,36.15l-24.3,2.4c.3-14.25-3.15-21.15-10.2-21.15-9,0-12.75,10.8-12.75,38.4s3.6,37.5,12.75,37.5c7.5,0,11.1-6.3,11.25-20.25l23.25,1.5c-.15,22.35-13.2,36.15-34.65,36.15-24.6,0-38.1-19.35-38.1-54.9Z" fill="#fff"/>
          <path d="M349.15,226.76l37.65-74.4h-35.25v-18.15h62.7v15.3l-37.35,73.65h38.4v18.15h-66.15v-14.55Z" fill="#fff"/>
        </g>
      </g>
    </g>
  </g>
</svg>