<?xml version="1.0" encoding="UTF-8"?>
<svg id="_Слой_2" data-name="Слой 2" xmlns="http://www.w3.org/2000/svg" viewBox="0 0 293.05 389.18">
  <g id="_Слой_1-2" data-name="Слой 1">
    <g>
      <polygon points="293.05 184.49 288.03 200.78 278.91 194.19 271.97 198.3 261.93 212.08 245.86 221.26 228.45 224.8 219.95 236.3 208.81 241.68 206.7 239.2 213.18 256.08 214.85 272.67 220.22 283.85 233.99 284.56 249.85 299.02 256.81 308.78 266.67 317.67 255.49 332.41 242.68 338.84 235.72 339.66 236.86 356.69 238.04 377.04 231.06 375.34 223.98 371.91 210.99 372.26 204.81 378.45 191.41 379.46 174.86 386.88 159 385.45 150.42 377.58 139.62 389.18 134.18 386.74 126.09 381.85 107.73 373.73 91.85 370.49 85.04 367.39 71.87 380.26 50.24 382.91 44.43 379.77 40.75 374.07 44.3 362.2 46.17 350.62 49.38 337.03 58 322.22 64.62 302.59 48.38 298.34 36.77 294.05 23.65 296.56 9.68 281.7 12.67 266.46 3.61 250.28 10.65 234.11 4.52 218.36 2.19 200.75 5.42 186.1 9.11 170.3 0 154.96 14.65 149.89 27.42 150.78 28.02 136.59 34.74 122.52 32.39 118.18 36.98 110.68 39.76 95.21 43.83 82.62 40.03 76.21 41.81 65.44 57.31 60.44 62.59 62.92 71.35 68.07 81.34 73.41 81.6 65.53 87.07 54.28 104.9 57.41 115.46 63.38 121 70.32 119.46 68.05 116.9 64.19 115.46 63.38 109.09 55.4 97.77 42.46 97.48 33.03 92.05 26.64 93.33 25.39 100.39 14.86 90.01 6.1 100.61 0 112.81 2.97 123.42 4.6 131.46 11.04 132.35 15.38 132.11 21 143.47 25.76 155.78 22.64 159.89 34.06 162.1 43.29 163.81 44.65 176.77 49.75 182.78 34.5 197.17 30.9 210.05 16.3 224.9 14.66 230.36 14.71 232.41 14.73 233.75 14.74 235.2 15.17 243.65 17.63 237.48 28.81 236.72 37.93 243.94 40.43 254.05 49.11 262.72 58.99 267.45 71.17 264 84.05 266.93 99.38 270.76 113.81 278 130.92 285.14 135.58 284.54 148.91 287.98 159.7 291.34 171.14 290.07 171.92 293.05 184.49" fill="#020202"/>
      <g>
        <g>
          <path d="M77.75,134.22h28.05c28.65,0,43.05,16.2,43.05,53.1s-14.1,54-43.5,54h-27.6v-107.1ZM123.8,187.32c0-27-5.25-34.95-19.05-34.95h-2.85v70.8h2.85c13.8,0,19.05-8.7,19.05-35.85Z" fill="#fff"/>
          <path d="M159.8,134.22h57.3v18.15h-33.15v24h20.7v17.85h-20.7v28.95h35.25v18.15h-59.4v-107.1Z" fill="#fff"/>
        </g>
        <g>
          <path d="M71.75,247.31v-119.1h34.05c16.29,0,28.7,5.01,36.89,14.88,8.18,9.87,12.16,24.33,12.16,44.21s-3.94,34.12-12.04,44.25c-8.36,10.45-20.96,15.75-37.46,15.75h-33.6ZM107.9,217.03c5.27-.67,9.9-4.77,9.9-29.72s-4.48-28.22-9.9-28.83v58.55Z"/>
          <polygon points="153.8 247.31 153.8 128.22 223.1 128.22 223.1 158.37 189.95 158.37 189.95 170.37 210.65 170.37 210.65 200.22 189.95 200.22 189.95 217.16 225.2 217.16 225.2 247.31 153.8 247.31"/>
        </g>
        <g>
          <path d="M77.75,134.22h28.05c28.65,0,43.05,16.2,43.05,53.1s-14.1,54-43.5,54h-27.6v-107.1ZM123.8,187.32c0-27-5.25-34.95-19.05-34.95h-2.85v70.8h2.85c13.8,0,19.05-8.7,19.05-35.85Z" fill="#fff"/>
          <path d="M159.8,134.22h57.3v18.15h-33.15v24h20.7v17.85h-20.7v28.95h35.25v18.15h-59.4v-107.1Z" fill="#fff"/>
        </g>
      </g>
    </g>
  </g>
</svg>