<?xml version="1.0" encoding="UTF-8"?>
<svg id="_Слой_2" data-name="Слой 2" xmlns="http://www.w3.org/2000/svg" viewBox="0 0 321.22 389.18">
  <g id="_Слой_1-2" data-name="Слой 1">
    <g>
      <g>
        <polygon points="273.53 344.59 264 347.49 265.82 357.67 276.25 363 269.62 362.91 261.14 355.55 251.38 350.83 244.52 350.6 231.15 344.08 218.9 351.19 214.26 358.9 210.84 363.76 218.87 370.42 228.25 373.83 236.87 383.74 250 389.18 260.76 379.98 276.13 379.94 283.94 370.9 292.51 363.31 293.96 355.78 290.39 351.05 282.47 346.55 273.76 341.05 273.53 344.59" fill="#020202"/>
        <polygon points="191.81 283.35 197.94 292.71 200.63 303.51 197.21 314.8 199.93 326.17 189.52 330.25 179.79 331.14 170.1 333.58 162.18 329.14 149.6 328.84 147.88 315.1 143.35 315.3 141.83 320.68 141.15 321.24 138.43 309.57 135.64 297.96 128.41 291.39 123.52 283.89 114.32 279.42 103.94 279.87 104.6 283.99 106.5 293.48 108.05 305.85 108.78 316.99 102.88 326.53 97.33 340.13 105.83 342.78 114.68 345.07 117.97 357.43 107.74 357.87 95.44 362.88 87.26 364.57 78.49 364.27 69.71 362.15 62.2 355.35 50.05 356.17 38.89 353.04 38.7 342.36 39.28 330.94 39.37 320.05 38.3 309.02 38.17 298.76 37.4 287.43 25.21 286.64 14.89 282.81 6.32 276.4 1.52 269.03 0 254.6 7.72 242.54 13.54 242.44 19.22 232.3 19.11 223.91 17.31 215.46 13.51 206.33 3.32 210.72 4.15 203.17 .71 192.22 4.92 183.63 5.13 175.37 4.07 165.97 4.44 157.73 5.28 146.83 6.79 136.09 15.19 134.12 21.36 145.7 20.6 136.39 16.07 128.07 18.49 118 23.67 108.7 24.45 98.7 28.07 89.41 34.94 82.42 42.05 75.72 52 72.99 62.45 72.25 72.92 73.09 83.39 72.1 95.76 71.43 102.54 60.81 108.86 52.09 117.19 43.55 117.48 31.27 127.18 24.34 135.45 17.67 143.75 14 153.46 14.25 166.04 3.83 175.4 0 171.45 9.5 162.84 17.27 170.36 24.51 175.75 32.42 175.85 42.76 173.58 52.38 170.21 61.51 172.39 72.05 165.65 80.06 163.03 89.39 159.53 100.69 157.98 110.73 159.36 124.87 154.12 123.64 150.8 128.6 159.86 136.64 166.54 150.6 176.25 152.36 185.42 151.45 194.35 150.89 202.08 159.51 203.05 172.38 194.48 181.31 186.34 189.78 179.45 198.54 171.23 195.55 162.73 190.55 156.62 188.33 155.88 197.36 153.59 207.32 154.02 217.68 150.81 227.79 147.25 237.45 142.95 247.47 135.51 256.1 124.26 259.91 115.12 256.77 103.69 255.45 111.3 259.7 120.92 262.24 128.36 266.59 134.43 272.33 144.8 272.84 151.22 265.47 158.93 259.72 168.97 264.08 178.29 267.64 187.98 268.71 194.07 278.72 190.73 283.75 191.81 283.35" fill="#020202"/>
        <polygon points="314.89 297.73 307.24 302.56 298.3 310.34 290.75 314.24 291.59 323.18 295.15 333.07 286.26 339.76 270.79 337.76 266.24 334.46 266.93 331.57 270.89 324.72 264.17 317.19 254.43 313.43 239.29 312.1 228.57 308.14 226.65 296.58 217.49 294.28 222.63 284.81 225.63 276.94 223.14 268.78 217.84 262.44 211.51 255.46 202.92 246.13 211.16 245.82 220.31 243.61 229.81 243.54 237.91 237.93 243.21 232.19 250.47 226.29 252.82 216.49 262.97 216.91 272.85 218.2 281.23 222.34 287.82 229.65 287.92 240.78 281.43 249.16 284.97 255.67 286.56 241.49 290.55 232.63 289.35 223.47 283.11 218.14 277.11 212.23 275.73 205.02 286.26 203.54 295.89 204.58 305.97 201.23 314.36 208.18 318 216.62 315.99 227.41 317.44 238.59 321.22 248.79 317.12 259.08 310.06 264.98 302.61 269.58 296.48 278.2 306.28 282.78 313.64 289.5 316.3 298.11 314.89 297.73" fill="#020202"/>
      </g>
      <g>
        <g>
          <path d="M85.16,134.22h28.05c28.65,0,43.05,16.2,43.05,53.1s-14.1,54-43.5,54h-27.6v-107.1ZM131.21,187.32c0-27-5.25-34.95-19.05-34.95h-2.85v70.8h2.85c13.8,0,19.05-8.7,19.05-35.85Z" fill="#fff"/>
          <path d="M167.21,134.22h23.4v28.2l-.75,18.3h.15l28.05-46.5h22.2l-25.5,40.8,27.3,66.3h-25.2l-17.1-45-9.15,15.9v29.1h-23.4v-107.1Z" fill="#fff"/>
        </g>
        <g>
          <path d="M79.16,247.31v-119.1h34.05c16.29,0,28.7,5.01,36.89,14.88,8.18,9.87,12.16,24.33,12.16,44.21s-3.94,34.12-12.04,44.25c-8.36,10.45-20.96,15.75-37.46,15.75h-33.6ZM115.31,217.03c5.27-.67,9.9-4.77,9.9-29.72s-4.48-28.22-9.9-28.83v58.55Z"/>
          <polygon points="212.72 247.31 198.65 210.28 196.61 213.82 196.61 247.31 161.21 247.31 161.21 128.22 196.61 128.22 196.61 158.16 214.67 128.22 251.08 128.22 221.48 175.58 251.02 247.31 212.72 247.31"/>
        </g>
        <g>
          <path d="M85.16,134.22h28.05c28.65,0,43.05,16.2,43.05,53.1s-14.1,54-43.5,54h-27.6v-107.1ZM131.21,187.32c0-27-5.25-34.95-19.05-34.95h-2.85v70.8h2.85c13.8,0,19.05-8.7,19.05-35.85Z" fill="#fff"/>
          <path d="M167.21,134.22h23.4v28.2l-.75,18.3h.15l28.05-46.5h22.2l-25.5,40.8,27.3,66.3h-25.2l-17.1-45-9.15,15.9v29.1h-23.4v-107.1Z" fill="#fff"/>
        </g>
      </g>
    </g>
  </g>
</svg>