<?xml version="1.0" encoding="UTF-8"?>
<svg id="_Слой_2" data-name="Слой 2" xmlns="http://www.w3.org/2000/svg" viewBox="0 0 567.09 389.21">
  <g id="_Слой_1-2" data-name="Слой 1">
    <g>
      <g>
        <polygon points="248.54 359.18 260.93 351.1 272.11 343.29 284.84 336.89 294.51 327.06 303.98 316.99 315.11 308.17 330.84 311.98 334.13 304.97 342.19 305.08 351.7 315.09 363.31 323.63 376.9 322.23 390.62 325.97 408.95 326.17 414.16 342.28 425.67 352.91 439.43 360.02 452.18 368.6 467.64 370 479.22 369.35 487.5 360.78 494.72 349.39 507.64 344.23 520.73 350.1 534.65 352.1 542.89 347.47 541.72 326.22 550.03 317.84 553.88 304.18 558.72 294.36 567.09 282.34 557.89 269.31 553.72 253.56 542.72 239.5 530.23 234.78 520.88 224.95 521.61 211.11 524.59 198.88 522.78 185.87 519.56 172.64 510.03 162.69 503.55 151.03 501.04 137.66 498.52 125.33 496.89 112.53 505.34 102.49 509.9 90.53 512.28 76.9 515.72 62.35 514.71 46.08 518.09 31.3 526.34 17.74 529.22 10.79 518.66 0 508.17 6.93 493.53 13.78 479.73 19.27 465.35 20.11 450.93 19.87 436.47 17.77 422.16 19.14 407.83 21.34 393.45 18.42 379.09 20.71 364.72 20.94 350.46 18.3 340.36 21.13 327.54 16.31 332.94 27.65 330.24 30.41 315.84 24.92 307.03 15.38 301.58 28.35 300.46 41.94 289.27 50.38 277.65 58.2 263.3 57.29 250.15 60.6 236.74 57.46 230.64 55.29 224.53 68.73 211.31 76.65 196.81 79.3 181.62 81.07 169.15 91.02 173.83 105.34 169.97 116.5 157.23 122.44 142.84 127.33 127.77 130.84 117.39 143.45 117.19 155.47 122.55 164.46 134.32 172.28 142.34 177.91 143.84 187.96 138.22 198.23 136.43 210.4 139.28 222.4 144.62 234.15 155.46 241.16 163.16 249.13 169.46 258.89 168.87 274.94 178.86 285.52 189.66 286.43 200.9 290.02 214.26 298.46 227.27 285.92 230.75 269.08 247.77 265.23 251.69 277.39 248.84 290.44 252.64 303.08 256.08 315.43 253.71 328.38 249.64 343.04 251.85 356.04 248.54 359.18" fill="#020202"/>
        <polygon points="131.64 271.83 125.76 276.5 123.47 291.17 113.26 298.46 109.31 307.43 98.71 321.85 86.89 321.71 71.25 328.9 53.74 339.2 53.68 353.32 53.15 367.63 47.95 382.48 38.62 389.21 27.33 386.6 28.02 380.8 31.76 367.88 40.86 358.75 40.04 349.48 33.02 341.99 14.22 334.54 9.14 325.56 12.52 315.76 11.33 304.95 1.18 297.97 1.8 292.96 12.99 292.98 22.72 297.57 29.28 280.13 40.45 278.74 42.87 268.87 42.76 256.76 37.64 245.39 27.54 239.64 16.46 234.6 3.77 236.5 0 231.55 7.87 231.24 21.37 225.62 36.06 222.58 45.32 210.03 50.46 200.78 62.47 209.97 75.23 212.28 91.74 220.36 97.83 232.66 86.21 237.94 82.96 242.13 82.24 254.11 98.29 254.93 106.62 255.44 121.06 264.33 128.34 271.2 131.64 271.83" fill="#020202"/>
      </g>
      <g>
        <g>
          <path d="M232.21,134.23h57.3v18.15h-33.15v24h20.7v17.85h-20.7v28.95h35.25v18.15h-59.4v-107.1Z" fill="#fff"/>
          <path d="M301.8,134.23h57.3v18.15h-33.15v24h20.7v17.85h-20.7v28.95h35.25v18.15h-59.4v-107.1Z" fill="#fff"/>
        </g>
        <g>
          <polygon points="226.21 247.33 226.21 128.23 295.5 128.23 295.5 158.38 262.35 158.38 262.35 170.38 283.05 170.38 283.05 200.23 262.35 200.23 262.35 217.18 297.6 217.18 297.6 247.33 226.21 247.33"/>
          <polygon points="295.8 247.33 295.8 128.23 365.1 128.23 365.1 158.38 331.95 158.38 331.95 170.38 352.65 170.38 352.65 200.23 331.95 200.23 331.95 217.18 367.2 217.18 367.2 247.33 295.8 247.33"/>
        </g>
        <g>
          <path d="M232.21,134.23h57.3v18.15h-33.15v24h20.7v17.85h-20.7v28.95h35.25v18.15h-59.4v-107.1Z" fill="#fff"/>
          <path d="M301.8,134.23h57.3v18.15h-33.15v24h20.7v17.85h-20.7v28.95h35.25v18.15h-59.4v-107.1Z" fill="#fff"/>
        </g>
      </g>
    </g>
  </g>
</svg>