<?xml version="1.0" encoding="UTF-8"?>
<svg id="_Слой_2" data-name="Слой 2" xmlns="http://www.w3.org/2000/svg" viewBox="0 0 440.65 389.37">
  <g id="_Слой_1-2" data-name="Слой 1">
    <g>
      <polygon points="388 118.94 394.89 128.76 408.19 130.12 418.35 130.96 432.06 123.67 440.65 133.39 436.59 143.04 437.63 154.24 428.96 166.19 416.12 169.49 404.26 173.94 389.56 185.36 376.33 183.76 364.59 190.31 353.29 192.44 340.34 203.73 334.2 211.84 319.57 220.92 312.91 234.71 303.84 245.91 293.83 256.46 294.54 270.4 296.23 284.74 302.51 295.73 297.36 303.79 286.96 310.03 275.34 320.1 271.9 328.77 266.65 338.01 262.3 346.26 256.79 350.11 243.8 349.39 231.61 351.26 221.01 358.61 212.13 376.38 200.34 377.11 188.92 379.69 173.77 380.85 162.08 369.88 155.39 368.06 137.6 367.28 117.17 370.37 100.41 369.49 89.77 375.02 77.69 375.17 71.29 389.37 58.89 382.01 49.93 372.86 35.83 363.69 36.86 360.11 41.31 343.12 44.05 341.36 35.58 343.13 28.39 333.78 21.69 318.19 5.76 316.14 5.44 300.87 10.61 282.9 21.65 283.07 27.54 275.29 21.33 269.36 21.06 250.99 30.52 243.08 39.65 229.02 27.44 220.77 31.74 206.68 21.44 198.73 48.31 198.12 46.97 176.78 55.17 167.91 53.81 163.78 61.12 149.99 65.27 137.2 76.3 124.03 88.46 119.58 78.06 107.03 79.49 95.01 69.43 90.7 61.28 91.11 50.39 90.24 33.62 82.4 21.62 87.23 24.06 75.35 22.83 71.58 2.52 72.49 5.99 64.6 12.45 61.88 4.66 56.26 7.25 51.36 7.7 49.24 8.74 46.87 8.96 35.91 0 26.81 2.23 10.98 17.56 12.08 25.63 2.61 36.72 .84 52.93 1.5 66.19 0 80.88 10.96 89.73 10.67 98.87 19.23 117.27 14.95 134 27.72 151.73 32.15 164.66 39.36 179.17 42.58 199.11 40.2 212.13 41.74 222.13 55.94 237.02 49.61 254.42 60.24 271.72 62.82 273.48 68.77 279.88 74.87 289.65 76.23 293.13 87.12 306.91 92.84 314 97.89 330.63 97.33 336.23 107.19 347.06 106.81 360.65 96 375.17 112.02 386.97 119.45 388 118.94" fill="#020202"/>
      <g>
        <g>
          <path d="M155.3,134.32h57.3v18.15h-33.15v24h20.7v17.85h-20.7v28.95h35.25v18.15h-59.4v-107.1Z" fill="#fff"/>
          <path d="M220.55,212.61l21.45-4.2c1.05,11.1,6.3,17.85,13.95,17.85,6.15,0,10.35-4.5,10.35-11.4,0-6-3.3-10.8-10.2-15l-14.1-8.7c-12.9-7.95-18.75-16.95-18.75-29.1,0-17.7,12.75-29.55,31.95-29.55,17.25,0,29.4,9.45,32.4,24.75l-19.8,6.15c-1.5-9-5.7-13.95-12.15-13.95-5.85,0-9.9,4.05-9.9,9.9s3.3,9,12.75,14.55l12.9,7.65c12.15,7.2,17.85,17.1,17.85,29.7,0,19.35-13.8,31.95-34.35,31.95s-32.85-12-34.35-30.6Z" fill="#fff"/>
        </g>
        <g>
          <polygon points="149.3 247.41 149.3 128.32 218.6 128.32 218.6 158.47 185.45 158.47 185.45 170.46 206.15 170.46 206.15 200.31 185.45 200.31 185.45 217.26 220.7 217.26 220.7 247.41 149.3 247.41"/>
          <path d="M254.9,249.21c-22.73,0-38.56-14.18-40.33-36.12l-.43-5.34,32.89-6.44-8.18-5.04c-14.73-9.08-21.6-19.95-21.6-34.2,0-20.93,15.61-35.55,37.95-35.55,20.04,0,34.71,11.34,38.29,29.59l1.04,5.29-29.77,9.25,9.71,5.76c13.79,8.17,20.79,19.9,20.79,34.86,0,22.7-16.21,37.95-40.35,37.95ZM247.97,207.85c.28,2.91,1.67,12.41,7.98,12.41,3.6,0,4.35-2.94,4.35-5.4s-.83-5.93-7.32-9.88l-5.6-3.46.6,6.32ZM255.65,155.47c-2.55,0-3.9,1.35-3.9,3.9,0,1.78,0,3.63,9.79,9.38l1.18.7-.84-5.04c-.99-5.93-3.08-8.94-6.23-8.94Z"/>
        </g>
        <g>
          <path d="M155.3,134.32h57.3v18.15h-33.15v24h20.7v17.85h-20.7v28.95h35.25v18.15h-59.4v-107.1Z" fill="#fff"/>
          <path d="M220.55,212.61l21.45-4.2c1.05,11.1,6.3,17.85,13.95,17.85,6.15,0,10.35-4.5,10.35-11.4,0-6-3.3-10.8-10.2-15l-14.1-8.7c-12.9-7.95-18.75-16.95-18.75-29.1,0-17.7,12.75-29.55,31.95-29.55,17.25,0,29.4,9.45,32.4,24.75l-19.8,6.15c-1.5-9-5.7-13.95-12.15-13.95-5.85,0-9.9,4.05-9.9,9.9s3.3,9,12.75,14.55l12.9,7.65c12.15,7.2,17.85,17.1,17.85,29.7,0,19.35-13.8,31.95-34.35,31.95s-32.85-12-34.35-30.6Z" fill="#fff"/>
        </g>
      </g>
    </g>
  </g>
</svg>