<?xml version="1.0" encoding="UTF-8"?>
<svg id="_Слой_2" data-name="Слой 2" xmlns="http://www.w3.org/2000/svg" viewBox="0 0 249.39 389.02">
  <g id="_Слой_1-2" data-name="Слой 1">
    <g>
      <g>
        <polygon points="168.23 26.46 165.07 34.2 170.9 33.19 168.23 26.46"/>
        <polygon points="178.66 18.34 173.27 23.52 175.86 26.75 180.67 20.02 178.66 18.34"/>
        <polygon points="228.56 170.05 225.45 182.49 227.75 195.34 226.99 208.09 218.81 215.27 213.33 224.98 203.47 229.33 202.53 232.78 203.66 236.43 203.92 240.16 201.43 246.96 203.11 254.24 204.87 261.49 195.4 275.76 205.46 286.01 222.58 284.45 227.42 291.66 229.29 300.25 231.45 308.74 236.04 308.48 238.36 311.33 233.95 312.42 232.19 320.42 228.29 327.74 227.97 335.75 222.3 336.08 219.58 340.98 215.95 345.18 209.19 344.29 203.54 348.07 197.56 347.9 196.89 352.15 198.45 356.34 200.95 360.04 204.33 362.45 205.82 366.35 202.83 368.22 200.53 368.35 200.47 371.05 198.09 371.89 196.04 377.38 190.11 372.43 189.9 365.14 183.19 357.96 178.34 349.47 178.11 339.81 167.95 329.48 156.05 321.06 147.22 309.65 144.33 311.59 142.99 308.44 141.49 305.31 135.08 309.47 136.04 317.26 141.66 322.9 144.99 329.1 149.01 334.77 155.73 336.59 161.09 342 167.46 346.46 169.47 351.62 164.43 348.62 161.11 352.89 163.87 358.11 161.19 362.17 158.13 365.96 155.65 364.72 153.27 350.58 140.59 341.6 128.48 331.98 123.54 324.71 118.29 317.68 110.5 319.16 100.42 325.4 88.28 324.74 79.77 330.84 78.54 338.24 71.45 342.04 65.48 347.15 60.23 357.44 56.7 368.43 48.14 376.43 42.01 376.74 35.9 377.2 30.36 379.68 23.58 378.12 17.57 373.41 9.91 374.02 8.05 371.34 8.79 367.6 8.77 363.88 5.49 360.32 6.59 355.39 8.3 350.58 9.4 342.06 7.89 333.49 9.7 325.44 23.74 322.59 38.24 324.63 52.49 322.71 54.83 312.54 53.64 302.26 48.36 293.29 44.28 289.28 38.54 287.55 35.27 283.49 38.41 278.49 46.84 279.63 51.77 275.66 55.59 272.16 65.09 269.98 71.01 261.57 73.87 257.44 78.87 255.59 83.81 253.69 87.23 246.17 91.18 238.96 97.93 234.47 102.47 233.66 106.62 231.47 110.77 233.17 114.41 226.13 113.16 218.07 110.17 210.44 110.45 206.49 110.35 202.53 111.27 198.71 116.72 193.79 123.17 190.54 123.13 197.18 125 202.56 122.95 207.19 119.22 211.5 118.84 215.92 120.2 220.19 122.78 223.83 125.03 224.36 126.48 226.06 127.16 228.26 131.61 227.32 135.56 224.93 139.85 223.29 149.42 228.26 159.65 223.37 170.52 220.42 182.75 225.08 196.01 223.04 189.14 214.92 186.89 205.25 188.41 195.42 195.64 189.24 198.78 192.64 201.99 195.98 206.12 194.81 207.06 190.84 206.93 186.71 207.44 182.64 205.25 181.38 202.86 180.39 202.47 177.9 206.72 168.74 217.71 167.58 228.56 170.05"/>
        <polygon points="249.39 126.21 248.16 131.66 234.71 148.84 216.42 160.7 195.39 159.75 190.05 156.19 189.27 149.8 190.23 143.3 189.04 137.98 187.91 132.65 188.83 127.33 197.79 115.9 207.55 105.06 212.43 91.65 205.64 86.48 197.1 87.51 190.57 93.19 189.02 100.6 187.96 108.11 184.65 114.87 172.11 125.11 164.32 139.23 165.15 155.2 173.08 161.48 171.5 170.98 163.85 177.77 160.36 188.31 159.37 199.62 151.81 206.59 148.47 207.84 146.61 210.98 144.83 214.16 141.31 214.91 138.65 212.64 137.47 209.19 134.74 213.54 133.45 218.81 129.65 222.17 128.32 221.67 127.81 220.4 129.1 219.93 128.24 214.92 130.23 209.57 136.14 206.77 134.05 193.7 129.37 180.92 123.46 168.73 118.37 176.58 111.36 182.88 102.67 185.71 96.2 181.73 95.94 174.7 92.82 170.25 94.5 166.46 96.53 162.73 93.43 160.77 90.79 148.54 94.24 136.53 104.71 130.41 103.08 127.39 105.85 125.62 109.25 124.79 115.33 118.56 121.07 112.03 126.14 104.97 135.34 90.44 141.33 74.13 148.4 65.79 151.88 60.6 152.15 55.74 155.22 51.63 159.68 49.54 163.17 42.66 167.57 39.81 171.8 33.89 172.94 28.52 177.09 27.06 178.32 23.86 183.5 21.52 190.01 21.42 191.42 16.45 199.06 12.92 201.21 17.73 209.39 7.08 210.81 1.66 217.41 4.35 228.29 0 237.25 4.21 248.2 14.69 240.22 19.91 241.35 24.21 247.76 23.25 236.43 36.13 233.49 44.89 234.77 49.7 238.69 51.74 242.24 59.85 238.8 64.81 236.99 72.46 239.43 85.95 239.08 99.59 241.98 105.12 242.87 111.3 242.19 117.52 246.36 121.45 249.39 126.21"/>
        <polygon points="42.71 179.24 41.67 189.46 49.64 195.15 42.63 207.37 52.98 214.97 59.51 226.83 63.72 239.65 70.45 240.24 71.37 246.75 67.03 252.13 66.03 253.9 68.29 254.72 69.93 256.07 62.63 260.26 54.17 261.25 45.64 261.1 35.74 264.58 30.19 264.36 36.91 256.25 43.84 254.61 36.36 252.63 31.34 248.87 35.51 246.53 36.63 242.35 35.02 237.87 36.74 235.42 40.32 235.49 42.91 233.35 43.97 229.17 41.6 225.4 40.88 221.15 36.45 220.26 31.42 218.4 33.24 211.73 30.45 207.95 28.23 207.05 28.08 202.18 25.07 202.05 25.58 196.23 21.74 192.11 22.71 190.06 24.66 191.9 26.53 191.96 29.19 184.46 34.87 179.09 42.71 179.24"/>
        <polygon points="25.96 216.68 28.5 220.94 27.9 225.73 24.42 229.27 25.61 234.48 25.71 239.82 24.4 244.99 15.37 249.43 5.89 252.7 0 246.54 4.7 240.59 4.32 235.6 2.74 228.9 2.89 226.09 5.76 225.78 8.63 226.63 11.96 219.46 17.79 215.02 25.96 216.68"/>
        <polygon points="119 344.17 119.9 349.59 119.47 355.07 115.58 357.82 114.7 359.5 112.77 359.51 111.45 358.09 111.91 353.8 111.69 349.49 110.12 345.51 113.39 344.01 116.32 341.92 119 344.17"/>
        <polygon points="153.98 365.3 152.55 369.68 152.17 374.39 148.77 376.01 139.1 370.23 142.75 366.09 153.98 365.3"/>
        <polygon points="116.59 340.71 113.39 337.23 113.41 332.39 117.45 330.73 118.03 334.02 117.41 337.39 116.59 340.71"/>
        <polygon points="214.71 386.73 213.53 389.02 207.59 388.45 201.89 386.8 205.18 384.87 209.92 386.05 214.71 386.73"/>
        <polygon points="201.09 179.61 198.43 181.91 195.45 183.81 192.97 186.28 192.8 181.59 196.59 178.6 201.09 179.61"/>
        <polygon points="172.68 194.69 169.67 195.36 170.56 190.19 174.05 186.54 174.22 189.36 173.92 192.18 172.68 194.69"/>
        <polygon points="123.48 212.6 125.74 214.93 124.71 217.61 121.45 217.64 121.1 215.05 120.83 212.63 123.48 212.6"/>
        <polygon points="24.87 180.52 24.13 183.69 22.52 186.43 19.4 186.26 20.17 183.59 22.23 181.53 24.87 180.52"/>
        <polygon points="80.2 352.29 81.71 355.16 78.87 356.34 75.78 355.11 77.24 354.16 78.72 353.21 80.2 352.29"/>
      </g>
      <g>
        <g>
          <path d="M56.3,134.14h57.3v18.15h-33.15v24h20.7v17.85h-20.7v28.95h35.25v18.15h-59.4v-107.1Z" fill="#fff"/>
          <path d="M125,209.89v-75.75h24.15v77.25c0,7.8,4.05,13.05,12.15,13.05s12-5.25,12-12.9v-77.4h20.7l.15,75.6c0,20.4-12.15,33.3-34.05,33.3-23.7,0-35.1-12.6-35.1-33.15Z" fill="#fff"/>
        </g>
        <g>
          <polygon points="50.3 247.23 50.3 128.14 119.59 128.14 119.59 158.29 86.45 158.29 86.45 170.29 107.14 170.29 107.14 200.14 86.45 200.14 86.45 217.08 121.69 217.08 121.69 247.23 50.3 247.23"/>
          <path d="M160.09,249.03c-26.12,0-41.1-14.27-41.1-39.15v-81.75h36.15v83.25c0,6.21,3.11,7.05,6.15,7.05,4.15,0,6-2.13,6-6.9v-83.4h32.69l.16,81.59c0,24.25-15.35,39.31-40.05,39.31Z"/>
        </g>
        <g>
          <path d="M56.3,134.14h57.3v18.15h-33.15v24h20.7v17.85h-20.7v28.95h35.25v18.15h-59.4v-107.1Z" fill="#fff"/>
          <path d="M125,209.89v-75.75h24.15v77.25c0,7.8,4.05,13.05,12.15,13.05s12-5.25,12-12.9v-77.4h20.7l.15,75.6c0,20.4-12.15,33.3-34.05,33.3-23.7,0-35.1-12.6-35.1-33.15Z" fill="#fff"/>
        </g>
      </g>
    </g>
  </g>
</svg>