<?xml version="1.0" encoding="UTF-8"?>
<svg id="_Слой_2" data-name="Слой 2" xmlns="http://www.w3.org/2000/svg" viewBox="0 0 215.15 389.18">
  <g id="_Слой_1-2" data-name="Слой 1">
    <g>
      <g id="fi">
        <polygon points="176.18 346.71 185.65 333.47 193.32 318.09 198.43 301.78 202.98 285.41 212.06 270.3 215.15 253 208.15 238.09 189.1 225.42 183.12 221.86 182.67 199.78 173.71 191.69 167.89 186.37 164.75 182.26 158.49 174.91 153.08 158.64 153.69 144.06 145.23 128.11 135.7 119.38 130.9 105.32 135.71 82.54 119.75 65.37 103.15 51.24 99.97 33.13 95.31 8.51 80.53 0 69.29 8.68 61.88 14.02 61.2 30.98 59.19 52.3 53.79 61.66 45.72 56.75 21.72 61.66 5.22 48.18 .88 58.08 0 63.64 14.06 72.48 33.72 85.07 43.92 95.26 45.81 105.5 53.74 128.45 57.23 145.77 68.32 163.96 85.65 178.28 89.98 185.38 94.94 192 85.66 201.94 81.52 218.55 75.42 228.94 67.62 240.42 60.96 254.34 56.21 259.32 54.63 267.53 45.45 274.56 44.21 285.81 40.4 298.56 45.38 312.57 52.71 322.66 57.57 330.74 59.09 337.71 57.03 348.4 56.84 357.34 62.45 371.63 69.84 374.27 79.37 377.79 89.05 379.39 90.55 378.23 92.11 384.02 96.84 386.65 97.65 389.18 110.32 384.37 123.8 378.89 135.43 371.02 143.95 367.58 147.48 364.85 147.63 360.6 152.98 358.36 153.4 355.65 159.78 357.97 166.37 354.02 174.11 345.32 176.18 346.71" fill="#020202"/>
      </g>
      <g>
        <g>
          <path d="M62.13,134.22h57.15v18.15h-33v25.95h20.85v17.85h-20.85v45.15h-24.15v-107.1Z" fill="#fff"/>
          <path d="M129.03,134.22h24.15v107.1h-24.15v-107.1Z" fill="#fff"/>
        </g>
        <g>
          <polygon points="56.13 247.31 56.13 128.22 125.27 128.22 125.27 158.37 92.28 158.37 92.28 172.32 113.13 172.32 113.13 202.17 92.28 202.17 92.28 247.31 56.13 247.31"/>
          <rect x="123.03" y="128.22" width="36.15" height="119.1"/>
        </g>
        <g>
          <path d="M62.13,134.22h57.15v18.15h-33v25.95h20.85v17.85h-20.85v45.15h-24.15v-107.1Z" fill="#fff"/>
          <path d="M129.03,134.22h24.15v107.1h-24.15v-107.1Z" fill="#fff"/>
        </g>
      </g>
    </g>
  </g>
</svg>