<?xml version="1.0" encoding="UTF-8"?>
<svg id="_Слой_2" data-name="Слой 2" xmlns="http://www.w3.org/2000/svg" viewBox="0 0 369.98 389.18">
  <g id="_Слой_1-2" data-name="Слой 1">
    <g>
      <g>
        <polygon points="196.34 1.49 201.23 9.77 209.88 12.41 214.65 19.79 221.36 28.36 231.13 34.66 237.49 39.94 239.81 46.04 251.72 45.36 254.31 48.41 260.99 57.78 266.84 64.17 279.36 68.33 291.63 72.5 302.94 79.66 305.5 83.13 316.35 82.07 325.85 86.51 332.83 89.32 334.96 97.69 327.89 103.6 326.38 113.35 323.18 122.84 317.21 135.71 314.78 150.03 304.35 150.5 300.57 154.4 298.64 158.3 290.32 168.39 284.47 179.56 280.17 185 276.38 194.31 278.65 198.15 287.73 191.73 292.95 192.44 295.76 200 298.19 213.26 302.03 223.82 298.94 235.03 289.69 240.31 298.97 254.88 294.22 267.51 301.34 273.86 307.93 280.92 314.36 285.36 309.02 296.05 299.83 304.13 287.33 311.16 279.91 318.34 269.07 322 258.72 319.64 244.9 308.27 244.66 300.84 239.52 302.65 231.53 304.32 229.8 305.27 226.15 302.4 218.05 298.59 205.85 300.47 197.57 307.28 188.52 311.4 182.75 319.16 181.7 329.33 181 336.08 182.75 338.8 176.23 338.95 164.9 337.82 153.84 335.03 143.19 332.19 140.43 326.39 130.02 324.62 118.47 318.06 108.92 318.01 98.76 317.32 83.92 310.46 73.5 307.03 64.3 303.21 56.32 296.46 54.86 288.94 52.82 282.22 56.24 270.18 59.91 258.95 63.68 247.58 69.83 240.18 71.6 234.69 67.62 234.02 70.26 229.28 72.14 215.11 77.57 205.29 81.34 214.21 89.06 225.76 88.88 226.51 84.56 220.36 83.36 208.42 80.11 201.09 79.89 198.08 80.32 187.28 76.36 174.38 69.41 168.62 63.07 166.18 62.56 156.32 57.35 147.8 56.6 138.01 49.65 125.34 53.16 120.37 41.92 118.06 41.98 115.66 37.99 111.61 35.12 107.76 30.53 109.34 23.55 103.1 16.26 98.21 .55 92.68 0 89.44 8.3 83.71 7.73 81.46 6.75 80.24 9.85 77.54 6.25 74.27 1.96 75.32 5.36 69.31 18.17 67.2 26.66 68.03 36.96 67 47.21 70.48 58.17 76.73 68.86 79.9 75.83 79.81 83.31 76.71 82.4 65.47 83.65 54.82 81.87 40.92 84.93 41.54 95.92 42.42 99.05 51.37 100.89 55.8 110.27 57.58 119.94 58.64 128 56.26 133 47.21 143.55 41.61 153.16 37.81 164.04 37.97 172.61 30.45 169.12 19.68 174.69 2.84 185.88 0 196.28 1.4 196.34 1.49" fill="#020202"/>
        <polygon points="364.92 325.78 368.11 333.69 366.33 337.69 366.43 340.1 369.98 358.14 362.99 369.99 361.89 385.19 356.39 389.18 351.24 387.52 345.58 380.2 342.1 371.94 342.05 365.17 339.23 352.75 338.09 346.67 343.92 339.92 354.04 335.03 359.49 331.22 365.13 323.25 364.92 325.78" fill="#020202"/>
      </g>
      <g>
        <g>
          <path d="M117.86,134.22h57.15v18.15h-33v25.95h20.85v17.85h-20.85v45.15h-24.15v-107.1Z" fill="#fff"/>
          <path d="M184.76,134.22h31.05c25.5,0,38.55,11.1,38.55,31.2,0,13.35-6,22.8-16.65,27.75l18.9,48.15h-25.65l-15.3-42.45h-7.05v42.45h-23.85v-107.1ZM230.51,166.17c0-9.3-4.65-14.25-14.25-14.25h-7.65v28.95h7.8c9.75,0,14.1-5.1,14.1-14.7Z" fill="#fff"/>
        </g>
        <g>
          <polygon points="111.86 247.31 111.86 128.22 181.01 128.22 181.01 158.37 148.01 158.37 148.01 172.32 168.86 172.32 168.86 202.17 148.01 202.17 148.01 247.31 111.86 247.31"/>
          <path d="M226.75,247.31l-12.13-33.67v33.67h-35.85v-119.1h37.05c28.31,0,44.55,13.56,44.55,37.2,0,13.28-5.33,23.89-15.16,30.42l20.21,51.48h-38.66ZM216.41,174.87c6.85,0,8.1-2.93,8.1-8.7,0-6.17-2.08-8.25-8.25-8.25h-1.65v16.95h1.8Z"/>
        </g>
        <g>
          <path d="M117.86,134.22h57.15v18.15h-33v25.95h20.85v17.85h-20.85v45.15h-24.15v-107.1Z" fill="#fff"/>
          <path d="M184.76,134.22h31.05c25.5,0,38.55,11.1,38.55,31.2,0,13.35-6,22.8-16.65,27.75l18.9,48.15h-25.65l-15.3-42.45h-7.05v42.45h-23.85v-107.1ZM230.51,166.17c0-9.3-4.65-14.25-14.25-14.25h-7.65v28.95h7.8c9.75,0,14.1-5.1,14.1-14.7Z" fill="#fff"/>
        </g>
      </g>
    </g>
  </g>
</svg>