<?xml version="1.0" encoding="UTF-8"?>
<svg id="_Слой_2" data-name="Слой 2" xmlns="http://www.w3.org/2000/svg" viewBox="0 0 315.53 389.37">
  <g id="_Слой_1-2" data-name="Слой 1">
    <g>
      <g>
        <polyline points="313.45 353.35 315.53 362.56 307.58 369.46 297.82 373.24 287.11 376.42 277.05 381.51 267.23 386.7 257.72 386.86 250.03 389.37 239.45 383.68 231.41 380.87 222.9 381.36 216.24 381.01 206.46 382.86 194.67 383 186.01 374.18 188.54 360.89 196.86 357.72 206.82 358.24 212.02 361.74 224.02 365.81 236.32 365.51 246.5 359.37 259.08 360.98 271.87 359.5 281.69 358.98 294.19 361.98 301.95 361.1 309.88 357.68 313.08 353.89" fill="#020202"/>
        <polygon points="227.32 26.33 228.39 27.17 228.77 27.65 229.1 26.69 232.38 25.22 239.96 20.02 243.28 10.96 244.08 2.55 244.47 2.2 245.33 1.75 246.09 .53 246.44 0 246.97 1.05 246.96 2.26 256.29 1.73 263.08 8.28 262.67 16.84 255.24 30.14 257.91 38.47 255.88 46.4 249.2 59.13 245.29 54.94 234.48 53.05 223.68 53.96 212.7 53.06 202.2 55.82 193 62.05 178.23 63.18 170.05 67.96 163.56 74.78 152.9 80.44 154.73 91.31 163.87 96.55 173.06 99.96 176.85 104.38 177.32 105.4 164.15 102.93 159.42 101.19 160.82 112.21 155.68 118.88 147.83 107.6 142.11 109.1 146.65 117.18 150.06 121.94 141.96 123.54 137.22 116.55 129.89 109.82 115.52 105.14 110.15 97.22 104.52 104.11 103.82 113.77 108.03 122.46 112.86 129.7 117.62 138.17 124.29 144.64 130.83 150.89 141.05 159.9 136.67 166.51 126.88 167.71 130.73 174.56 131.76 185.07 120.09 190.35 121.44 193.45 132.96 195.22 141.4 196.85 148.56 201.95 156.37 204.3 163.94 206.99 171.33 211.79 179.22 215.28 184.08 219.06 188.47 231.97 187.78 242.2 179.57 238.48 170.36 232.28 158.4 232.81 145.5 241.85 148.99 251.33 159.23 259.35 164.47 264.76 157.9 266.42 149.99 268.16 140.13 263.34 138.25 271.3 144.2 282.23 149.7 293.78 154.78 301.07 154.68 310.3 160.66 319.34 151.5 316.15 144.3 311.17 135.22 309.24 133.09 318.19 127.99 325.57 122.49 316.54 116.45 309.69 112.17 300.48 102.08 303.38 101.62 316.01 90.34 310.69 84.96 300.7 85.77 291.7 87.74 282.62 80.56 275.47 74.25 268.3 65.51 264.76 58.23 257.53 62.08 248.76 66.79 241.41 73.92 238.12 81.98 235.75 87.14 227.44 96.41 228.98 104.73 231.22 113.63 231.49 121.17 237.48 134.99 240.17 137.04 235.79 145.12 229.7 138.18 225.2 129.41 225.28 116.89 218.2 104.84 220.71 94 221.58 83.86 227.12 68.74 228.99 57.91 229.13 50.37 225.41 46.54 217.68 39.54 212.7 31.34 207.87 28.06 197.2 21.53 189.25 12.76 183.32 5.76 177.05 0 169.49 4.01 160.86 6.65 147.92 12.57 139.32 19.13 132.39 26.2 120.44 31.55 109.26 34.45 95.32 43.67 89.22 51.79 87.68 58.78 82.98 66.21 76.95 73.25 71.72 81.73 66 92.37 67.13 102.11 61.16 103.28 52.96 107.83 48.09 119.73 48.19 130.08 42.24 141.23 38.57 153.07 35.94 162.31 27.47 170.72 30.37 178.96 28.49 190.15 34.39 202.06 34.63 211.15 34.63 219.4 31.33 228.14 28.85 227.32 26.33" fill="#020202"/>
        <polygon points="44.88 244.51 35.94 247.48 28.55 243.63 24.95 243.7 23.99 236.67 32.65 225.25 36.99 231.51 41.78 238.83 46.12 245.28 44.88 244.51" fill="#020202"/>
        <polygon points="190.91 210.74 180.4 207.85 168.71 204.87 158.07 194.84 148.05 188.03 136.14 185.82 130.15 186.95 127.86 185.07 129.82 181.89 137.88 178.37 145.63 172.89 157.81 181.3 167.8 183.52 177.25 188.93 191.69 191.36 194.21 201.54 199.8 209.68 212.69 215.48 213.69 219.4 208.23 223.72 197.84 217.11 190.31 211.77 190.91 210.74" fill="#020202"/>
      </g>
      <g>
        <g>
          <path d="M79.69,188.76c0-36.75,13.2-56.25,38.55-56.25,19.95,0,31.95,11.4,34.35,34.35l-24.15,2.4c-.45-14.1-3.75-19.8-10.35-19.8-9.15,0-12.9,11.85-12.9,38.85s3.75,37.35,13.05,37.35c8.1,0,12.3-8.25,12.3-24.75h-12.75v-16.05h35.4v56.55h-12.45l-3.75-17.25c-3,12.15-11.85,19.05-24.3,19.05-21,0-33-19.8-33-54.45Z" fill="#fff"/>
          <path d="M165.34,134.31h31.05c25.5,0,38.55,11.1,38.55,31.2,0,13.35-6,22.8-16.65,27.75l18.9,48.15h-25.65l-15.3-42.45h-7.05v42.45h-23.85v-107.1ZM211.09,166.26c0-9.3-4.65-14.25-14.25-14.25h-7.65v28.95h7.8c9.75,0,14.1-5.1,14.1-14.7Z" fill="#fff"/>
        </g>
        <g>
          <path d="M112.69,249.21c-11.73,0-39-5.89-39-60.45,0-19.55,3.64-34.79,10.81-45.29,7.58-11.09,19.24-16.96,33.73-16.96,23.32,0,37.64,14.11,40.32,39.72l.63,6-36.54,3.63-.2-6.41c-.24-7.48-1.31-10.95-2.16-12.55-.7-1.31-1.18-1.44-2.19-1.44-.81,0-2.48,0-4.18,5.17-1.83,5.57-2.72,14.62-2.72,27.68,0,6.02.2,11.15.6,15.43v-24.88h47.4v68.55h-23.28l-1.43-6.57c-5.45,5.39-12.95,8.37-21.79,8.37ZM112.15,206.91c.43,3.28,1.01,5.95,1.75,8.05,1.64,4.69,3.27,4.69,4.35,4.69,4.1,0,5.57-6.83,6.06-12.75h-12.16Z"/>
          <path d="M207.32,247.41l-12.13-33.67v33.67h-35.85v-119.1h37.05c28.31,0,44.55,13.56,44.55,37.2,0,13.28-5.33,23.89-15.16,30.42l20.21,51.48h-38.66ZM196.99,174.96c6.85,0,8.1-2.93,8.1-8.7,0-6.17-2.08-8.25-8.25-8.25h-1.65v16.95h1.8Z"/>
        </g>
        <g>
          <path d="M79.69,188.76c0-36.75,13.2-56.25,38.55-56.25,19.95,0,31.95,11.4,34.35,34.35l-24.15,2.4c-.45-14.1-3.75-19.8-10.35-19.8-9.15,0-12.9,11.85-12.9,38.85s3.75,37.35,13.05,37.35c8.1,0,12.3-8.25,12.3-24.75h-12.75v-16.05h35.4v56.55h-12.45l-3.75-17.25c-3,12.15-11.85,19.05-24.3,19.05-21,0-33-19.8-33-54.45Z" fill="#fff"/>
          <path d="M165.34,134.31h31.05c25.5,0,38.55,11.1,38.55,31.2,0,13.35-6,22.8-16.65,27.75l18.9,48.15h-25.65l-15.3-42.45h-7.05v42.45h-23.85v-107.1ZM211.09,166.26c0-9.3-4.65-14.25-14.25-14.25h-7.65v28.95h7.8c9.75,0,14.1-5.1,14.1-14.7Z" fill="#fff"/>
        </g>
      </g>
    </g>
  </g>
</svg>