<?xml version="1.0" encoding="UTF-8"?>
<svg id="_Слой_2" data-name="Слой 2" xmlns="http://www.w3.org/2000/svg" viewBox="0 0 550.58 389.18">
  <g id="_Слой_1-2" data-name="Слой 1">
    <g>
      <g id="hu">
        <polygon points="7.71 265.19 18.31 282.55 29.48 292.38 34.19 307.18 49.01 312.64 56.59 326.14 68.98 335.46 82.68 343.1 94.75 352.97 102.74 360.12 112.29 364.32 122.11 375.61 137.17 371.28 149.56 383.52 162.48 387.17 175.84 384.04 188.91 389.18 201.17 382.75 215.78 384.24 226.77 375.21 237.42 367.79 251.83 357.5 263.33 349.25 283.23 342.11 299.75 328.8 312.13 323.22 326.61 322.73 341.14 317.31 358.58 318.52 371.75 318.31 384.91 316.3 398.61 309.36 410.36 297.58 422.11 295.08 435.96 292.95 439.52 278.72 443.39 266.46 450.17 254.77 453.66 244.77 457.17 234.06 465.42 224.68 468.97 213.41 471.26 198.81 471.19 184.56 470 172.16 472.43 159.86 485.74 149.01 486.95 132.54 494.82 115.9 500.1 104.51 506.04 92.43 520.46 84.13 533.8 77.62 547.31 74.05 550.58 61.3 544.98 49.09 535.06 38.79 525.49 33.22 512.74 32.5 503.62 24.11 491.09 20.72 480.61 18.17 461.6 21.47 448.51 17.57 433.22 14.18 424.3 0 409.92 8.3 395.52 12.46 385.52 10.84 369.65 15.9 353.3 11.13 346.5 23.7 338.66 34.67 333.18 46.22 319.33 60.93 311.37 68.58 300.67 72.04 284.32 72.22 269.48 72.87 257.7 85.14 245.47 89.78 231.26 90.59 220.63 102.22 207.32 108.32 210.33 122.3 209.15 131.93 195.3 137.62 180.92 140.73 166.21 143.91 150.95 143.28 133.39 143.26 118.61 135.4 104.65 126.58 87.43 122.24 77.01 120.38 69.85 126.27 62.79 136.68 65.84 147.81 60.41 158.95 47.33 160.94 34.52 156.86 22.86 162.04 27.97 167.16 33.23 180.63 31.21 190.73 21.23 198.02 20.36 206.91 22.12 223.37 24.65 239.68 14.69 251.85 0 259.82 7.57 272.4 7.71 265.19" fill="#020202"/>
      </g>
      <g>
        <g>
          <path d="M199.62,134.22h24.15v42.15h21.75v-42.15h24.15v107.1h-24.15v-45.9h-21.75v45.9h-24.15v-107.1Z" fill="#fff"/>
          <path d="M282.86,209.96v-75.75h24.15v77.25c0,7.8,4.05,13.05,12.15,13.05s12-5.25,12-12.9v-77.4h20.7l.15,75.6c0,20.4-12.15,33.3-34.05,33.3-23.7,0-35.1-12.6-35.1-33.15Z" fill="#fff"/>
        </g>
        <g>
          <polygon points="239.51 247.31 239.51 201.42 229.76 201.42 229.76 247.31 193.62 247.31 193.62 128.22 229.76 128.22 229.76 170.37 239.51 170.37 239.51 128.22 275.66 128.22 275.66 247.31 239.51 247.31"/>
          <path d="M317.96,249.11c-26.12,0-41.1-14.27-41.1-39.15v-81.75h36.15v83.25c0,6.21,3.11,7.05,6.15,7.05,4.15,0,6-2.13,6-6.9v-83.4h32.69l.16,81.59c0,24.25-15.35,39.31-40.05,39.31Z"/>
        </g>
        <g>
          <path d="M199.62,134.22h24.15v42.15h21.75v-42.15h24.15v107.1h-24.15v-45.9h-21.75v45.9h-24.15v-107.1Z" fill="#fff"/>
          <path d="M282.86,209.96v-75.75h24.15v77.25c0,7.8,4.05,13.05,12.15,13.05s12-5.25,12-12.9v-77.4h20.7l.15,75.6c0,20.4-12.15,33.3-34.05,33.3-23.7,0-35.1-12.6-35.1-33.15Z" fill="#fff"/>
        </g>
      </g>
    </g>
  </g>
</svg>