<?xml version="1.0" encoding="UTF-8"?>
<svg id="_Слой_2" data-name="Слой 2" xmlns="http://www.w3.org/2000/svg" viewBox="0 0 346.17 389.18">
  <g id="_Слой_1-2" data-name="Слой 1">
    <g>
      <g id="ie">
        <polygon points="343.55 153.5 346.17 162.04 331.12 168.56 336.08 181.16 332.45 197.03 339.22 210.79 335.74 222.17 335.04 231.95 329.68 241.7 329.1 256.5 331.36 268.46 327.48 279.74 322.09 291.15 316.03 301.81 310.12 312.63 303.94 323.34 296.43 333.15 288.27 342.32 282.86 351.36 280.66 362.04 270.02 358.73 261.14 354.29 249.71 354.1 239.12 356.02 232.06 353.3 218.69 354.3 207.54 349.83 198.66 356.33 185.58 364.08 173.36 363.52 164.35 369.47 151.19 374.89 143.61 363.81 136.89 372.56 129.46 384.2 120.99 385.37 112.12 386.76 100.54 388.49 88.78 386.71 77.3 385.47 65.5 386.07 56.19 389.18 54.49 382.38 50 379.22 39.24 382.64 28.55 381.7 35.53 373.38 46.46 367.78 54.82 360.53 41.78 358.27 31.69 356.21 21.66 358.49 11.46 357.03 19.11 351.22 25.26 347.22 40.83 345.05 54.23 341.2 36.99 340.61 25.3 342.69 9.11 343.74 3.74 335.6 0 326.67 6.72 321.33 13.75 312.73 27.46 311.41 41.19 311.71 48.66 304.76 38.74 303.15 32.51 305.94 27.64 302.11 19.99 296.95 11.9 292.61 9.56 289.8 21.85 282.7 32.45 285.09 43.47 285.35 50.76 292.92 55.89 289.81 50.22 282.24 50 273.01 62.4 269.41 75.07 263.18 85.88 265.61 97.04 266.25 108.01 268.7 119.34 268.25 130.55 269.06 135.13 268.03 133.4 265.18 123.43 260.23 121.72 256.55 115.26 256.8 100.28 265 92.82 263.45 86.43 259 78.7 254.98 67.56 253.06 57.14 254.45 62.35 253.72 72.24 246.81 87.46 241.22 93.16 234.52 100.3 229.26 97.49 225.28 106.45 212.3 117.37 208.31 130.07 209.07 140.12 201.5 139.48 197.73 137.41 198.08 128.22 194.46 116.84 196.35 106.2 192.15 97 186.63 97.32 177.04 95.37 167.63 83.05 164.58 70.56 162.97 62.43 154.03 62.57 143.85 73.48 141.34 78.69 140.68 83.67 134.81 95.03 126.49 104.01 128.22 112.97 125.05 115.19 112.89 101.61 112.52 97.48 112.99 99.48 112.43 103.31 104.09 102.98 91.31 103.18 80.71 94.87 80.09 94.8 78.37 94.98 70.55 106.15 64.72 118.92 67.03 131.69 67.42 143.95 70.69 151.32 85.46 161.22 85.92 171.35 82.42 182.97 87.99 190.76 98.54 193.03 90.86 194.43 78.98 205.6 77.38 216.5 75.95 224.53 70.81 232.97 66.64 225.18 58.21 214.67 57.88 207.48 54.91 198.73 47.09 196.21 39.26 207 34.76 218.18 37.63 218.51 33.37 225.54 32.25 227.25 25.69 226.25 16.15 219.64 10.9 223.71 6.35 234.89 .08 247.75 0 260.09 2.64 273.33 6.94 287.09 11.37 280.13 25.12 283.64 26.58 289.59 17.52 293.12 18 295.67 18.08 298.45 27.13 290.88 34.23 284.77 45.19 275.82 53.7 259.82 56.84 257.65 67.08 253.37 71.6 243.76 73.5 234.51 76.95 226.5 82.16 231.11 92.44 240.01 99.47 247 107.58 254.51 115.18 261.09 124.1 270.85 126.67 281 126.61 286.22 112.75 290.27 103.5 300.31 103.54 306.64 110.53 308.29 120.94 317.12 135.91 319.03 145.3 323.64 150.85 332.88 150.08 339.75 150.02 345.31 152.52 343.55 153.5" fill="#020202"/>
      </g>
      <g>
        <g>
          <path d="M126.29,134.22h24.15v107.1h-24.15v-107.1Z" fill="#fff"/>
          <path d="M164.39,134.22h57.3v18.15h-33.15v24h20.7v17.85h-20.7v28.95h35.25v18.15h-59.4v-107.1Z" fill="#fff"/>
        </g>
        <g>
          <rect x="120.29" y="128.22" width="36.15" height="119.1"/>
          <polygon points="158.39 247.31 158.39 128.22 227.69 128.22 227.69 158.37 194.54 158.37 194.54 170.37 215.24 170.37 215.24 200.22 194.54 200.22 194.54 217.16 229.79 217.16 229.79 247.31 158.39 247.31"/>
        </g>
        <g>
          <path d="M126.29,134.22h24.15v107.1h-24.15v-107.1Z" fill="#fff"/>
          <path d="M164.39,134.22h57.3v18.15h-33.15v24h20.7v17.85h-20.7v28.95h35.25v18.15h-59.4v-107.1Z" fill="#fff"/>
        </g>
      </g>
    </g>
  </g>
</svg>