<?xml version="1.0" encoding="UTF-8"?>
<svg id="_Слой_2" data-name="Слой 2" xmlns="http://www.w3.org/2000/svg" viewBox="0 0 339.8 389.05">
  <g id="_Слой_1-2" data-name="Слой 1">
    <g>
      <g>
        <polyline points="255.55 329.67 256.19 333.49 251.62 340.34 244.56 357.24 252.32 370.62 251.27 381.86 243.65 388.35 239.09 389.05 230.66 387.96 219.16 379.1 205.81 372.52 193.85 366.46 179.84 363.73 164.15 357.71 162.59 347.21 167.44 339.11 175.42 338.17 183.48 334.74 199.12 337.72 208.74 339.01 219.05 340.31 234.24 330.49 241.93 332.04 246.15 331.97 257.25 327.63" fill="#020202"/>
        <g>
          <polyline points="68.83 222.79 79.99 231.17 79.47 237.51 85.11 241.1 81.99 250.97 83.52 261.08 79.91 271.98 79.01 281.9 78.84 291.83 75.72 300.8 66.02 301.25 58.86 306.18 52.66 311.46 42.19 306.69 39.14 294.31 43.11 282.1 43.35 270.62 44.58 261.42 39.24 251.64 37.76 243.3 34.13 239.86 38.08 235.87 43.08 236.7 53.34 232.35 60.52 224.42 68.45 220.32" fill="#020202"/>
          <polygon points="180.88 21.81 182.04 25.82 182.78 31.2 186.1 38.34 185.81 42.31 192.29 50.35 190.12 53.22 188.89 49.38 181.18 47.76 172.56 53.82 163.08 57.03 153.7 61.88 148.61 68.56 150.77 75.77 152.12 88.63 153.48 97.75 155.59 106.06 164.73 118.68 178.98 125.13 188.41 135.75 197.52 146.48 198.23 160.75 205.52 173 218.16 180.46 227.83 188.27 237.19 191.58 247.26 191.98 256.49 188.88 263.92 195.17 262.14 207.92 272.51 213.17 283.52 217.15 295.61 218.52 307.76 225.08 316.94 232.38 324.21 238.87 333.28 243.68 339.8 251.09 331.29 263.45 326.31 258.1 317.98 246.52 304.46 243.58 295.41 246.55 287.67 251.35 285.17 260.49 284.35 269.48 295.52 277.75 301.96 285.33 301.42 294.56 295.03 301.88 287.39 312.19 284.61 320.35 277.98 332.47 266.77 342.28 260.13 334.24 267.34 326.28 267.34 314.05 272.91 307.6 270.95 297.89 266.15 288.78 261.6 279.68 255.83 265.42 240.09 262.22 232.24 245.18 221.88 242.16 220.43 241.59 214.31 239.15 207.88 235.56 198.58 225.32 194.36 222.93 182.28 220.04 173.16 220.39 163.83 210.69 156.1 203.95 147.86 197.11 144.29 190.36 130.47 180.01 121.05 177.03 112.77 162.29 105.24 159.41 101 154.07 99.24 142.93 96.18 136.5 91.16 120.89 81.35 115.9 71.48 108.03 60.52 104.18 48.56 104.12 40.57 113.06 31.72 119.56 23.71 121.82 21.03 115.54 11.22 107.55 5.1 107.7 3.63 94.66 2.16 84.28 0 74.91 5.81 67.29 7.23 60.75 1.28 49.59 11.52 42.64 22 41.39 33.58 40.15 41.84 31.17 51.51 31.28 59.07 42.68 63.8 45.24 66.12 35.15 70.94 26.44 78.47 26.84 90.06 29.53 88.83 28.74 92.43 25.28 93.69 22.02 97.89 16.19 109.1 9.87 124.64 5.24 139.87 0 147.53 8.16 157.61 16.64 170.58 18.3 181.11 20.96 180.88 21.81" fill="#020202"/>
        </g>
      </g>
      <g>
        <g>
          <path d="M120.62,134h24.15v107.1h-24.15v-107.1Z" fill="#fff"/>
          <path d="M177.02,152.14h-22.8v-18.15h69.45v18.15h-22.65v88.95h-24v-88.95Z" fill="#fff"/>
        </g>
        <g>
          <rect x="114.62" y="128" width="36.15" height="119.1"/>
          <polygon points="171.02 247.09 171.02 158.14 148.22 158.14 148.22 128 229.67 128 229.67 158.14 207.02 158.14 207.02 247.09 171.02 247.09"/>
        </g>
        <g>
          <path d="M120.62,134h24.15v107.1h-24.15v-107.1Z" fill="#fff"/>
          <path d="M177.02,152.14h-22.8v-18.15h69.45v18.15h-22.65v88.95h-24v-88.95Z" fill="#fff"/>
        </g>
      </g>
    </g>
  </g>
</svg>