<?xml version="1.0" encoding="UTF-8"?>
<svg id="_Слой_2" data-name="Слой 2" xmlns="http://www.w3.org/2000/svg" viewBox="0 0 496.28 389.18">
  <g id="_Слой_1-2" data-name="Слой 1">
    <g>
      <polygon points="187.57 336.58 189.88 333 200.72 332.09 211.71 341.55 219.98 347.1 229.78 350.21 240.47 348.2 249.14 356.09 256.47 365.98 254.77 375.62 259.73 383.62 268.49 387.9 279.94 389.18 290.96 385.11 301.87 380.82 311.4 373.61 320.61 376.75 336.78 383.59 343.59 373 352.54 362.75 363.97 361.7 372.01 359.08 368.94 349.46 371.45 340.72 383.74 336.46 395.53 329.45 395.38 320.89 401.78 311.5 412.17 306.38 423.06 306.06 431.47 309.3 428.15 319.31 435.51 320.74 445.78 319 449.26 309.49 448.2 299.39 433 294.32 422.36 290.12 429.76 279.85 431.85 268.62 434.57 257.49 434.13 253.35 428.88 240.2 426.44 226.1 430.65 219.74 430.15 209.28 437.36 202.52 445.19 195.55 456.39 182.63 454.17 173.46 455.39 163.56 467.71 157.19 479.81 158.68 487.61 152.88 489.16 140.06 494.39 133.25 496.28 129.49 481.67 127.44 466.83 132.56 468.92 122.12 470.31 108.91 473.35 95.4 469.63 81.6 456.93 81.35 447.14 73.86 437.74 67.75 426.06 64.44 416.98 57.22 410.75 46.66 401.65 39.36 391.24 33.77 379.21 32.15 369.21 26.71 358.57 27.44 347.8 28.85 337.09 29.85 327.37 28.43 317.9 21.52 314.07 9.55 305.73 0 295.95 3.25 285.54 9.75 281.66 21.08 277.11 33.47 261.59 28.31 247.21 33.38 234.29 37.09 224.51 32.67 214.55 29.21 200.25 33.32 186.22 37.81 170.16 33.61 164.91 43.12 157.54 45.95 148.62 39.52 140.73 39.05 127.2 45.8 114.09 46.32 101.03 48.08 88.02 45.46 75.26 47.82 65.8 54.02 55.92 59.26 45.67 63.97 35.35 68.86 25 74.21 19.17 84.53 13.56 93.6 14.12 104.98 8 109.6 .78 111.56 0 116.33 1.24 129.5 1.19 140.7 4.33 153.54 9.79 165.68 18.99 175.31 25.73 186.58 30.38 199.15 27.27 208.51 27.4 214.55 33.21 214.28 36.55 226.41 38.44 225.04 46.71 224.18 54.6 237.81 66.29 235.65 76.24 239.31 86.99 238.81 97.28 241.97 103.61 249.11 110.02 250.09 123.03 244.27 136.06 239.29 150.37 236.08 156.47 245.87 168.01 252.6 180.45 260.53 179.71 265.31 179.81 279.18 174.97 292.4 177.35 306.28 177.49 318.3 179.54 330.88 186.47 337.01 187.57 336.58" fill="#020202"/>
      <g>
        <g>
          <path d="M191.22,134.22h24.15v88.95h33v18.15h-57.15v-107.1Z" fill="#fff"/>
          <path d="M262.92,152.37h-22.8v-18.15h69.45v18.15h-22.65v88.95h-24v-88.95Z" fill="#fff"/>
        </g>
        <g>
          <polygon points="185.22 247.31 185.22 128.22 221.37 128.22 221.37 217.16 254.36 217.16 254.36 247.31 185.22 247.31"/>
          <polygon points="256.92 247.31 256.92 158.37 234.12 158.37 234.12 128.22 315.57 128.22 315.57 158.37 292.92 158.37 292.92 247.31 256.92 247.31"/>
        </g>
        <g>
          <path d="M191.22,134.22h24.15v88.95h33v18.15h-57.15v-107.1Z" fill="#fff"/>
          <path d="M262.92,152.37h-22.8v-18.15h69.45v18.15h-22.65v88.95h-24v-88.95Z" fill="#fff"/>
        </g>
      </g>
    </g>
  </g>
</svg>