<?xml version="1.0" encoding="UTF-8"?>
<svg id="_Слой_2" data-name="Слой 2" xmlns="http://www.w3.org/2000/svg" viewBox="0 0 645.71 389.18">
  <g id="_Слой_1-2" data-name="Слой 1">
    <g>
      <g id="lv">
        <polygon points="22.15 389.18 37.8 388.05 40.74 373.65 42.29 359.05 57.8 346.85 75.93 339.68 90.49 326.96 108.22 319.75 127.1 317.59 146.01 320.4 165.13 318.89 178.32 306.46 196.93 322.76 202.19 309.6 216.59 308.2 231.96 307.36 250.54 298.72 270.83 303.54 289.39 306.58 305.06 299.19 327.54 300.55 333.41 280.6 347.8 267.42 362.29 277.07 365.97 295 380.94 302.35 397.22 302.94 412.89 299.17 428.95 298.85 443.93 307.99 456.94 319.79 474.06 326.64 484.43 342.05 500.15 350.72 517.41 354.8 532.79 350.83 543.65 338.58 555.32 325.46 567.55 316.83 582.34 320.24 586.72 314.59 607.88 311.97 612.42 292.2 617.07 271.82 628.66 256.52 645.32 245.58 645.71 228.08 642.03 211.06 632.35 196.65 620.74 184.06 611.13 169.4 598.33 157.56 588.73 137.99 571.42 146.01 568.93 140.81 574.57 135.9 574.04 110.05 565.25 103.97 571.83 87.76 567.55 73.75 553.25 62.26 536.03 59.28 533.89 43.45 517.58 44.86 497.4 43.88 474.17 38.56 462.24 52.13 451.22 68.21 433.14 55.84 413.95 47.47 398.38 33.77 397.74 20.42 375.29 23.89 368.72 15.19 357.74 21.31 343.88 8.1 325.68 0 324.16 6.95 328.04 9.16 310.4 7.93 296.31 20.25 282.37 32.99 265.5 42.13 250.88 52.26 248.03 52.11 250.36 62.12 258.13 79.24 266.6 96.34 273.21 114.54 276.45 133.38 281.48 152.46 272.74 170.77 256.8 183.14 243.74 197.19 227.84 209.8 209.74 197.02 184.64 193.82 176.31 172.75 165.33 155.15 150.71 144.71 134.81 134.31 116.29 128.2 114.43 113.04 110.48 100.89 94.01 105.54 80.46 117.52 68.67 128.92 53.78 134.47 38.6 141.25 31 156.98 27.6 173.33 26.12 190.08 25.88 207.1 27.29 223.67 26.13 240.31 15.36 256.16 0 268.9 4.49 293.09 6.64 317.23 7.61 320.51 7.71 320.19 1.09 337.79 6.47 355.8 16.91 371.32 22.15 389.18" fill="#020202"/>
      </g>
      <g>
        <g>
          <path d="M263.68,134.22h24.15v88.95h33v18.15h-57.15v-107.1Z" fill="#fff"/>
          <path d="M311.08,134.22h24.6l16.35,74.55h.15l16.05-74.55h20.4l-25.95,107.1h-25.5l-26.1-107.1Z" fill="#fff"/>
        </g>
        <g>
          <polygon points="257.68 247.31 257.68 128.22 293.83 128.22 293.83 217.16 326.83 217.16 326.83 247.31 257.68 247.31"/>
          <polygon points="332.47 247.31 303.45 128.22 340.51 128.22 352.05 180.85 363.38 128.22 396.26 128.22 367.4 247.31 332.47 247.31"/>
        </g>
        <g>
          <path d="M263.68,134.22h24.15v88.95h33v18.15h-57.15v-107.1Z" fill="#fff"/>
          <path d="M311.08,134.22h24.6l16.35,74.55h.15l16.05-74.55h20.4l-25.95,107.1h-25.5l-26.1-107.1Z" fill="#fff"/>
        </g>
      </g>
    </g>
  </g>
</svg>