<?xml version="1.0" encoding="UTF-8"?>
<svg id="_Слой_2" data-name="Слой 2" xmlns="http://www.w3.org/2000/svg" viewBox="0 0 352.44 389.18">
  <g id="_Слой_1-2" data-name="Слой 1">
    <g>
      <polygon points="333.92 97.41 334.39 109.84 328.5 118.33 319.98 120.86 310.6 119.14 300.14 130.68 300.7 141.1 309.48 145.75 319.06 147.76 325.58 154.97 332.21 162.58 331.78 173.08 324.91 182.49 316.86 190.35 307.23 196.21 301.25 203.72 302.01 212.92 303.46 220.39 296.79 228.06 287.23 230.47 274.76 231.7 262.57 232.21 252.08 228.16 237.37 230.52 229.38 237.1 230.33 246.76 234.14 255.12 238 263.92 242.88 271.69 245.9 280.16 251.83 288.52 249.76 298.18 246.73 305.63 240.85 311.19 237.95 322.09 238.29 331.82 227.65 342.42 216.69 348.33 220.08 354.79 226.39 360.06 229.94 367.19 227.15 378.73 217.03 389.18 206.73 387.55 199.5 382.39 194.56 373.2 202.4 360.41 200.72 351.84 205.47 344.8 208 334.3 206.04 326.48 198.94 320.26 190.14 316.09 180.49 314.12 170.76 312.34 160.97 310.72 154.82 302.85 150.94 291.85 142.71 283.16 135.96 280.45 131.28 286.7 125.71 283.96 123.46 278.39 120.43 276.81 106.72 279.26 99.08 275.24 89.46 278.04 86.83 289.46 77.18 285.04 68.97 280.2 59.72 278.4 51.22 279.76 43.79 277.76 34.23 279.28 25 274.5 16.57 268.54 8.13 262.68 0 256.15 11.48 252.3 23.25 251.12 35.84 250.92 41.02 259.63 47.24 266.02 55.78 270.17 62.19 275.27 74.48 271.3 65.66 267.45 58.55 261.86 57.22 257.01 65.91 256.62 64.59 251.58 56.24 248.47 46.99 250.07 40.52 243.02 31.94 239.73 25.64 231.03 36.76 231.08 46.65 229.09 53.68 223.71 60.32 217.97 59.42 202.98 64.63 195.24 72.01 191.18 80.23 184.07 88.27 176.19 95.72 169.57 99.33 160.06 106.03 152.75 108.17 142.77 113.43 134.58 116.65 124.88 118.72 114.78 120.7 104.63 121.13 94.32 123.83 83.26 128.14 72.89 133.57 64.12 144.63 62.83 159.84 66.19 163.31 79.14 171.25 84.66 179.65 89.41 184.78 96.07 177.67 102.52 169.35 106.02 159.87 110.27 165.71 120.95 162.87 132.01 157.35 142.47 165.31 146.56 171.78 145.94 178.57 138.7 183.96 130.39 190.86 123.4 198.11 116.23 202.82 116.61 212.65 114.32 211.48 109.63 213.22 101.16 215.59 92.58 220.72 84.96 213.82 80.53 205.61 78.15 198.01 75.06 194.79 68.84 196.03 58.37 191.69 46.42 191.3 40.32 194.58 30.9 202.69 25.04 213.6 23.53 222.15 16.88 232.21 13.88 242.06 10.18 252.79 9.86 262.91 7.31 272.93 4.08 283.31 2.66 293.57 .28 304.12 1.65 313.44 0 320.99 5.52 326.71 14.1 332.62 22.02 336.56 31.52 345.3 37.26 351.58 38.56 351.98 47.15 352.44 56.08 345.44 64.07 345.15 74.27 339.15 82.26 336.4 89.66 335.21 97.64 333.92 97.41" fill="#020202"/>
      <g>
        <g>
          <path d="M107.75,134.22h28.5l21.3,54.15h.15l-.3-16.95v-37.2h20.7v107.1h-18.15l-32.1-78.9h-.15l.6,18.15v60.75h-20.55v-107.1Z" fill="#fff"/>
          <path d="M192.05,134.22h24.15v88.95h33v18.15h-57.15v-107.1Z" fill="#fff"/>
        </g>
        <g>
          <polygon points="155.91 247.31 134.29 194.19 134.29 247.31 101.75 247.31 101.75 128.22 140.33 128.22 151.39 156.34 151.39 128.22 184.09 128.22 184.09 247.31 155.91 247.31"/>
          <polygon points="186.05 247.31 186.05 128.22 222.2 128.22 222.2 217.16 255.19 217.16 255.19 247.31 186.05 247.31"/>
        </g>
        <g>
          <path d="M107.75,134.22h28.5l21.3,54.15h.15l-.3-16.95v-37.2h20.7v107.1h-18.15l-32.1-78.9h-.15l.6,18.15v60.75h-20.55v-107.1Z" fill="#fff"/>
          <path d="M192.05,134.22h24.15v88.95h33v18.15h-57.15v-107.1Z" fill="#fff"/>
        </g>
      </g>
    </g>
  </g>
</svg>