<?xml version="1.0" encoding="UTF-8"?>
<svg id="_Слой_2" data-name="Слой 2" xmlns="http://www.w3.org/2000/svg" viewBox="0 0 325.65 389.18">
  <g id="_Слой_1-2" data-name="Слой 1">
    <g>
      <g id="NO">
        <path d="M179.34,38.59l4.22,3.53-10.12,14.16-5.45-6.8,11.34-10.88ZM157.41,55.66l5.61,14.16-12.26,2.11,6.65-16.28ZM324.72,48.91l-23.83,27.1,4.6-15.94-2.4-7.12-15.67-14.19-17.07,5.37-6.44,9.5-3.3,23.48-10.1,13.73-13.61-7.32-6.63,5.41-11.43-2.43-9.87-19.25-12.51,8.22-8.17,23.45-19.92-7.02-5.78,20.2-7.41-4.65-14.98,22.43,3.45,12-12.27,17.94.76,5.75-11.77,5.48-.79,25.2-10.38,21.27,5.35,3.42-1.46,12.96-8.27-1.74-7.98,3.84-8.3,18.28,2.73,8.06-1.29,11.19,2.36,8.29-1.85,15.06,9.08,9.68-7.34,9.07,3.69,14.13-1.28,8.68-10.08,12.82,1.48,7.44-5.13,6.19-6.93-3.6-15.23,5.79-18.17,19.21-14.54,2.86-16.25-11.88-2.37-4.88,4.21-5.64-.11-9.62-8.93,3.11,2.17-10.24-2.32-4.75,1.56-18.53-2.44-3.52-1.52-26.08,7.59-16.01,10.26-8.13,11.65.24-3.45-9.72,13.67-3.68,3.72-12.38,16.26-2.52.14-6.8,10.73-15.88,8.26-7.61,1.56-6.65,10.14-8.1,1.41-11.7,8.81-13.77,1.61-16.18,20.66-30.77.55-10.22,6.48-8.65,9.37-4.41,7.35-14.48,9.25-5.99,8.9-12.45,2.4-11.3,8.74-3.08,2.58-6.72,10.91-4.92,13.7-.22,2.97-10.45,16.07-7.43,4.53,10.11,17.19-22.4,2.98-11.4,13.89,5.66,22.89-9.14,18.84,8.85,23.05,22.06-16.8,10.97,2.39,9.05,13.48-2.01Z"/>
      </g>
      <g>
        <g>
          <path d="M85.05,134.22h28.5l21.3,54.15h.15l-.3-16.95v-37.2h20.7v107.1h-18.15l-32.1-78.9h-.15l.6,18.15v60.75h-20.55v-107.1Z" fill="#fff"/>
          <path d="M166.2,187.77c0-35.25,14.1-55.35,38.7-55.35s38.85,20.1,38.85,55.35-14.1,55.35-38.85,55.35-38.7-20.1-38.7-55.35ZM218.1,187.77c0-27.6-3.75-37.95-13.2-37.95s-13.2,10.35-13.2,37.95,3.75,37.95,13.2,37.95,13.2-10.5,13.2-37.95Z" fill="#fff"/>
        </g>
        <g>
          <polygon points="133.21 247.31 111.6 194.19 111.6 247.31 79.05 247.31 79.05 128.22 117.64 128.22 128.7 156.34 128.7 128.22 161.4 128.22 161.4 247.31 133.21 247.31"/>
          <path d="M204.9,249.11c-27.99,0-44.7-22.93-44.7-61.35s16.71-61.35,44.7-61.35c14.18,0,25.81,5.88,33.62,17.01,7.45,10.62,11.23,25.54,11.23,44.34s-3.78,33.72-11.23,44.34c-7.81,11.13-19.43,17.01-33.62,17.01ZM204.9,155.82c-1.78,0-7.2,0-7.2,31.95,0,13.13.89,22.06,2.72,27.29,1.63,4.66,3.28,4.66,4.48,4.66s2.85,0,4.48-4.66c1.83-5.23,2.72-14.16,2.72-27.29,0-31.95-5.42-31.95-7.2-31.95Z"/>
        </g>
        <g>
          <path d="M85.05,134.22h28.5l21.3,54.15h.15l-.3-16.95v-37.2h20.7v107.1h-18.15l-32.1-78.9h-.15l.6,18.15v60.75h-20.55v-107.1Z" fill="#fff"/>
          <path d="M166.2,187.77c0-35.25,14.1-55.35,38.7-55.35s38.85,20.1,38.85,55.35-14.1,55.35-38.85,55.35-38.7-20.1-38.7-55.35ZM218.1,187.77c0-27.6-3.75-37.95-13.2-37.95s-13.2,10.35-13.2,37.95,3.75,37.95,13.2,37.95,13.2-10.5,13.2-37.95Z" fill="#fff"/>
        </g>
      </g>
    </g>
  </g>
</svg>