<?xml version="1.0" encoding="UTF-8"?>
<svg id="_Слой_2" data-name="Слой 2" xmlns="http://www.w3.org/2000/svg" viewBox="0 0 456.12 389.18">
  <g id="_Слой_1-2" data-name="Слой 1">
    <g>
      <polygon points="43.44 290.45 45.62 293.19 46.67 282.97 57.3 283.22 60.39 293.06 75.15 293.44 86.83 303.9 100.68 306.51 110.41 305.7 104.54 315 112.63 329.5 124.81 337.69 132.43 332.48 142.19 328.09 133.93 319.21 149.07 318.13 157.23 322.51 166.6 324.08 171.09 327.25 174.52 332.73 182.72 343.15 185.89 341.03 188.59 336.39 199.27 338.43 213.18 344.16 215.82 357.81 223.38 359.74 231.08 366.54 233.74 375.64 243.37 377.05 249.63 371.04 254.38 364.25 264.98 370.55 274.54 373.01 274.72 382.71 282.1 389.18 292.63 383.41 301.17 373.47 310.51 366.14 321.63 370.07 328.43 367.47 334.74 361.75 345.24 357 356.54 358.85 366.78 362.36 375.2 366.36 383.88 370.39 393.98 371.99 403.77 375.55 414.17 380.15 417.21 371.63 411.08 369.45 406.93 357.68 404.04 345.43 409.66 334.99 411.51 324.76 413.85 314.7 419.85 306.5 422.95 296.74 428.44 288.29 434.06 279.92 445.01 273.83 455.27 268.26 456.12 255.7 446.47 246.49 452.04 237.24 445.59 232.78 434.6 227.81 430 216.2 423.77 210.27 422.19 201.52 418.36 189.54 415.92 178.71 417.82 166.5 414.51 158.24 408.75 151.26 398.36 148.7 388.07 145.82 392.56 136.71 397.55 128.99 407.3 125.84 413.02 120.11 417.82 111.87 415.05 101.37 414.83 90.9 409.62 81.93 404.88 72.94 398.94 64.63 397.89 53.55 391.96 45.32 383.98 37.92 382.77 24.49 379.54 17.28 376.05 9.29 365.5 5.17 350.92 2.85 343.29 10.12 332.66 10.19 322.84 11.36 313.94 16.86 304 17.54 293.82 15.28 284.47 21.83 274.45 20.55 264.58 22.18 254.65 22.08 244.75 21.01 234.92 19.12 225.01 19.68 214.85 18.94 209.52 28.57 199.6 29.67 191.6 29.1 184.41 27.46 176.97 24.79 175.62 16.62 168.17 4.68 166.44 .49 156.2 3.6 144.51 0 135.08 6.89 123.98 9.97 116.58 19.45 106.05 24.05 97.3 29.5 87.71 33.57 79.82 41.3 81.26 49.44 67.08 52.4 57.1 52.47 48.02 55.37 40.31 61.72 31.2 64.46 22 67.21 11.25 76.26 .43 80.04 0 91.77 4.87 102.04 6.51 113.25 7.16 121.86 11.85 130 5.61 136.83 4.04 146.58 .59 154.94 10.68 161.56 21.66 169.47 22.76 183.48 23.75 195.78 27.97 203.72 26.87 212.58 25.03 226.53 31.91 233.59 35.92 243.34 41.5 250.96 41.6 262.37 44.72 272.94 40.08 283.28 45.77 288.83 43.44 290.45" fill="#020202"/>
      <g>
        <g>
          <path d="M162.51,134.22h29.4c26.1,0,39,11.1,39,33.3s-13.5,33-37.35,33h-7.2v40.8h-23.85v-107.1ZM206.91,167.22c0-10.2-4.65-15.15-14.4-15.15h-6.15v30.6h6.15c9.9,0,14.4-5.1,14.4-15.45Z" fill="#fff"/>
          <path d="M240.96,134.22h24.15v88.95h33v18.15h-57.15v-107.1Z" fill="#fff"/>
        </g>
        <g>
          <path d="M156.51,247.31v-119.1h35.4c37.19,0,45,21.37,45,39.3,0,24.78-15.8,39-43.35,39h-1.2v40.8h-35.85ZM192.51,176.67c7.14,0,8.4-3.05,8.4-9.45,0-7.73-2.83-9.15-8.4-9.15h-.15v18.6h.15Z"/>
          <polygon points="234.96 247.31 234.96 128.22 271.11 128.22 271.11 217.16 304.11 217.16 304.11 247.31 234.96 247.31"/>
        </g>
        <g>
          <path d="M162.51,134.22h29.4c26.1,0,39,11.1,39,33.3s-13.5,33-37.35,33h-7.2v40.8h-23.85v-107.1ZM206.91,167.22c0-10.2-4.65-15.15-14.4-15.15h-6.15v30.6h6.15c9.9,0,14.4-5.1,14.4-15.45Z" fill="#fff"/>
          <path d="M240.96,134.22h24.15v88.95h33v18.15h-57.15v-107.1Z" fill="#fff"/>
        </g>
      </g>
    </g>
  </g>
</svg>