<?xml version="1.0" encoding="UTF-8"?>
<svg id="_Слой_2" data-name="Слой 2" xmlns="http://www.w3.org/2000/svg" viewBox="0 0 234.98 389.37">
  <g id="_Слой_1-2" data-name="Слой 1">
    <g>
      <g id="pt">
        <polygon points="91.47 380.67 91.46 368.24 100.86 357.36 107.93 339.64 118.93 327.73 130.36 324.94 134.22 317.24 123.61 304.92 120.8 288.61 128.83 274.8 138.32 266.77 149.73 258.92 146.27 244.94 140.03 231.12 132.44 216.48 128.9 200.5 147.6 203.04 164.13 197.23 169.46 182.87 168.27 167.16 177.81 152.14 187.84 142.4 187.2 128.48 185.52 115.58 190.02 101.86 197.04 94.62 210.74 86.8 221.51 84.7 232.95 79.06 234.98 64.77 226 56.73 218.41 47.04 214.78 36.32 203.26 33.58 194.31 29.08 181.64 35.13 168.71 31.46 148.76 28 135.65 22.07 131.69 16.58 135.73 10.17 122.42 0 109.29 2.26 99.01 10.34 88.79 17.11 89.27 28.83 88.94 43.91 85.49 58.77 83.92 73.78 80.89 92.54 74.22 97.86 77.52 97.93 85.52 98.79 79.95 102.96 69.9 112.98 65.24 123.72 60.28 134.03 54.72 144.89 51.56 157.55 43.04 172.11 30.26 183.71 14.08 197.15 7.7 216.3 3.79 227.7 .61 237.73 0 249.51 4.45 261.48 16.43 261.95 28.83 262.22 41.82 269.05 35.55 275.11 30.11 267.4 27.65 270.34 24.47 287.71 17.38 298.64 15.07 312.19 15.58 320.61 14.29 338.65 5.55 351.53 3.98 367.96 11.79 372.8 23.1 373.34 33.72 380.29 44.94 385.31 57.58 387.61 73.46 389.37 92.77 381.65 91.47 380.67" fill="#020202"/>
      </g>
      <g>
        <g>
          <path d="M48.04,134.32h29.4c26.1,0,39,11.1,39,33.3s-13.5,33-37.35,33h-7.2v40.8h-23.85v-107.1ZM92.44,167.31c0-10.2-4.65-15.15-14.4-15.15h-6.15v30.6h6.15c9.9,0,14.4-5.1,14.4-15.45Z" fill="#fff"/>
          <path d="M144.79,152.47h-22.8v-18.15h69.45v18.15h-22.65v88.95h-24v-88.95Z" fill="#fff"/>
        </g>
        <g>
          <path d="M42.04,247.41v-119.1h35.4c37.19,0,45,21.37,45,39.3,0,24.78-15.8,39-43.35,39h-1.2v40.8h-35.85ZM78.04,176.76c7.14,0,8.4-3.05,8.4-9.45,0-7.73-2.83-9.15-8.4-9.15h-.15v18.6h.15Z"/>
          <polygon points="138.79 247.41 138.79 158.47 115.99 158.47 115.99 128.32 197.44 128.32 197.44 158.47 174.79 158.47 174.79 247.41 138.79 247.41"/>
        </g>
        <g>
          <path d="M48.04,134.32h29.4c26.1,0,39,11.1,39,33.3s-13.5,33-37.35,33h-7.2v40.8h-23.85v-107.1ZM92.44,167.31c0-10.2-4.65-15.15-14.4-15.15h-6.15v30.6h6.15c9.9,0,14.4-5.1,14.4-15.45Z" fill="#fff"/>
          <path d="M144.79,152.47h-22.8v-18.15h69.45v18.15h-22.65v88.95h-24v-88.95Z" fill="#fff"/>
        </g>
      </g>
    </g>
  </g>
</svg>