<?xml version="1.0" encoding="UTF-8"?>
<svg id="_Слой_2" data-name="Слой 2" xmlns="http://www.w3.org/2000/svg" viewBox="0 0 525.58 389.18">
  <g id="_Слой_1-2" data-name="Слой 1">
    <g>
      <g id="ro">
        <polygon points="486.97 323.16 477.69 329.93 465.92 327.34 455.8 322.68 444.98 322.51 432.72 320.85 418.24 322.86 406.19 317.59 392.52 319.29 378.98 322.96 368.18 330.18 357.01 336.63 349.41 347.16 337.43 362.51 325.5 371.25 312.48 375.89 298.37 377.89 283.99 379.18 269.52 376.03 251.11 384.93 238.91 389.18 224.33 386.62 209.98 382.57 195.19 385.26 179.78 388.72 169.39 385.41 168.9 371.06 153.49 361.45 143.38 356.84 138.29 346.49 145.16 335.5 133.03 323.31 121.25 323.19 122.4 333.78 112.26 341.66 103.42 337.59 92.54 339.02 79.52 334.16 74.07 328.35 70.45 329.87 72.44 327.65 76.12 320.71 74.94 311.18 72.05 298.82 60.42 292.68 45.9 289.98 34.64 280.35 27.27 266.47 17 255.6 0 241.87 3.96 232.37 13.13 225.34 24.52 221.5 36.96 214.62 47.02 199.1 48.06 184.57 56.44 172.87 62.33 156.64 63.06 144.69 66.79 128.15 76.97 114 79.93 102.51 85.57 91.36 97.36 86.27 107 77.27 117.65 60.55 124.82 56.68 141.77 57.74 157.85 57.65 176.9 56.55 188.44 55.45 199.79 54.64 213.5 55.8 226.11 61.92 238.21 45.3 253.55 37.42 269.45 33.3 285.93 29.12 289.28 13.62 300.06 3.1 313.06 0 323.9 7.09 334.94 18.89 344.57 32.28 357.96 48.74 370.36 55.03 379.05 65.92 389.07 75.02 400.39 82.69 409.58 92.74 414.84 105.25 420.68 117.6 418.33 130.95 419.26 144.28 422.36 157.27 426.93 167.11 431.11 177.42 431.89 194.37 445.15 200.77 455.2 207.29 467.74 208.63 475.88 201.84 493.32 191.68 507.52 184.67 518.65 194.58 525.58 210.2 522.74 226.4 505.92 236.15 499.03 242.61 498.51 244.77 498.37 241.86 492.75 230.5 488.31 232.14 489.76 240.9 488.44 249.02 490.39 248.79 494.88 254.57 488.74 271.53 487.18 290.01 487.66 307.28 487.97 323.6 486.97 323.16" fill="#020202"/>
      </g>
      <g>
        <g>
          <path d="M186.44,134.22h31.05c25.5,0,38.55,11.1,38.55,31.2,0,13.35-6,22.8-16.65,27.75l18.9,48.15h-25.65l-15.3-42.45h-7.05v42.45h-23.85v-107.1ZM232.19,166.17c0-9.3-4.65-14.25-14.25-14.25h-7.65v28.95h7.8c9.75,0,14.1-5.1,14.1-14.7Z" fill="#fff"/>
          <path d="M264.74,187.77c0-35.25,14.1-55.35,38.7-55.35s38.85,20.1,38.85,55.35-14.1,55.35-38.85,55.35-38.7-20.1-38.7-55.35ZM316.64,187.77c0-27.6-3.75-37.95-13.2-37.95s-13.2,10.35-13.2,37.95,3.75,37.95,13.2,37.95,13.2-10.5,13.2-37.95Z" fill="#fff"/>
        </g>
        <g>
          <path d="M228.42,247.31l-12.13-33.67v33.67h-35.85v-119.1h37.05c28.31,0,44.55,13.56,44.55,37.2,0,13.28-5.33,23.89-15.16,30.42l20.21,51.48h-38.66ZM218.09,174.87c6.85,0,8.1-2.93,8.1-8.7,0-6.17-2.08-8.25-8.25-8.25h-1.65v16.95h1.8Z"/>
          <path d="M303.44,249.11c-27.99,0-44.7-22.93-44.7-61.35s16.71-61.35,44.7-61.35c14.18,0,25.81,5.88,33.62,17.01,7.45,10.62,11.23,25.54,11.23,44.34s-3.78,33.72-11.23,44.34c-7.81,11.13-19.43,17.01-33.62,17.01ZM303.44,155.82c-1.78,0-7.2,0-7.2,31.95,0,13.13.89,22.06,2.72,27.29,1.63,4.66,3.28,4.66,4.48,4.66s2.85,0,4.48-4.66c1.83-5.23,2.72-14.16,2.72-27.29,0-31.95-5.42-31.95-7.2-31.95Z"/>
        </g>
        <g>
          <path d="M186.44,134.22h31.05c25.5,0,38.55,11.1,38.55,31.2,0,13.35-6,22.8-16.65,27.75l18.9,48.15h-25.65l-15.3-42.45h-7.05v42.45h-23.85v-107.1ZM232.19,166.17c0-9.3-4.65-14.25-14.25-14.25h-7.65v28.95h7.8c9.75,0,14.1-5.1,14.1-14.7Z" fill="#fff"/>
          <path d="M264.74,187.77c0-35.25,14.1-55.35,38.7-55.35s38.85,20.1,38.85,55.35-14.1,55.35-38.85,55.35-38.7-20.1-38.7-55.35ZM316.64,187.77c0-27.6-3.75-37.95-13.2-37.95s-13.2,10.35-13.2,37.95,3.75,37.95,13.2,37.95,13.2-10.5,13.2-37.95Z" fill="#fff"/>
        </g>
      </g>
    </g>
  </g>
</svg>