<?xml version="1.0" encoding="UTF-8"?>
<svg id="_Слой_2" data-name="Слой 2" xmlns="http://www.w3.org/2000/svg" viewBox="0 0 313.81 389.48">
  <g id="_Слой_1-2" data-name="Слой 1">
    <g>
      <g id="sr">
        <polygon points="121.1 338.45 139.1 355.39 154.59 361.11 162.42 385.93 174.14 389.48 181.56 376.58 197.41 367.94 214.22 363.09 223.64 353.61 240.26 345.67 249.2 343.13 263.59 336.58 279.81 334.81 288.92 322.53 285.59 307.4 285.29 291.62 289.15 278.47 294.77 275.74 313.81 258.34 309.14 240.96 289.24 230.06 270.02 217.25 262.12 199.41 263.13 180.04 271.99 168.73 273.1 154.23 264.02 139.4 271.26 125.03 269.11 115.15 246.5 109.36 241.79 116.08 235.85 128.77 218.74 121.3 203.22 124.42 187.74 115.18 182.29 111.45 176.61 107.36 185.31 102.87 184.84 91.38 177.93 87.54 174.35 70.87 159.18 72.47 147.38 63.76 127.59 49.63 126.69 29.38 109.78 19.95 96.71 13.65 88.43 0 63.72 2.03 49.09 1.88 35.64 5.99 24.77 14.96 11.49 26.21 0 35.52 6.88 50.19 4.26 61.45 11.3 70.22 9.23 77.69 22.13 83.2 36.3 93.68 34.21 92.52 20.6 114.1 23.3 127.98 33.78 126.56 37.67 144.37 36.24 159.89 33.46 173.64 41.7 187.06 55.66 194.5 63.28 206.37 52.52 210.2 45.27 212.3 63.58 229.36 75.14 248.26 94.01 258.21 107.56 269.19 113 284.92 125.23 295.71 128.84 305.87 122.36 313.23 121.36 326.55 118.91 338.48 121.1 338.45" fill="#020202"/>
      </g>
      <g>
        <g>
          <path d="M85.95,134.37h31.05c25.5,0,38.55,11.1,38.55,31.2,0,13.35-6,22.8-16.65,27.75l18.9,48.15h-25.65l-15.3-42.45h-7.05v42.45h-23.85v-107.1ZM131.7,166.32c0-9.3-4.65-14.25-14.25-14.25h-7.65v28.95h7.8c9.75,0,14.1-5.1,14.1-14.7Z" fill="#fff"/>
          <path d="M163.05,212.67l21.45-4.2c1.05,11.1,6.3,17.85,13.95,17.85,6.15,0,10.35-4.5,10.35-11.4,0-6-3.3-10.8-10.2-15l-14.1-8.7c-12.9-7.95-18.75-16.95-18.75-29.1,0-17.7,12.75-29.55,31.95-29.55,17.25,0,29.4,9.45,32.4,24.75l-19.8,6.15c-1.5-9-5.7-13.95-12.15-13.95-5.85,0-9.9,4.05-9.9,9.9s3.3,9,12.75,14.55l12.9,7.65c12.15,7.2,17.85,17.1,17.85,29.7,0,19.35-13.8,31.95-34.35,31.95s-32.85-12-34.35-30.6Z" fill="#fff"/>
        </g>
        <g>
          <path d="M127.94,247.47l-12.13-33.67v33.67h-35.85v-119.1h37.05c28.31,0,44.55,13.56,44.55,37.2,0,13.28-5.34,23.89-15.16,30.42l20.21,51.48h-38.66ZM117.6,175.02c6.85,0,8.1-2.93,8.1-8.7,0-6.17-2.08-8.25-8.25-8.25h-1.65v16.95h1.8Z"/>
          <path d="M197.4,249.27c-22.73,0-38.56-14.18-40.33-36.12l-.43-5.34,32.89-6.44-8.18-5.05c-14.73-9.08-21.6-19.95-21.6-34.2,0-20.93,15.61-35.55,37.95-35.55,20.04,0,34.71,11.34,38.29,29.59l1.04,5.29-29.77,9.25,9.71,5.76c13.79,8.17,20.79,19.9,20.79,34.86,0,22.7-16.21,37.95-40.35,37.95ZM190.48,207.9c.28,2.91,1.66,12.41,7.98,12.41,3.59,0,4.35-2.94,4.35-5.4s-.83-5.93-7.32-9.87l-5.6-3.46.6,6.32ZM198.15,155.52c-2.55,0-3.9,1.35-3.9,3.9,0,1.78,0,3.63,9.79,9.38l1.18.7-.84-5.04c-.99-5.93-3.08-8.94-6.23-8.94Z"/>
        </g>
        <g>
          <path d="M85.95,134.37h31.05c25.5,0,38.55,11.1,38.55,31.2,0,13.35-6,22.8-16.65,27.75l18.9,48.15h-25.65l-15.3-42.45h-7.05v42.45h-23.85v-107.1ZM131.7,166.32c0-9.3-4.65-14.25-14.25-14.25h-7.65v28.95h7.8c9.75,0,14.1-5.1,14.1-14.7Z" fill="#fff"/>
          <path d="M163.05,212.67l21.45-4.2c1.05,11.1,6.3,17.85,13.95,17.85,6.15,0,10.35-4.5,10.35-11.4,0-6-3.3-10.8-10.2-15l-14.1-8.7c-12.9-7.95-18.75-16.95-18.75-29.1,0-17.7,12.75-29.55,31.95-29.55,17.25,0,29.4,9.45,32.4,24.75l-19.8,6.15c-1.5-9-5.7-13.95-12.15-13.95-5.85,0-9.9,4.05-9.9,9.9s3.3,9,12.75,14.55l12.9,7.65c12.15,7.2,17.85,17.1,17.85,29.7,0,19.35-13.8,31.95-34.35,31.95s-32.85-12-34.35-30.6Z" fill="#fff"/>
        </g>
      </g>
    </g>
  </g>
</svg>