<?xml version="1.0" encoding="UTF-8"?>
<svg id="_Слой_2" data-name="Слой 2" xmlns="http://www.w3.org/2000/svg" viewBox="0 0 150.71 389.18">
  <g id="_Слой_1-2" data-name="Слой 1">
    <g>
      <polygon points="26.46 374.68 19.03 373.18 22.59 370.13 30.61 367.37 31.21 362.78 28.54 354.77 24.48 344.09 15.74 333.83 7.68 321.62 10.4 311.23 8.12 304.97 1.37 292.53 6.94 289.07 7.83 276.44 13.9 267.09 21.18 255.59 19.51 243.83 17.95 234.68 20.7 220.51 17.61 211.15 10.61 198.68 7.8 181.25 9.85 169.95 10.78 166.63 12.78 149.24 29.96 147.37 33.49 139.19 33.65 127.75 37.39 113.71 38.41 97.91 46.03 81.89 53.6 69.79 50.67 60.17 59.6 54.35 56.38 46.77 57.32 35.26 68.54 24.65 69.22 16.65 89.82 17.1 93.86 14.54 88.97 3.58 96.13 0 107.98 2.83 121.7 10.75 133.57 22.17 136.68 28.8 135.02 38.5 142.21 51.58 142.56 64.85 150.2 76.23 147.2 82.18 139.06 80.16 125.93 85.49 126.27 90.67 123.36 96.08 127.45 104.5 120.52 115.65 125.27 127.98 116.77 143.2 108.25 151.52 109.59 156.81 101.5 159.06 101.36 163.36 100 163.83 96 163.01 92.83 172.68 87.64 180.02 83.78 183.39 88.74 192.11 82.06 201.54 85.96 206.75 82.88 210.89 80.96 218.69 85.88 234.63 96.03 238.93 103.66 243.55 104.25 244.23 112.33 261.2 101.2 266.88 94.86 264.15 92.47 270.79 85.12 270.93 75.06 269.21 86.07 274.25 92.08 275.38 104.31 271.84 109.57 280.12 102.84 287.33 99.37 281.74 95.81 279.58 93.51 295.08 84.6 297.98 88.63 300.13 83.54 308.26 89.97 320.09 89.62 328.29 90.62 336.52 86.09 354.49 76.1 364.51 64.86 371.77 54.55 377.03 55.43 384.19 44.71 389.18 34.84 387.46 27.86 380.07 28.7 378.09 26.46 374.68" fill="#020202"/>
      <g>
        <g>
          <path d="M6.41,212.51l21.45-4.2c1.05,11.1,6.3,17.85,13.95,17.85,6.15,0,10.35-4.5,10.35-11.4,0-6-3.3-10.8-10.2-15l-14.1-8.7c-12.9-7.95-18.75-16.95-18.75-29.1,0-17.7,12.75-29.55,31.95-29.55,17.25,0,29.4,9.45,32.4,24.75l-19.8,6.15c-1.5-9-5.7-13.95-12.15-13.95-5.85,0-9.9,4.05-9.9,9.9s3.3,9,12.75,14.55l12.9,7.65c12.15,7.2,17.85,17.1,17.85,29.7,0,19.35-13.8,31.95-34.35,31.95s-32.85-12-34.35-30.6Z" fill="#fff"/>
          <path d="M85.31,134.22h57.3v18.15h-33.15v24h20.7v17.85h-20.7v28.95h35.25v18.15h-59.4v-107.1Z" fill="#fff"/>
        </g>
        <g>
          <path d="M40.76,249.11c-22.73,0-38.56-14.18-40.33-36.12l-.43-5.34,32.89-6.44-8.18-5.05c-14.73-9.08-21.6-19.95-21.6-34.2,0-20.93,15.61-35.55,37.95-35.55,20.04,0,34.71,11.34,38.29,29.59l1.04,5.29-29.77,9.25,9.71,5.76c13.79,8.17,20.79,19.9,20.79,34.86,0,22.7-16.21,37.95-40.35,37.95ZM33.83,207.75c.28,2.91,1.67,12.41,7.98,12.41,3.6,0,4.35-2.94,4.35-5.4s-.83-5.93-7.32-9.87l-5.6-3.46.6,6.32ZM41.51,155.37c-2.55,0-3.9,1.35-3.9,3.9,0,1.78,0,3.63,9.79,9.38l1.18.7-.84-5.04c-.99-5.93-3.08-8.94-6.23-8.94Z"/>
          <polygon points="79.31 247.31 79.31 128.22 148.61 128.22 148.61 158.37 115.46 158.37 115.46 170.37 136.16 170.37 136.16 200.22 115.46 200.22 115.46 217.16 150.71 217.16 150.71 247.31 79.31 247.31"/>
        </g>
        <g>
          <path d="M6.41,212.51l21.45-4.2c1.05,11.1,6.3,17.85,13.95,17.85,6.15,0,10.35-4.5,10.35-11.4,0-6-3.3-10.8-10.2-15l-14.1-8.7c-12.9-7.95-18.75-16.95-18.75-29.1,0-17.7,12.75-29.55,31.95-29.55,17.25,0,29.4,9.45,32.4,24.75l-19.8,6.15c-1.5-9-5.7-13.95-12.15-13.95-5.85,0-9.9,4.05-9.9,9.9s3.3,9,12.75,14.55l12.9,7.65c12.15,7.2,17.85,17.1,17.85,29.7,0,19.35-13.8,31.95-34.35,31.95s-32.85-12-34.35-30.6Z" fill="#fff"/>
          <path d="M85.31,134.22h57.3v18.15h-33.15v24h20.7v17.85h-20.7v28.95h35.25v18.15h-59.4v-107.1Z" fill="#fff"/>
        </g>
      </g>
    </g>
  </g>
</svg>