<?xml version="1.0" encoding="UTF-8"?>
<svg id="_Слой_2" data-name="Слой 2" xmlns="http://www.w3.org/2000/svg" viewBox="0 0 565.6 389.18">
  <g id="_Слой_1-2" data-name="Слой 1">
    <g>
      <g id="si">
        <polygon points="565.6 90.78 534.92 90.49 509.59 87.27 506.26 99.3 506.25 124.26 472.24 119.41 472.19 137.07 450.31 152.15 426.67 162.86 405.12 174.5 400.18 196.26 415.81 217.89 422 244.35 417.56 270.3 398.18 283.1 373.13 284.14 357.72 278.89 346.83 299.28 369.51 317.56 349.33 331.86 356.73 351.08 358.11 368.73 336.54 376.01 313.68 365.18 288.58 359.07 289.18 371.76 267.84 370.62 245.23 357.92 232.44 334.48 217.89 322.28 212.36 341.12 206.62 358.22 189.48 375.41 164.56 376.11 141.42 371.61 118.37 367.79 120.8 384.99 95.74 386.86 71.98 389.18 49.79 381.23 49.99 378.57 65.56 367.31 76.16 351.06 104.73 350.85 89.53 327.8 69.14 311.52 49.03 294.02 41.05 274.68 49.96 255.08 32.26 254.78 21.29 246.03 43.32 226.03 54.69 200.51 33.87 192.84 12.8 192.12 0 175.06 16.68 160.96 31.7 144.16 46.92 130.45 56.13 114.02 54.82 114.21 73.72 113.89 91.47 120.68 113.89 129.3 138.22 132.93 160.51 129.03 183.79 130.31 208.91 146.16 213.6 129.01 234.49 121.64 249.28 105.23 258.53 81.82 278.79 74.43 300.03 74.77 323.43 71.69 345.38 80.84 366.38 70.23 379.59 59.02 392.27 44.73 415.55 46.13 437.53 53.44 462 55.76 451.99 36.62 456.31 13.61 476.28 4.74 499.03 0 510.18 17.06 518.4 38.48 534.79 55.21 545.33 75.66 565.6 90.78" fill="#020202"/>
      </g>
      <g>
        <g>
          <path d="M229.18,212.52l21.45-4.2c1.05,11.1,6.3,17.85,13.95,17.85,6.15,0,10.35-4.5,10.35-11.4,0-6-3.3-10.8-10.2-15l-14.1-8.7c-12.9-7.95-18.75-16.95-18.75-29.1,0-17.7,12.75-29.55,31.95-29.55,17.25,0,29.4,9.45,32.4,24.75l-19.8,6.15c-1.5-9-5.7-13.95-12.15-13.95-5.85,0-9.9,4.05-9.9,9.9s3.3,9,12.75,14.55l12.9,7.65c12.15,7.2,17.85,17.1,17.85,29.7,0,19.35-13.8,31.95-34.35,31.95s-32.85-12-34.35-30.6Z" fill="#fff"/>
          <path d="M308.08,134.22h24.15v107.1h-24.15v-107.1Z" fill="#fff"/>
        </g>
        <g>
          <path d="M263.53,249.11c-22.73,0-38.56-14.18-40.33-36.12l-.43-5.34,32.89-6.44-8.18-5.04c-14.74-9.08-21.6-19.95-21.6-34.2,0-20.93,15.61-35.55,37.95-35.55,20.04,0,34.71,11.34,38.29,29.59l1.04,5.29-29.77,9.25,9.71,5.76c13.79,8.17,20.79,19.9,20.79,34.86,0,22.7-16.21,37.95-40.35,37.95ZM256.6,207.75c.28,2.91,1.66,12.41,7.98,12.41,3.59,0,4.35-2.94,4.35-5.4s-.83-5.93-7.32-9.88l-5.6-3.46.6,6.32ZM264.28,155.37c-2.55,0-3.9,1.35-3.9,3.9,0,1.78,0,3.63,9.79,9.38l1.18.7-.84-5.04c-.99-5.93-3.08-8.94-6.23-8.94Z"/>
          <rect x="302.08" y="128.22" width="36.15" height="119.1"/>
        </g>
        <g>
          <path d="M229.18,212.52l21.45-4.2c1.05,11.1,6.3,17.85,13.95,17.85,6.15,0,10.35-4.5,10.35-11.4,0-6-3.3-10.8-10.2-15l-14.1-8.7c-12.9-7.95-18.75-16.95-18.75-29.1,0-17.7,12.75-29.55,31.95-29.55,17.25,0,29.4,9.45,32.4,24.75l-19.8,6.15c-1.5-9-5.7-13.95-12.15-13.95-5.85,0-9.9,4.05-9.9,9.9s3.3,9,12.75,14.55l12.9,7.65c12.15,7.2,17.85,17.1,17.85,29.7,0,19.35-13.8,31.95-34.35,31.95s-32.85-12-34.35-30.6Z" fill="#fff"/>
          <path d="M308.08,134.22h24.15v107.1h-24.15v-107.1Z" fill="#fff"/>
        </g>
      </g>
    </g>
  </g>
</svg>