<?xml version="1.0" encoding="UTF-8"?>
<svg id="_Слой_2" data-name="Слой 2" xmlns="http://www.w3.org/2000/svg" viewBox="0 0 707.36 389.18">
  <g id="_Слой_1-2" data-name="Слой 1">
    <g>
      <g id="sk">
        <polygon points="702.97 51.49 707.36 62.87 703.04 74.72 698.6 85.19 699.17 96.76 697.14 112.88 691.79 128.55 685.49 139.08 675.87 146.88 673.59 163.76 677.82 180.18 668.38 192.9 653.26 196.11 637.57 199.27 621.12 200.24 612.62 187.03 604.82 174.23 591.62 169.16 576.45 168.16 564.88 178.94 550.47 185.42 534.92 187.54 521.81 183.86 508.38 182.2 494.95 180.71 482.39 184.96 469.24 189.85 465.96 205.82 460.71 220.7 458.73 236.34 448.03 246.61 437.17 248.39 426.72 255 417.97 264.97 413.01 275.82 397.9 276.9 385.73 274.13 374.75 267.52 361.95 265.81 352.78 274.22 348.92 286.81 343.85 297.87 333.23 305.76 320.2 308.2 306.98 307.14 294.01 308.77 280.74 309.73 266.81 319.42 262.56 333.7 265.82 345.65 273.83 356.44 263.33 363.51 252.6 368.67 241.57 373.94 227.95 375.76 214.41 377.69 201.46 382.8 187.43 381.8 174.07 384.54 160.7 388.83 146.71 389.18 133.18 385.99 118.36 381.08 106.95 370.45 93.55 362.48 82.43 351.15 68.59 343.6 49.43 341.27 39.96 332.73 31.84 323.53 23.11 314.38 17.18 303.14 9.59 293.12 6.28 281.9 0 271.04 6.11 258.09 12.4 245.67 13 228.44 18.14 213.12 26.19 199.2 37.99 188.86 51.92 180.91 67.42 184.36 82.9 183.46 97.7 178.3 113.26 174.98 124.55 163.49 127.43 151.58 135.44 143.13 149.03 129.66 151.9 115.9 155.16 102.25 162.87 90.1 166.92 76.4 178.23 67.74 188.75 58.48 200.18 50.29 213.52 45.42 224.48 35.82 235.77 34.95 246.18 36.32 251.41 45.79 259.22 55.4 273.27 48.88 282.01 36.69 291.22 24.81 301.25 14.01 313.04 13.56 318.25 22.79 327.51 31.57 342.57 39.78 354.38 43.4 359.87 58.8 360.01 73.26 371.26 72.32 378.41 73.45 392.96 76.12 397.68 67.06 408.38 55.16 416.89 42.42 427.08 31.03 442.92 27.66 451.52 28.94 462.02 26.17 472.97 23.5 482 30.22 491.53 35.36 503.49 34.67 512.47 26.84 513.4 16.04 516.74 12.9 529.65 8.38 545.43 4.5 558.55 0 572.38 .85 585.99 2.73 600.11 1.25 612.99 6.81 625.28 12.71 632.86 22.33 642.08 30.48 659.57 40.19 674.58 44.48 690.53 44.27 703.43 50.86 702.97 51.49" fill="#020202"/>
      </g>
      <g>
        <g>
          <path d="M277.63,212.51l21.45-4.2c1.05,11.1,6.3,17.85,13.95,17.85,6.15,0,10.35-4.5,10.35-11.4,0-6-3.3-10.8-10.2-15l-14.1-8.7c-12.9-7.95-18.75-16.95-18.75-29.1,0-17.7,12.75-29.55,31.95-29.55,17.25,0,29.4,9.45,32.4,24.75l-19.8,6.15c-1.5-9-5.7-13.95-12.15-13.95-5.85,0-9.9,4.05-9.9,9.9s3.3,9,12.75,14.55l12.9,7.65c12.15,7.2,17.85,17.1,17.85,29.7,0,19.35-13.8,31.95-34.35,31.95s-32.85-12-34.35-30.6Z" fill="#fff"/>
          <path d="M356.53,134.22h23.4v28.2l-.75,18.3h.15l28.05-46.5h22.2l-25.5,40.8,27.3,66.3h-25.2l-17.1-45-9.15,15.9v29.1h-23.4v-107.1Z" fill="#fff"/>
        </g>
        <g>
          <path d="M311.98,249.11c-22.73,0-38.56-14.18-40.33-36.12l-.43-5.34,32.89-6.44-8.18-5.05c-14.73-9.08-21.6-19.95-21.6-34.2,0-20.93,15.61-35.55,37.95-35.55,20.04,0,34.71,11.34,38.29,29.59l1.04,5.29-29.77,9.25,9.71,5.76c13.79,8.17,20.79,19.9,20.79,34.86,0,22.7-16.21,37.95-40.35,37.95ZM305.05,207.75c.28,2.91,1.66,12.41,7.98,12.41,3.6,0,4.35-2.94,4.35-5.4s-.83-5.93-7.32-9.87l-5.6-3.46.6,6.32ZM312.73,155.37c-2.55,0-3.9,1.35-3.9,3.9,0,1.78,0,3.63,9.79,9.38l1.18.7-.84-5.04c-.99-5.93-3.08-8.94-6.23-8.94Z"/>
          <polygon points="402.04 247.31 387.97 210.28 385.93 213.82 385.93 247.31 350.53 247.31 350.53 128.22 385.93 128.22 385.93 158.16 403.99 128.22 440.4 128.22 410.8 175.58 440.34 247.31 402.04 247.31"/>
        </g>
        <g>
          <path d="M277.63,212.51l21.45-4.2c1.05,11.1,6.3,17.85,13.95,17.85,6.15,0,10.35-4.5,10.35-11.4,0-6-3.3-10.8-10.2-15l-14.1-8.7c-12.9-7.95-18.75-16.95-18.75-29.1,0-17.7,12.75-29.55,31.95-29.55,17.25,0,29.4,9.45,32.4,24.75l-19.8,6.15c-1.5-9-5.7-13.95-12.15-13.95-5.85,0-9.9,4.05-9.9,9.9s3.3,9,12.75,14.55l12.9,7.65c12.15,7.2,17.85,17.1,17.85,29.7,0,19.35-13.8,31.95-34.35,31.95s-32.85-12-34.35-30.6Z" fill="#fff"/>
          <path d="M356.53,134.22h23.4v28.2l-.75,18.3h.15l28.05-46.5h22.2l-25.5,40.8,27.3,66.3h-25.2l-17.1-45-9.15,15.9v29.1h-23.4v-107.1Z" fill="#fff"/>
        </g>
      </g>
    </g>
  </g>
</svg>