<?xml version="1.0" encoding="UTF-8"?>
<svg id="_Слой_2" data-name="Слой 2" xmlns="http://www.w3.org/2000/svg" viewBox="0 0 253.34 389.18">
  <g id="_Слой_1-2" data-name="Слой 1">
    <g>
      <g>
        <g id="gb-nir">
          <polygon points="27.5 146.35 39.51 143.27 51.37 144.85 59.43 148.62 61.12 157.93 63.88 172.42 63.37 174.78 69.29 179.21 69.83 185.87 59.2 195.43 46.87 200.23 38.94 199.38 33.79 193.55 26.05 180.63 18.76 185.4 7.54 186.09 1.36 175.92 0 169.66 4.75 166.33 12.72 156.83 20.56 152.73 28.17 147.94 27.5 146.35" fill="#020202"/>
        </g>
        <polygon points="253.34 308.33 250.57 317.4 245.74 325.65 238.41 331.77 230.63 339.03 225.45 341.1 224.03 342.91 213.44 350.04 213.49 351.39 215.44 350.98 215.87 352.24 216.44 351.76 225.34 358.87 233.73 361.72 234 371.21 223.81 375.32 211.22 379.41 197.38 383.25 184.6 380.75 175.38 380.51 167.16 377.07 158.28 375.79 153.48 373.03 146.77 374.43 139.26 377.86 124.17 379.88 112.67 377.27 102.95 371.34 92.53 372.3 86.94 381.24 78.11 388.05 66.25 381.22 54.51 378.84 43.3 382.32 30.07 389.18 24.12 382.22 33.12 376.75 45.56 369.27 56.06 358.26 62.68 352.2 70.43 348.1 81.32 343.56 92.55 346.72 104.09 345.72 110.54 341.86 116.1 336.19 125.9 328.9 125.75 327.79 117.36 331.69 108.19 333.25 95.59 335.81 89.98 330.24 83.83 326.07 73.62 320.4 64.48 316.33 56.52 315.41 51.3 308.02 53.57 300.45 63.31 299.5 72.05 294.93 83.33 291.77 89.6 281.96 90.6 271.22 85.57 265.25 76.84 262.71 85.81 252.63 86.64 239 98.78 245.29 110.05 247.11 118.09 250.06 126.59 248.23 126.3 248.21 126.96 246.01 126.78 245.89 127.57 245.08 130 232.52 132.45 221.2 134.84 214 129.03 209.19 122.09 198.5 120.97 189.02 126.6 181.54 133.85 176.07 135.17 172.49 124.15 173.26 113.6 173.9 104.65 171.49 99.98 173.85 90.97 170.77 88.06 158.67 92.6 153.34 98.22 139.99 100.42 131.6 100.22 123.2 104.25 120.38 104.63 118.84 100.63 109.81 89.31 111.38 84.89 122.8 80.1 133.92 71.98 136.32 79.05 126.72 80.25 115.32 84.47 102.55 90.01 93.13 98.07 82.32 93.17 83.22 85.3 87.7 77.82 92.26 71.91 92.74 75.36 87.92 74.71 81.43 83.7 79.52 84.11 79.18 85.03 78.8 79.59 75.94 79.87 73.26 86.29 65.75 92.01 63.31 95.67 58.29 98.77 50.32 98.94 38.26 99.43 28.19 106.53 26.16 108.75 18.46 112.43 15.11 117.15 11.85 117.73 9.57 120.89 2.33 131.33 1.21 140.15 0 148.24 2.3 160.28 1.43 167.6 7.59 163.46 17.36 152.97 23.72 142.58 30.83 143.14 34.39 143.32 36.99 133.94 46.11 144.57 46.89 154.75 45.87 163.91 48.57 173.46 50.76 184.59 52.6 192.17 60.35 185.98 70.08 181.62 78.96 176.14 87.06 170.01 94.62 162.33 100.73 153.29 105.17 151.33 107.48 157.96 111.72 154.33 117.54 144.76 121.9 146.08 125.79 154.38 125.19 162 128.49 170.4 135.19 176.16 144.35 180.64 154.28 180.05 166.81 182.04 179.15 183.88 189.84 189.54 199.02 197.44 204.3 205.91 215.48 208.24 224.33 210 237.88 211.18 246.2 213.61 257.87 218.28 270.83 210.89 281.68 214.32 287.14 226.43 284.08 226.78 285.1 238.56 287.4 248.01 290.16 251.56 299.22 253.34 308.33" fill="#020202"/>
        <polygon points="156.74 107.6 155.6 107.4 157.54 106.6 156.74 107.6" fill="#020202"/>
      </g>
      <g>
        <g>
          <path d="M50.7,209.97v-75.75h24.15v77.25c0,7.8,4.05,13.05,12.15,13.05s12-5.25,12-12.9v-77.4h20.7l.15,75.6c0,20.4-12.15,33.3-34.05,33.3-23.7,0-35.1-12.6-35.1-33.15Z" fill="#fff"/>
          <path d="M132.9,134.22h23.4v28.2l-.75,18.3h.15l28.05-46.5h22.2l-25.5,40.8,27.3,66.3h-25.2l-17.1-45-9.15,15.9v29.1h-23.4v-107.1Z" fill="#fff"/>
        </g>
        <g>
          <path d="M85.8,249.11c-26.12,0-41.1-14.27-41.1-39.15v-81.75h36.15v83.25c0,6.21,3.11,7.05,6.15,7.05,4.15,0,6-2.13,6-6.9v-83.4h32.69l.16,81.58c0,24.25-15.35,39.31-40.05,39.31Z"/>
          <polygon points="178.41 247.31 164.33 210.28 162.3 213.82 162.3 247.31 126.9 247.31 126.9 128.22 162.3 128.22 162.3 158.16 180.36 128.22 216.77 128.22 187.17 175.58 216.7 247.31 178.41 247.31"/>
        </g>
        <g>
          <path d="M50.7,209.97v-75.75h24.15v77.25c0,7.8,4.05,13.05,12.15,13.05s12-5.25,12-12.9v-77.4h20.7l.15,75.6c0,20.4-12.15,33.3-34.05,33.3-23.7,0-35.1-12.6-35.1-33.15Z" fill="#fff"/>
          <path d="M132.9,134.22h23.4v28.2l-.75,18.3h.15l28.05-46.5h22.2l-25.5,40.8,27.3,66.3h-25.2l-17.1-45-9.15,15.9v29.1h-23.4v-107.1Z" fill="#fff"/>
        </g>
      </g>
    </g>
  </g>
</svg>